<?xml version="1.0" encoding="utf-8"?>
<!-- Generator: Adobe Illustrator 21.1.0, SVG Export Plug-In . SVG Version: 6.00 Build 0)  -->
<svg version="1.1" id="_x31_" xmlns="http://www.w3.org/2000/svg" xmlns:xlink="http://www.w3.org/1999/xlink" x="0px" y="0px"
	 viewBox="0 0 112.1 124.8" style="enable-background:new 0 0 112.1 124.8;" xml:space="preserve">
<style type="text/css">
	.st0{fill:#FFFFFF;}
	.st1{fill:#702F78;}
	.st2{fill:#FFFFFF;stroke:#F1EBF5;stroke-width:0.311;stroke-linecap:round;stroke-linejoin:round;stroke-miterlimit:10;}
</style>
<g>
	<g>
		<g>
			<path class="st0" d="M35.7,24.4c0.1-0.2,0-0.5-0.3-0.4c-0.3,0-0.6,0.3-0.9,0.4c-0.4,0.2-0.8,0.4-1.3,0.2c-0.1,0-0.1,0.1,0,0.1
				C33.9,24.9,35.2,25.3,35.7,24.4z"/>
			<path class="st0" d="M54.4,63c-0.2,0-0.4,0.3-0.2,0.5c0.2,0.3,0.5,0.4,0.8,0.6c0.4,0.3,0.7,0.6,0.9,1c0,0.1,0.1,0,0.1,0
				C55.7,64.3,55.4,62.9,54.4,63z"/>
			<path class="st0" d="M78.5,27.5c0.1,0.2,0.4,0.2,0.5,0c0.1-0.3,0.1-0.6,0.1-1c0-0.5,0.1-0.9,0.4-1.3c0,0,0-0.1-0.1-0.1
				C78.9,25.7,77.9,26.6,78.5,27.5z"/>
			<path class="st0" d="M79.2,24.7C79.3,24.7,79.2,24.6,79.2,24.7c-0.5,0-0.9-0.1-1.3-0.3C77.6,24.3,77.4,24,77,24
				c-0.3,0-0.4,0.2-0.3,0.4C77.1,25.3,78.5,24.9,79.2,24.7z"/>
			<path class="st0" d="M33.3,26.5c0,0.3,0,0.6,0.1,1c0.1,0.2,0.4,0.3,0.5,0c0.6-0.9-0.4-1.8-1-2.3c0,0-0.1,0-0.1,0.1
				C33.2,25.6,33.2,26,33.3,26.5z"/>
			<path class="st0" d="M58,63c-1-0.1-1.3,1.3-1.5,2c0,0.1,0.1,0.1,0.1,0c0.1-0.5,0.5-0.8,0.9-1c0.3-0.2,0.6-0.3,0.8-0.6
				C58.3,63.3,58.2,63,58,63z"/>
			<path class="st0" d="M56.1,6.8c0-0.1,0-0.1,0.1-0.2c0,0.1,0.1,0.1,0.1,0.2c0.2,0.6,0.1,1.3-0.1,1.9C56,8.1,55.9,7.4,56.1,6.8
				L56.1,6.8z M56.2,9L56.2,9c0.7-0.7,1-1.4,0.9-2.4C57,6,56.7,5.1,56.2,4.8c-0.5,0.4-0.8,1.2-0.9,1.8C55.2,7.6,55.5,8.3,56.2,9
				L56.2,9z"/>
			<path class="st0" d="M83.5,54.1c-0.6-0.2-1.2-0.5-1.6-1c0.6,0.1,1.3,0.4,1.7,0.9c0,0,0.1,0.1,0.1,0.2
				C83.6,54.1,83.5,54.1,83.5,54.1L83.5,54.1z M84,53.3c-0.8-0.6-1.6-0.7-2.5-0.4l0,0l0,0c0.2,0.9,0.7,1.5,1.6,1.9
				c0.5,0.3,1.4,0.4,2,0.1C85.1,54.4,84.5,53.7,84,53.3z"/>
			<path class="st0" d="M28.9,54.1c-0.1,0-0.1,0-0.2,0c0-0.1,0.1-0.1,0.1-0.2c0.4-0.5,1.1-0.8,1.7-0.9C30.1,53.6,29.5,54,28.9,54.1
				L28.9,54.1z M30.8,53C30.8,52.9,30.8,52.9,30.8,53C30.8,52.9,30.8,52.9,30.8,53c-0.9-0.3-1.7-0.2-2.5,0.4c-0.5,0.3-1.1,1-1.2,1.7
				c0.6,0.3,1.5,0.1,2-0.1C30.1,54.5,30.6,53.9,30.8,53z"/>
			<path class="st0" d="M55.1,8.5C55.2,8.6,55.3,8.5,55.1,8.5c-0.1-0.3-0.3-0.7-0.5-0.8c-0.3-0.2-0.8-0.3-1.1,0.1
				c-0.2,0.2-0.2,0.5,0.1,0.6C54.1,8.7,54.6,8.2,55.1,8.5z"/>
			<path class="st0" d="M31.1,55.9c0.2,0,0.5-0.1,0.5-0.4c0-0.6-0.8-0.8-0.7-1.4c0-0.1-0.1-0.1-0.1,0c-0.1,0.3-0.3,0.6-0.3,0.9
				C30.6,55.4,30.7,55.8,31.1,55.9z"/>
			<path class="st0" d="M83.9,51.2c-0.1-0.2-0.4-0.4-0.6-0.3c-0.5,0.3-0.3,1.1-0.9,1.3c-0.1,0-0.1,0.2,0,0.1c0.3-0.1,0.7,0,0.9-0.2
				C83.8,52,84.1,51.6,83.9,51.2z"/>
			<path class="st0" d="M57.3,8.5c0.4-0.4,1,0.2,1.5-0.1C59,8.3,59,8,58.9,7.8c-0.3-0.3-0.7-0.2-1.1-0.1C57.6,7.9,57.4,8.2,57.3,8.5
				C57.1,8.5,57.2,8.6,57.3,8.5z"/>
			<path class="st0" d="M28.4,51.2c-0.1,0.4,0.2,0.7,0.5,1c0.2,0.2,0.7,0.1,0.9,0.2c0.1,0,0.1-0.1,0-0.1c-0.5-0.2-0.4-1-0.9-1.3
				C28.8,50.8,28.5,51,28.4,51.2z"/>
			<path class="st0" d="M81.8,55c0-0.3-0.2-0.6-0.3-0.9c0-0.1-0.1-0.1-0.1,0c0.1,0.6-0.7,0.8-0.7,1.4c0,0.3,0.3,0.4,0.5,0.4
				C81.7,55.8,81.8,55.4,81.8,55z"/>
			<path class="st0" d="M51,13.1c1.3,0.3,2.6-0.3,3.6-1.1c0.2-0.1,0-0.3-0.2-0.2c-1,0.8-2.3,0.8-3.4,0.3c-0.9-0.4-1.2-1.2-1.9-1.7
				c-0.3-0.2-0.8,0.1-0.7,0.4C48.6,12,49.9,12.8,51,13.1z"/>
			<path class="st0" d="M34.2,52.8C34,52.7,33.9,53,34.1,53c1.2,0.4,1.8,1.6,1.9,2.8c0.1,0.9-0.4,1.7-0.5,2.5c0,0.3,0.4,0.6,0.7,0.4
				c1-0.8,1-2.3,0.7-3.4C36.6,54.1,35.4,53.3,34.2,52.8z"/>
			<path class="st0" d="M81.4,47c0.8-0.5,1.6-0.5,2.5-0.8c0.3-0.1,0.3-0.7,0-0.8c-1.2-0.5-2.5,0.2-3.3,1.1c-0.9,1-1,2.4-0.9,3.7
				c0,0.2,0.3,0.2,0.3,0C79.8,48.8,80.4,47.7,81.4,47z"/>
			<path class="st0" d="M61.3,12.1c-1.1,0.5-2.4,0.6-3.4-0.3c-0.1-0.1-0.3,0.1-0.2,0.2c1,0.7,2.3,1.4,3.6,1.1
				c1.1-0.3,2.4-1.1,2.6-2.3c0-0.3-0.4-0.6-0.7-0.4C62.5,10.9,62.1,11.7,61.3,12.1z"/>
			<path class="st0" d="M32.6,50.1c0.1-1.3,0.1-2.7-0.9-3.7c-0.8-0.8-2.1-1.6-3.3-1.1c-0.3,0.1-0.3,0.7,0,0.8
				c0.8,0.3,1.7,0.3,2.5,0.8c1,0.7,1.7,1.8,1.5,3.1C32.3,50.2,32.6,50.3,32.6,50.1z"/>
			<path class="st0" d="M78.3,53c0.2-0.1,0.1-0.3-0.1-0.2c-1.1,0.5-2.4,1.3-2.7,2.6c-0.3,1.1-0.3,2.6,0.7,3.4
				c0.3,0.2,0.8-0.1,0.7-0.4c-0.1-0.9-0.6-1.6-0.5-2.5C76.5,54.6,77,53.5,78.3,53z"/>
			<path class="st0" d="M53.1,11.9c0.1,0,0.1-0.2,0-0.2c-0.9-0.1-1.5-0.7-2-1.4c-0.4-0.6-0.2-1.5-0.7-2c-0.3-0.3-0.7-0.2-0.9,0.1
				c-0.6,0.8,0.3,2.1,0.9,2.7C51.2,11.8,52.1,11.9,53.1,11.9z"/>
			<path class="st0" d="M34.9,54.2c0-0.1-0.2,0-0.2,0.1c0.3,0.8,0.2,1.7-0.2,2.4c-0.4,0.7-1.2,0.9-1.4,1.6C33,58.7,33.3,59,33.7,59
				c1,0.1,1.7-1.3,1.9-2.1C35.7,55.9,35.4,55,34.9,54.2z"/>
			<path class="st0" d="M80.7,48.9c0.5-0.7,1.4-1,2.2-1c0.8,0,1.3,0.6,2.1,0.4c0.4-0.1,0.5-0.5,0.4-0.8c-0.4-0.9-2-0.8-2.8-0.6
				C81.6,47.2,81,47.9,80.7,48.9C80.5,48.9,80.7,49,80.7,48.9z"/>
			<path class="st0" d="M61.9,11.1c0.6-0.6,1.5-1.9,0.9-2.7c-0.2-0.3-0.6-0.4-0.9-0.1c-0.5,0.6-0.3,1.4-0.7,2
				c-0.4,0.7-1.1,1.3-2,1.4c-0.1,0-0.1,0.2,0,0.2C60.2,11.9,61.2,11.8,61.9,11.1z"/>
			<path class="st0" d="M27,47.5c-0.1,0.3-0.1,0.8,0.4,0.8c0.7,0.1,1.3-0.5,2.1-0.4c0.8,0,1.7,0.3,2.2,1c0.1,0.1,0.2,0,0.1-0.1
				c-0.4-0.8-1.1-1.6-2-1.9C29,46.7,27.4,46.6,27,47.5z"/>
			<path class="st0" d="M77.9,56.7c-0.4-0.7-0.6-1.6-0.2-2.4c0-0.1-0.1-0.1-0.2-0.1c-0.5,0.8-0.9,1.7-0.6,2.7
				c0.2,0.8,0.9,2.2,1.9,2.1c0.3,0,0.7-0.3,0.6-0.7C79.1,57.5,78.2,57.3,77.9,56.7z"/>
			<path class="st0" d="M52.4,10.6c-0.4-1.4,0.5-2.4,0.8-3.7c0.1-0.4-0.3-0.7-0.7-0.5c-0.8,0.4-1.1,1.1-1.2,2s0.4,1.6,0.9,2.2
				C52.3,10.7,52.4,10.6,52.4,10.6z"/>
			<path class="st0" d="M34.2,55.5c0-0.1-0.1-0.1-0.1-0.1c-1,1-2.3,0.8-3.6,1.2c-0.4,0.1-0.4,0.6-0.1,0.8c0.7,0.5,1.5,0.4,2.3,0
				C33.6,57.1,33.9,56.3,34.2,55.5z"/>
			<path class="st0" d="M84.5,49c-0.7-0.5-1.6-0.5-2.4-0.3c-0.1,0-0.1,0.1,0,0.1c1.4,0.4,1.9,1.6,2.8,2.5c0.3,0.3,0.7,0.1,0.8-0.3
				C85.8,50.1,85.2,49.5,84.5,49z"/>
			<path class="st0" d="M60,10.6c0,0.1,0.1,0.1,0.1,0.1c0.5-0.6,1-1.3,0.9-2.2s-0.3-1.6-1.2-2C59.4,6.3,59,6.6,59.1,7
				C59.5,8.1,60.4,9.2,60,10.6z"/>
			<path class="st0" d="M27.5,51.3c0.9-0.9,1.4-2.1,2.8-2.5c0.1,0,0.1-0.1,0-0.1c-0.8-0.1-1.7-0.2-2.4,0.3c-0.7,0.5-1.2,1.1-1.1,2
				C26.7,51.4,27.2,51.6,27.5,51.3z"/>
			<path class="st0" d="M81.8,56.6c-1.2-0.4-2.6-0.1-3.6-1.2c0-0.1-0.2,0-0.1,0.1c0.3,0.8,0.7,1.6,1.5,1.9c0.8,0.4,1.6,0.5,2.3,0
				C82.3,57.2,82.2,56.8,81.8,56.6z"/>
			<path class="st0" d="M83.5,40.6c0,0.5,0,0.9-0.1,1.4c-0.1,0.3-0.2,0.7-0.4,0.9c-0.2,0.4-0.4,0.6-0.7,0.6c0.1-0.6-0.3-1.3-1.2-1.2
				c-0.6,0.1-0.9,1-0.7,1.5c0.3,0.5,0.7,0.7,1.1,0.8c-1.5,1.1-2.9,2.5-3,4.5c-0.1,0.9,0.4,2,1.2,2.6c-0.9-0.3-2.1-0.2-2.9,0.3
				c-1.7,1.1-2.2,2.9-2.4,4.8c-0.3-0.4-0.7-0.6-1.2-0.6c-0.6,0-1.2,0.7-0.9,1.3c0.3,0.9,1.2,0.9,1.6,0.5c0.1,0.3,0,0.6-0.2,0.9
				c-0.2,0.3-0.4,0.6-0.6,0.8c-0.4,0.3-0.7,0.6-1.2,0.8c-0.9,0.4-2,0.7-3,0.9c-1.9,0.4-3.9,0.5-5.8,0.3l0,0
				c-1.3-0.1-2.7,0.8-3.5,1.7c-0.9,1-1.7,2.1-2.4,3.3c-0.2-0.7-0.6-1.3-0.9-1.8c-0.4,0.6-0.7,1.2-0.9,1.8c-0.7-1.2-1.5-2.3-2.4-3.3
				c-0.9-0.9-2.3-1.8-3.5-1.7l0,0c-1.9,0.2-3.9,0.1-5.8-0.3c-1-0.2-2-0.5-3-0.9c-0.4-0.2-0.8-0.5-1.2-0.8c-0.3-0.2-0.5-0.5-0.6-0.8
				c-0.2-0.4-0.3-0.7-0.2-0.9c0.4,0.4,1.3,0.4,1.6-0.5c0.2-0.6-0.4-1.3-0.9-1.3s-0.9,0.2-1.2,0.6c-0.2-1.9-0.7-3.7-2.4-4.8
				c-0.8-0.5-2-0.6-2.9-0.3c0.7-0.6,1.2-1.7,1.2-2.6c-0.1-2-1.4-3.4-3-4.5c0.4-0.1,0.8-0.3,1.1-0.8c0.3-0.5-0.1-1.4-0.7-1.5
				c-1-0.2-1.4,0.6-1.2,1.2c-0.3,0-0.5-0.3-0.7-0.6s-0.3-0.6-0.4-0.9c-0.1-0.5-0.1-0.9-0.1-1.4c0.1-1,0.4-2.1,0.7-3
				c0.6-1.8,1.5-3.6,2.7-5.1c0,0,0,0,0-0.1c0.7-1.1,0.7-2.7,0.3-3.9c-0.4-1.3-0.9-2.6-1.6-3.7c0.7,0.1,1.4,0.2,2,0.1
				c-0.3-0.6-0.7-1.2-1.1-1.7c1.4,0,2.7-0.2,4-0.5s2.7-1.1,3.2-2.2c0,0,0,0,0.1,0c0.8-1.8,1.9-3.4,3.1-4.9c0.7-0.8,1.4-1.5,2.3-2.1
				c0.4-0.3,0.8-0.5,1.3-0.6c0.3-0.1,0.7-0.1,1-0.1c0.4,0,0.7,0.1,0.9,0.3c-0.6,0.2-1,0.9-0.4,1.6c0.4,0.5,1.3,0.3,1.6-0.2
				c0.3-0.5,0.3-0.9,0.1-1.3c1.7,0.8,3.6,1.2,5.4,0.3c0.8-0.4,1.5-1.4,1.7-2.3c0.2,1,0.8,1.9,1.7,2.3c1.8,0.9,3.7,0.5,5.4-0.3
				c-0.2,0.4-0.2,0.9,0.1,1.3c0.3,0.5,1.2,0.6,1.6,0.2c0.6-0.7,0.2-1.5-0.4-1.6c0.2-0.2,0.5-0.3,0.9-0.3c0.3,0,0.7,0,1,0.1
				c0.5,0.2,0.9,0.4,1.3,0.6c0.8,0.6,1.6,1.3,2.3,2.1c1.3,1.5,2.3,3.1,3.1,4.9c0,0,0,0,0.1,0c0.6,1.1,2,1.9,3.2,2.2
				c1.3,0.3,2.7,0.5,4,0.5c-0.4,0.5-0.8,1.1-1.1,1.7c0.7,0.1,1.4,0,2-0.1c-0.7,1.2-1.2,2.4-1.6,3.7c-0.4,1.2-0.4,2.8,0.3,3.9
				c0,0,0,0,0,0.1c1.1,1.6,2,3.3,2.7,5.1C83.1,38.6,83.4,39.6,83.5,40.6L83.5,40.6z M55.6,67.4c0.2,0.4,0.4,0.8,0.6,1.3
				c0.2-0.4,0.4-0.9,0.6-1.3c-0.1-0.6-0.3-1.2-0.6-1.8C55.9,66.2,55.6,66.8,55.6,67.4L55.6,67.4z M56.8,68.6
				c-0.1,0.8-0.3,1.5-0.7,2.2c-0.3-0.7-0.6-1.4-0.7-2.2c0-0.2,0-0.5,0-0.7c0.2,0.5,0.5,0.9,0.7,1.4c0.2-0.5,0.4-0.9,0.7-1.4
				C56.9,68.1,56.9,68.3,56.8,68.6L56.8,68.6z M30.6,24.3c0.6,0.2,1.2,0.4,1.9,0.4c-0.3-0.6-0.7-1-1.2-1.4c-0.5,0-0.9,0-1.4-0.1
				C30.1,23.5,30.4,23.9,30.6,24.3L30.6,24.3z M29.6,23.7c0.2,0.2,0.4,0.3,0.7,0.4c-0.3-0.4-0.6-0.9-0.9-1.3c0.5,0.1,1,0.1,1.6,0.1
				c-0.2-0.1-0.4-0.3-0.7-0.4c-0.7-0.3-1.5-0.4-2.2-0.5C28.5,22.7,29,23.2,29.6,23.7L29.6,23.7z M81.1,23.2
				c-0.5,0.4-0.9,0.9-1.2,1.4c0.6,0,1.3-0.1,1.9-0.4c0.2-0.4,0.5-0.8,0.8-1.2C82.1,23.1,81.6,23.2,81.1,23.2L81.1,23.2z M82.1,22.6
				c-0.3,0.1-0.5,0.2-0.7,0.4c0.5,0,1.1-0.1,1.6-0.1c-0.3,0.4-0.6,0.9-0.9,1.3c0.2-0.1,0.5-0.3,0.7-0.4c0.6-0.5,1.1-1,1.5-1.6
				C83.5,22.1,82.8,22.3,82.1,22.6L82.1,22.6z M83.3,33.3c-0.7,0.6-0.9,1.7-0.7,2.6c-0.5-1-1.2-2-1.9-2.9c0.3,0.3,0.7,0.5,1.2,0.5
				c0.8,0.1,1.7-0.5,1.7-1.3c0-0.7-0.8-1.4-1.5-1c-0.6,0.3-0.6,0.8-0.3,1.2c-0.1,0-0.2,0-0.3,0c-0.3-0.1-0.6-0.3-0.9-0.6
				c-0.5-0.4-0.6-1.1-0.6-1.7c-0.1-1,0.3-2.1,0.7-3.1c0.3-0.8,0.6-1.5,1-2.2c2-0.4,3.9-1.7,4.4-3.7c-2-0.6-4,0.4-5.4,2
				c-0.8,0-1.6-0.1-2.4-0.2c-1-0.2-2.2-0.4-3-1c-0.5-0.3-1.1-0.8-1.2-1.4c-0.1-0.4-0.1-0.7,0-1.1c0.1-0.1,0.1-0.2,0.2-0.2
				c0.2,0.4,0.6,0.6,1.2,0.3c0.7-0.4,0.4-1.5-0.2-1.8c-0.8-0.4-1.7,0.1-2,0.8c-0.2,0.5-0.2,0.9-0.2,1.3c-0.4-1.1-0.9-2.1-1.6-3.1
				c0.7,0.6,1.7,1,2.6,0.7s1.8-1.4,1.2-2.4c-0.5-0.9-2.1-1.3-2.4,0c-0.3,1.1,1.2,1.5,1.6,0.6c0,0.1,0.1,0.1,0.1,0.2
				c0.1,0.3,0,0.5-0.1,0.8c-0.3,0.4-0.8,0.7-1.4,0.6c-1-0.1-1.5-0.8-2.3-1.4l0,0c-0.5-0.7-1-1.4-1.7-2c-1.3-1.3-3.6-2.7-5.3-1.3
				c-0.1,0.1-0.2,0.2-0.3,0.4c-1,0.4-2.1,0.8-3.2,0.8c-0.9,0-2-0.2-2.6-1c-0.3-0.3-0.5-0.7-0.6-1.1c-0.1-0.3-0.1-0.5,0-0.7
				c0.3,0.5,0.8,0.8,1.3,0.4c1.2-0.9,0.1-2.9-1.3-2.1c-0.6,0.3-0.9,0.8-0.9,1.3c-0.1-0.5-0.4-1-0.9-1.3c-1.4-0.8-2.5,1.2-1.3,2.1
				c0.5,0.4,1.1,0.1,1.3-0.4c0.1,0.2,0.1,0.4,0,0.7c-0.1,0.4-0.3,0.8-0.6,1.1c-0.6,0.7-1.7,1-2.6,1c-1.1,0-2.2-0.3-3.2-0.8
				c-0.1-0.1-0.2-0.2-0.3-0.4c-1.7-1.4-4,0-5.3,1.3c-0.6,0.6-1.1,1.3-1.7,2l0,0c-0.7,0.6-1.3,1.2-2.3,1.4c-0.6,0.1-1.1-0.2-1.4-0.6
				c-0.2-0.2-0.2-0.5-0.1-0.8c0-0.1,0.1-0.1,0.1-0.2c0.4,0.9,1.9,0.5,1.6-0.6c-0.4-1.3-1.9-0.9-2.4,0c-0.6,1,0.3,2.1,1.2,2.4
				c0.9,0.3,1.9-0.1,2.6-0.7c-0.6,1-1.1,2-1.6,3.1c0.1-0.4,0-0.8-0.2-1.3c-0.3-0.8-1.3-1.3-2-0.8c-0.6,0.3-0.8,1.4-0.2,1.8
				c0.6,0.3,1,0.1,1.2-0.3c0.1,0.1,0.1,0.2,0.2,0.2c0.1,0.4,0.1,0.7,0,1.1c-0.1,0.6-0.7,1.1-1.2,1.4c-0.9,0.6-2,0.8-3,1
				c-0.8,0.2-1.6,0.2-2.4,0.2c-1.4-1.6-3.4-2.6-5.4-2c0.5,2,2.4,3.3,4.4,3.7c0.4,0.7,0.7,1.4,1,2.2c0.3,1,0.7,2.1,0.7,3.1
				c0,0.6-0.1,1.3-0.6,1.7c-0.3,0.3-0.5,0.5-0.9,0.6c-0.1,0-0.2,0-0.3,0c0.2-0.4,0.2-0.9-0.3-1.2c-0.7-0.4-1.5,0.4-1.5,1
				c0,0.9,0.9,1.5,1.7,1.3c0.5-0.1,0.9-0.3,1.2-0.5c-0.7,0.9-1.4,1.9-1.9,2.9c0.2-0.9,0-2-0.7-2.6c-0.8-0.6-2.1-0.9-2.7,0.2
				c-0.6,0.9-0.1,2.5,1.2,2.1c1.1-0.3,0.7-1.8-0.3-1.7c0-0.1,0.1-0.1,0.1-0.2c0.2-0.2,0.5-0.3,0.7-0.3c0.5,0.1,1,0.4,1.2,0.9
				c0.4,0.9,0.1,1.7,0,2.6l0,0c-0.4,0.8-0.7,1.6-0.9,2.4c-0.5,1.7-0.5,4.4,1.5,5.2c0.2,0.1,0.3,0.1,0.5,0.1c0.9,0.7,1.7,1.4,2.3,2.4
				c0.4,0.8,0.8,1.8,0.4,2.8c-0.1,0.4-0.3,0.8-0.6,1.1c-0.2,0.2-0.4,0.4-0.6,0.4c0.3-0.5,0.3-1.1-0.3-1.4c-1.4-0.6-2.6,1.4-1.2,2.2
				c0.6,0.3,1.1,0.3,1.6,0.2c-0.4,0.3-0.7,0.8-0.7,1.5c0,1.6,2.3,1.6,2.5,0c0.1-0.7-0.5-1-1-1c0.1-0.2,0.3-0.3,0.6-0.3
				c0.4-0.1,0.8-0.1,1.2,0c1,0.2,1.7,1,2.2,1.8c0.6,0.9,0.8,2.1,0.9,3.2c-0.1,0.1-0.1,0.3-0.1,0.5c-0.4,2.2,2,3.5,3.7,3.9
				c0.8,0.2,1.7,0.4,2.5,0.4l0,0c0.9,0.4,1.7,0.5,2.3,1.3c0.3,0.5,0.4,1,0.2,1.5c-0.1,0.3-0.3,0.4-0.6,0.5c-0.1,0-0.2,0-0.2,0
				c0.6-0.8-0.6-1.9-1.3-1.1c-0.9,1,0.2,2.1,1.3,2.1c1.2,0,1.7-1.3,1.5-2.3c-0.2-0.9-1-1.6-1.9-1.9c1.2,0,2.3,0,3.5-0.2
				c-0.4,0.2-0.7,0.4-1.1,0.8c-0.5,0.7-0.5,1.7,0.3,2.2c0.6,0.3,1.6,0,1.6-0.8c0-0.7-0.4-0.9-0.9-0.9c0-0.1,0.1-0.2,0.1-0.3
				c0.3-0.2,0.6-0.4,0.9-0.5c0.6-0.2,1.3,0,1.8,0.3c0.9,0.5,1.7,1.4,2.4,2.2c0.5,0.6,1,1.3,1.4,2c-0.6,2-0.5,4.2,1,5.7
				c1.5-1.4,1.7-3.7,1-5.7c0.4-0.7,0.9-1.4,1.4-2c0.7-0.8,1.4-1.7,2.4-2.2c0.6-0.3,1.2-0.5,1.8-0.3c0.4,0.1,0.7,0.2,0.9,0.5
				c0,0.1,0.1,0.2,0.1,0.3c-0.4,0-0.9,0.2-0.9,0.9c0,0.8,1,1.1,1.6,0.8c0.8-0.4,0.8-1.5,0.3-2.2c-0.3-0.4-0.7-0.6-1.1-0.8
				c1.1,0.2,2.3,0.2,3.5,0.2c-0.9,0.3-1.7,1-1.9,1.9c-0.2,1,0.3,2.3,1.5,2.3c1.1,0,2.2-1.1,1.3-2.1c-0.8-0.8-1.9,0.3-1.3,1.1
				c-0.1,0-0.2,0-0.2,0c-0.3-0.1-0.5-0.3-0.6-0.5c-0.2-0.5-0.2-1.1,0.2-1.5c0.6-0.8,1.5-0.9,2.3-1.3l0,0c0.9-0.1,1.7-0.2,2.5-0.4
				c1.7-0.5,4.1-1.8,3.7-3.9c0-0.2-0.1-0.3-0.1-0.5c0.1-1.1,0.3-2.2,0.9-3.2c0.5-0.8,1.2-1.6,2.2-1.8c0.4-0.1,0.8-0.1,1.2,0
				c0.3,0.1,0.5,0.2,0.6,0.3c-0.5,0-1.1,0.3-1,1c0.2,1.5,2.5,1.5,2.5,0c0-0.6-0.3-1.1-0.7-1.5c0.5,0.2,1,0.2,1.6-0.2
				c1.4-0.8,0.2-2.7-1.2-2.2c-0.6,0.3-0.6,0.9-0.3,1.4c-0.2,0-0.4-0.1-0.6-0.4c-0.3-0.3-0.5-0.7-0.6-1.1c-0.3-0.9,0-1.9,0.4-2.8
				c0.5-1,1.4-1.7,2.3-2.4c0.2,0,0.3,0,0.5-0.1c2.1-0.8,2-3.5,1.5-5.2c-0.2-0.8-0.5-1.6-0.9-2.4l0,0c-0.1-0.9-0.4-1.7,0-2.6
				c0.2-0.5,0.7-0.8,1.2-0.9c0.3,0,0.5,0.1,0.7,0.3c0.1,0.1,0.1,0.1,0.1,0.2c-1-0.1-1.4,1.4-0.3,1.7c1.3,0.3,1.7-1.2,1.2-2.1
				C85.4,32.5,84.1,32.7,83.3,33.3z"/>
			<path class="st0" d="M35.2,22.2c0.8-0.3,2.1-1,1.8-1.9c-0.1-0.2-0.3-0.4-0.5-0.4c-0.7,0-1.2,0.9-1.8,1.3
				c-0.7,0.5-1.5,0.8-2.4,0.9c-0.1,0-0.1,0.1,0,0.1C33.3,22.6,34.3,22.5,35.2,22.2z"/>
			<path class="st0" d="M52.1,65.4c0.8,0.4,1.4,0.9,2,1.6c0,0.1,0.1,0,0.1-0.1c-0.2-0.9-0.7-1.8-1.4-2.4c-0.6-0.5-1.9-1.3-2.6-0.6
				C50,64,50,64.3,50.1,64.5C50.5,65.1,51.5,65.1,52.1,65.4z"/>
			<path class="st0" d="M82,25.7c-0.7,0.6-1.2,1.5-1.4,2.4c-0.2,0.8-0.2,2.3,0.8,2.5c0.2,0.1,0.4,0,0.5-0.2c0.4-0.6-0.1-1.5-0.2-2.2
				C81.6,27.3,81.8,26.5,82,25.7C82.1,25.7,82,25.7,82,25.7z"/>
			<path class="st0" d="M75.4,20.3c-0.2,1,1,1.7,1.8,1.9c0.9,0.3,1.9,0.3,2.8,0c0.1,0,0.1-0.1,0-0.1c-0.9-0.1-1.6-0.3-2.4-0.9
				c-0.6-0.4-1-1.3-1.8-1.3C75.6,20,75.4,20.1,75.4,20.3z"/>
			<path class="st0" d="M30.5,30.4c0.1,0.2,0.3,0.3,0.5,0.2c0.9-0.3,0.9-1.7,0.8-2.5c-0.2-0.9-0.7-1.8-1.4-2.4c0,0-0.2,0-0.1,0.1
				c0.3,0.8,0.5,1.6,0.4,2.5C30.6,29,30.1,29.8,30.5,30.4z"/>
			<path class="st0" d="M60.2,65.4c0.6-0.3,1.6-0.3,2-0.9c0.1-0.2,0.1-0.4-0.1-0.6c-0.7-0.7-2,0.1-2.6,0.6c-0.7,0.6-1.3,1.5-1.4,2.4
				c0,0.1,0.1,0.1,0.1,0.1C58.8,66.3,59.4,65.8,60.2,65.4z"/>
			<path class="st0" d="M26.5,19.8c0.8,0.3,1.6,0.3,2.4,0.6c1,0.3,1.8,1,2.6,1.6c0,0,0.1,0,0.1-0.1c-0.4-0.9-1-1.6-1.8-2.1
				c-0.8-0.6-2.1-1.2-3.2-0.9C26.2,19,26.1,19.6,26.5,19.8z"/>
			<path class="st0" d="M54.4,67.8C54.4,67.8,54.3,67.7,54.4,67.8c-0.7,0.7-0.9,1.6-1,2.6s0,2.5,0.8,3.2c0.3,0.3,0.9,0.1,0.8-0.4
				c-0.1-0.8-0.5-1.6-0.7-2.4C54.1,69.9,54.3,68.8,54.4,67.8z"/>
			<path class="st0" d="M82.7,25.1L82.7,25.1c1,0.2,1.9,0,2.7-0.4c0.9-0.4,2.1-1.2,2.4-2.3c0.1-0.4-0.4-0.8-0.7-0.6
				c-0.7,0.5-1.1,1.2-1.7,1.8C84.6,24.3,83.6,24.7,82.7,25.1z"/>
			<path class="st0" d="M80.8,21.9C80.8,21.9,80.8,22,80.8,21.9c0.9-0.5,1.7-1.2,2.7-1.5c0.8-0.3,1.7-0.3,2.4-0.6
				c0.4-0.2,0.3-0.8-0.1-0.9c-1-0.3-2.3,0.4-3.2,0.9C81.8,20.3,81.2,21,80.8,21.9z"/>
			<path class="st0" d="M27,24.7c0.9,0.4,1.8,0.6,2.7,0.5c0.1,0,0.1-0.1,0-0.1c-0.9-0.4-1.9-0.8-2.7-1.4c-0.6-0.5-1.1-1.3-1.7-1.8
				c-0.4-0.3-0.8,0.2-0.7,0.6C24.8,23.4,26,24.2,27,24.7z"/>
			<path class="st0" d="M58.1,67.8C58.1,67.7,58,67.8,58.1,67.8c0,1,0.2,2.1,0,3.1c-0.2,0.8-0.6,1.6-0.7,2.4c0,0.4,0.6,0.6,0.8,0.4
				c0.8-0.8,0.8-2.2,0.8-3.2C58.9,69.4,58.7,68.6,58.1,67.8z"/>
			<path class="st0" d="M34.1,20.6c0.4-0.4,1-1.2,0.6-1.7c-0.1-0.2-0.4-0.3-0.6-0.2c-0.5,0.2-0.6,0.7-0.8,1.2
				c-0.2,0.5-0.4,1.1-0.8,1.5c0,0.1,0,0.2,0.1,0.1C33.1,21.2,33.7,21,34.1,20.6z"/>
			<path class="st0" d="M53.3,67.2c-0.5-0.4-0.9-0.7-1.5-0.9c-0.6-0.1-1.5-0.2-1.8,0.4c-0.1,0.2-0.1,0.5,0.1,0.6
				c0.4,0.4,0.9,0.2,1.4,0.1C52,67.3,52.6,67.2,53.3,67.2C53.3,67.3,53.4,67.2,53.3,67.2z"/>
			<path class="st0" d="M82.6,26.3c-0.1,0.6-0.2,1.1,0,1.7c0.2,0.6,0.5,1.4,1.2,1.4c0.2,0,0.5-0.2,0.5-0.4c0.1-0.6-0.3-0.9-0.6-1.3
				c-0.3-0.4-0.7-0.9-0.9-1.4C82.8,26.2,82.6,26.2,82.6,26.3z"/>
			<path class="st0" d="M79.8,21.4c0.1,0,0.1-0.1,0.1-0.1c-0.4-0.4-0.6-1-0.8-1.5c-0.2-0.5-0.3-1-0.8-1.2c-0.2-0.1-0.5,0.1-0.6,0.2
				c-0.4,0.6,0.2,1.3,0.6,1.7C78.7,21,79.2,21.2,79.8,21.4z"/>
			<path class="st0" d="M29.6,26.3c-0.2,0.5-0.6,1-0.9,1.4S28,28.4,28.1,29c0,0.2,0.3,0.4,0.5,0.4c0.7,0,1.1-0.8,1.2-1.4
				c0.2-0.6,0-1.1,0-1.7C29.7,26.2,29.6,26.2,29.6,26.3z"/>
			<path class="st0" d="M60.5,66.3c-0.6,0.2-1,0.5-1.5,0.9c-0.1,0.1,0,0.2,0.1,0.1c0.5-0.1,1.1,0,1.7,0.1c0.5,0.1,1,0.2,1.4-0.1
				c0.2-0.2,0.2-0.4,0.1-0.6C62,66,61,66.1,60.5,66.3z"/>
			<path class="st0" d="M30.8,19.5c0.2,0.2,0.4,0.3,0.5,0.6c0.1,0.2,0.2,0.4,0.3,0.6c0,0.1,0.1,0,0.1,0c0.2-0.5,0-1.2-0.1-1.6
				c-0.2-0.7-0.8-1.1-1.4-1.3c-0.4-0.1-0.8,0.4-0.4,0.8C30.1,18.8,30.5,19.1,30.8,19.5z"/>
			<path class="st0" d="M53.1,68.3c-0.5,0.1-1,0.6-1.3,0.9c-0.5,0.5-0.6,1.2-0.4,1.9c0.1,0.4,0.8,0.5,0.9,0s0.2-0.9,0.3-1.4
				c0.1-0.3,0.1-0.5,0.2-0.7s0.3-0.4,0.4-0.6C53.2,68.3,53.2,68.2,53.1,68.3z"/>
			<path class="st0" d="M86.5,25.3c-0.5,0.1-0.9,0.3-1.4,0.4c-0.2,0.1-0.5,0.2-0.7,0.2s-0.5-0.1-0.7,0c-0.1,0-0.1,0.1-0.1,0.1
				c0.3,0.4,1,0.6,1.5,0.7c0.7,0.1,1.3-0.1,1.8-0.6C87.3,25.7,87,25.2,86.5,25.3z"/>
			<path class="st0" d="M80.7,20.6c0.1-0.2,0.2-0.4,0.3-0.6c0.1-0.2,0.3-0.4,0.5-0.6c0.4-0.3,0.7-0.6,1-1c0.3-0.3,0-0.9-0.4-0.8
				c-0.7,0.1-1.2,0.6-1.4,1.3c-0.2,0.5-0.3,1.1-0.1,1.6C80.6,20.7,80.7,20.7,80.7,20.6z"/>
			<path class="st0" d="M27.2,26.7c0.5-0.1,1.2-0.3,1.5-0.7c0-0.1,0-0.1-0.1-0.1c-0.2,0-0.5,0-0.7,0c-0.3,0-0.5-0.1-0.7-0.2
				c-0.5-0.1-0.9-0.3-1.4-0.4c-0.5-0.1-0.7,0.4-0.4,0.8C25.9,26.6,26.5,26.8,27.2,26.7z"/>
			<path class="st0" d="M59.3,68.3c-0.1,0-0.1,0.1-0.1,0.1c0.1,0.2,0.3,0.4,0.4,0.6c0.1,0.2,0.2,0.5,0.2,0.7
				c0.1,0.5,0.2,0.9,0.3,1.4c0.1,0.5,0.7,0.4,0.9,0c0.2-0.6,0.1-1.3-0.4-1.9C60.3,68.8,59.8,68.3,59.3,68.3z"/>
			<path class="st0" d="M34,25.9c0.4,0.3,0.7,0.7,1.2,0.5c0.1,0,0.2-0.1,0.2-0.1c0-0.1,0-0.2,0-0.3c-0.1-0.6-0.6-0.6-1.1-0.8
				c-0.2-0.1-0.4-0.1-0.7-0.2c-0.2,0-0.4-0.1-0.5-0.1c0.1,0.2,0.2,0.3,0.4,0.4C33.7,25.6,33.8,25.7,34,25.9z"/>
			<path class="st0" d="M78,25.3c-0.5,0.1-0.9,0.2-1.1,0.8c0,0.1,0,0.2,0,0.2c0.1,0.1,0.1,0.1,0.2,0.1c0.6,0.2,0.8-0.2,1.2-0.5
				c0.2-0.2,0.3-0.3,0.5-0.5c0.1-0.1,0.3-0.2,0.4-0.4c-0.2,0-0.4,0.1-0.5,0.1C78.5,25.2,78.2,25.2,78,25.3z"/>
			<path class="st0" d="M56.4,62.4c-0.1-0.1-0.1-0.1-0.2-0.1S56,62.4,56,62.4c-0.4,0.4-0.3,0.8-0.1,1.3c0.1,0.2,0.1,0.4,0.2,0.7
				c0.1,0.2,0.1,0.4,0.2,0.5c0.1-0.2,0.1-0.3,0.2-0.5s0.1-0.4,0.2-0.7C56.7,63.2,56.8,62.8,56.4,62.4z"/>
			<path class="st0" d="M42.4,17.6c0.6-0.1,1.2,0,1.7-0.4c0.2-0.2,0.3-0.5,0-0.7c-1.1-0.6-2.6,0.6-3.4,1.4c-0.1,0.1,0,0.2,0.1,0.1
				C41.4,17.9,41.9,17.7,42.4,17.6z"/>
			<path class="st0" d="M45.2,60.5c-0.4-0.4-0.7-1.1-1.2-1.3c-0.2-0.1-0.6,0-0.6,0.3c0.1,1.3,1.8,2,2.9,2.2c0.1,0,0.1-0.1,0.1-0.1
				C45.9,61.3,45.5,60.9,45.2,60.5z"/>
			<path class="st0" d="M81,38.8c1-0.7,0.8-2.6,0.5-3.6c0-0.1-0.1-0.1-0.2,0c-0.1,0.5-0.2,1.1-0.4,1.6c-0.2,0.5-0.6,1.1-0.5,1.7
				C80.5,38.7,80.7,38.9,81,38.8z"/>
			<path class="st0" d="M68.2,16.6c-0.3,0.1-0.2,0.5,0,0.7c0.5,0.4,1.2,0.3,1.7,0.4c0.5,0.1,1.1,0.2,1.6,0.4c0.1,0,0.1-0.1,0.1-0.1
				C70.8,17.2,69.3,16,68.2,16.6z"/>
			<path class="st0" d="M31,35.1c0-0.1-0.1-0.1-0.2,0c-0.3,1-0.5,2.9,0.5,3.6c0.3,0.2,0.6-0.1,0.6-0.3c0.1-0.6-0.3-1.2-0.5-1.7
				C31.2,36.2,31.1,35.7,31,35.1z"/>
			<path class="st0" d="M69,59.6c0-0.3-0.3-0.4-0.6-0.3c-0.5,0.2-0.8,0.9-1.2,1.3c-0.3,0.4-0.7,0.8-1.2,1.2c-0.1,0.1,0,0.2,0.1,0.1
				C67.2,61.5,68.9,60.8,69,59.6z"/>
			<path class="st0" d="M42.3,16.4c0.7-0.2,1.2-0.3,1.9-0.3c0.5,0,1.1,0.1,1.6-0.2c0.3-0.2,0.3-0.7,0-0.9c-1.1-0.7-2.7,0.5-3.6,1.2
				C42.1,16.3,42.1,16.5,42.3,16.4z"/>
			<path class="st0" d="M43,59.8c-0.3-0.5-0.5-1-1-1.3c-0.3-0.2-0.8,0.1-0.8,0.4c0,1.3,1.8,2.1,2.8,2.5c0.1,0.1,0.3-0.1,0.2-0.2
				C43.7,60.8,43.3,60.4,43,59.8z"/>
			<path class="st0" d="M82.3,37.2c0-0.1-0.2-0.2-0.3,0c-0.1,0.7-0.3,1.2-0.6,1.8c-0.3,0.5-0.6,1-0.6,1.5c0,0.4,0.4,0.6,0.8,0.4
				C82.7,40.3,82.5,38.3,82.3,37.2z"/>
			<path class="st0" d="M66.6,15c-0.3,0.2-0.3,0.7,0,0.9c0.5,0.3,1.1,0.2,1.6,0.2c0.7,0,1.2,0.1,1.9,0.3c0.2,0.1,0.2-0.2,0.1-0.3
				C69.3,15.5,67.7,14.3,66.6,15z"/>
			<path class="st0" d="M30.3,37.2c0-0.2-0.3-0.1-0.3,0c-0.1,1.1-0.4,3.1,0.8,3.7c0.3,0.2,0.7-0.1,0.8-0.4c0-0.6-0.3-1-0.6-1.5
				C30.6,38.4,30.4,37.9,30.3,37.2z"/>
			<path class="st0" d="M70.4,58.5c-0.5,0.3-0.7,0.8-1,1.3c-0.4,0.6-0.7,1-1.2,1.5c-0.1,0.1,0,0.3,0.2,0.2c1-0.4,2.8-1.2,2.8-2.5
				C71.2,58.5,70.7,58.3,70.4,58.5z"/>
			<path class="st0" d="M44.1,14.6c0.5-0.1,1-0.1,1.5-0.2c0.5,0,0.9,0,1.2-0.4c0.1-0.2,0.1-0.4-0.1-0.6c-0.4-0.4-0.9-0.2-1.4,0
				s-0.9,0.5-1.3,0.9C43.8,14.5,43.9,14.7,44.1,14.6z"/>
			<path class="st0" d="M40.8,59.4c-0.3-0.4-0.4-0.8-1-0.8c-0.2,0-0.4,0.2-0.4,0.3c-0.1,0.6,0.3,0.9,0.7,1.2
				c0.4,0.4,0.9,0.5,1.4,0.7c0.1,0.1,0.3-0.1,0.2-0.2C41.4,60.3,41.1,59.8,40.8,59.4z"/>
			<path class="st0" d="M82.1,41c-0.2,0.4-0.5,0.8-0.2,1.2c0.1,0.2,0.3,0.3,0.5,0.2c0.6-0.2,0.6-0.7,0.7-1.2c0.1-0.6,0-1-0.1-1.6
				c0-0.1-0.2-0.2-0.3,0C82.6,40.1,82.3,40.6,82.1,41z"/>
			<path class="st0" d="M66.8,14.5c0.5,0,1,0,1.5,0.2c0.2,0,0.2-0.2,0.1-0.2c-0.5-0.3-0.8-0.7-1.3-0.9s-1-0.4-1.4,0
				c-0.1,0.1-0.2,0.4-0.1,0.6C65.9,14.5,66.3,14.4,66.8,14.5z"/>
			<path class="st0" d="M29.6,39.6c0-0.2-0.3-0.1-0.3,0c-0.1,0.6-0.2,1-0.1,1.6c0.1,0.5,0.2,1,0.7,1.2c0.2,0.1,0.4,0,0.5-0.2
				c0.2-0.5,0-0.8-0.2-1.2C30,40.6,29.7,40.1,29.6,39.6z"/>
			<path class="st0" d="M71.5,59.4c-0.3,0.4-0.5,0.9-0.9,1.2c-0.1,0.1,0,0.3,0.2,0.2c0.5-0.2,1-0.4,1.4-0.7s0.8-0.7,0.7-1.2
				c0-0.2-0.3-0.4-0.4-0.3C71.9,58.6,71.8,59,71.5,59.4z"/>
			<path class="st0" d="M56.2,61c-12.6,0-22.8-10.2-22.8-22.8s10.2-22.8,22.8-22.8C68.8,15.4,79,25.6,79,38.2S68.8,61,56.2,61
				L56.2,61z M56.2,14.7c-13,0-23.5,10.6-23.5,23.5c0,13,10.6,23.5,23.5,23.5c13,0,23.5-10.6,23.5-23.5
				C79.7,25.2,69.2,14.7,56.2,14.7z"/>
			<path class="st0" d="M56.2,60.2c-12.1,0-22-9.9-22-22s9.9-22,22-22s22,9.9,22,22S68.3,60.2,56.2,60.2L56.2,60.2z M56.2,16
				C43.9,16,34,26,34,38.2c0,12.3,10,22.2,22.2,22.2c12.3,0,22.2-10,22.2-22.2C78.4,25.9,68.4,16,56.2,16z"/>
		</g>
		<path class="st0" d="M73.2,37.1L73.2,37.1L73.2,37.1L73.2,37.1L73.2,37.1L73.2,37.1L73.2,37.1L73.2,37.1L73.2,37.1L73.2,37.1
			L73.2,37.1L73.2,37.1L73.2,37.1L73.2,37.1L73.2,37.1L73.2,37.1L73.2,37.1L73.2,37.1L73.2,37.1L73.2,37.1L73.2,37.1L73.2,37.1
			L73.2,37.1L73.2,37.1L73.2,37.1L73.2,37.1L73.2,37.1L73.2,37.1L73.2,37.1L73.2,37.1L73.2,37.1L73.2,37.1L73.2,37.1L73.2,37.1
			L73.2,37.1L73.2,37.1L73.2,37.1L73.2,37.1L73.2,37.1L73.2,37.1L73.2,37.1L73.2,37.1L73.2,37.1L73.2,37.1L73.2,37.1L73.2,37.1
			L73.2,37.1L73.2,37.1L73.2,37.1L73.2,37.1L73.2,37.1L73.2,37.1L73.2,37.1L73.2,37.1L73.2,37.1L73.2,37.1L73.2,37.1L73.2,37.1
			L73.2,37.1L73.2,37.1L73.2,37.1L73.2,37.1L73.2,37.1L73.2,37.1L73.2,37.1c0-0.3-0.1-0.5-0.2-0.5l0,0l0,0l0,0l0,0l0,0l0,0l0,0l0,0
			l0,0l0,0l0,0l0,0l0,0l0,0l0,0l0,0l0,0l0,0l0,0l0,0l0,0l0,0l0,0l0,0l0,0l0,0l0,0l0,0l0,0l0,0l0,0l0,0l0,0l0,0l0,0l0,0l0,0l0,0l0,0
			l0,0l0,0l0,0l0,0l0,0l0,0l0,0l0,0l0,0l0,0l0,0l0,0l0,0l0,0l0,0l0,0l0,0l0,0l0,0l0,0l0,0l0,0l0,0l0,0l0,0l0,0l0,0l0,0l0,0l0,0l0,0
			l0,0l0,0l0,0l0,0l0,0l0,0l0,0l0,0l0,0l0,0l0,0l0,0l0,0l0,0l0,0l0,0l0,0l0,0l0,0l0,0l0,0l0,0l0,0l0,0l0,0l0,0l0,0l0,0l0,0l0,0l0,0
			l0,0l0,0l0,0l0,0l0,0l0,0l0,0l0,0l0,0l0,0l0,0l0,0l0,0l0,0l0,0l0,0l0,0l0,0l0,0l0,0l0,0l0,0l0,0l0,0l0,0l0,0l0,0l0,0l0,0l0,0l0,0
			l0,0l0,0l0,0l0,0l0,0l0,0l0,0l0,0l0,0l0,0l0,0l0,0l0,0l0,0l0,0l0,0l0,0l0,0l0,0l0,0l0,0l0,0l0,0l0,0l0,0l0,0l0,0l0,0l0,0l0,0l0,0
			l0,0l0,0l0,0l0,0l0,0l0,0l0,0l0,0l0,0l0,0l0,0l0,0l0,0l0,0l0,0l0,0l0,0l0,0l0,0l0,0l0,0l0,0l0,0l0,0l0,0l0,0l0,0l0,0l0,0l0,0l0,0
			l0,0l0,0l0,0l0,0l0,0l0,0l0,0l0,0l0,0l0,0l0,0l0,0l0,0l0,0l0,0l0,0l0,0l0,0l0,0l0,0l0,0l0,0l0,0l0,0l0,0l0,0l0,0l0,0l0,0l0,0l0,0
			l0,0l0,0l0,0l0,0l0,0l0,0l0,0l0,0l0,0l0,0l0,0l0,0l0,0l0,0l0,0l0,0l0,0l0,0l0,0l0,0l0,0l0,0l0,0l0,0l0,0l0,0l0,0l0,0l0,0l0,0l0,0
			l0,0l0,0l0,0l0,0l0,0l0,0l0,0l0,0l0,0l0,0l0,0l0,0l0,0l0,0l0,0l0,0l0,0l0,0l0,0l0,0c0,0.1,0,0.1,0,0.2c0,0.1,0,0.1,0,0.2
			c0.2,0.3,0.5,0.5,0.8,0.5l0,0l0,0l0,0l0,0l0,0l0,0l0,0l0,0l0,0l0,0l0,0l0,0l0,0l0,0l0,0l0,0l0,0l0,0l0,0l0,0l0,0l0,0l0,0l0,0l0,0
			l0,0l0,0l0,0l0,0l0,0l0,0l0,0l0,0l0,0l0,0l0,0l0,0l0,0l0,0l0,0l0,0l0,0l0,0l0,0l0,0l0,0l0,0l0,0l0,0l0,0l0,0l0,0l0,0l0,0l0,0l0,0
			l0,0l0,0l0,0l0,0l0,0l0,0l0,0l0,0l0,0l0,0l0,0l0,0l0,0l0,0l0,0l0,0l0,0l0,0l0,0l0,0l0,0l0,0l0,0l0,0l0,0l0,0l0,0l0,0l0,0l0,0l0,0
			l0,0l0,0l0,0l0,0l0,0l0,0l0,0l0,0l0,0l0,0l0,0l0,0l0,0l0,0l0,0l0,0l0,0l0,0l0,0l0,0l0,0l0,0l0,0l0,0l0,0l0,0l0,0l0,0l0,0l0,0l0,0
			l0,0l0,0l0,0l0,0l0,0l0,0l0,0l0,0l0,0l0,0l0,0l0,0l0,0l0,0l0,0l0,0l0,0l0,0l0,0l0,0l0,0l0,0l0,0l0,0l0,0l0,0l0,0l0,0l0,0l0,0l0,0
			l0,0l0,0l0,0l0,0l0,0l0,0l0,0l0,0l0,0l0,0l0,0l0,0l0,0l0,0l0,0l0,0l0,0l0,0l0,0l0,0l0,0l0,0l0,0l0,0l0,0l0,0l0,0l0,0l0,0l0,0l0,0
			l0,0l0,0l0,0l0,0l0,0l0,0l0,0l0,0l0,0l0,0l0,0l0,0l0,0l0,0l0,0l0,0l0,0l0,0l0,0l0,0l0,0l0,0l0,0l0,0l0,0l0,0l0,0l0,0l0,0l0,0l0,0
			l0,0l0,0l0,0l0,0l0,0l0,0l0,0l0,0l0,0l0,0l0,0l0,0l0,0l0,0l0,0l0,0l0,0l0,0l0,0l0,0l0,0l0,0l0,0l0,0l0,0l0,0l0,0l0,0l0,0l0,0l0,0
			l0,0l0,0l0,0l0,0l0,0l0,0l0,0l0,0l0,0l0,0l0,0l0,0l0,0l0,0l0,0l0,0l0,0l0,0l0,0l0,0l0,0l0,0l0,0l0,0l0,0l0,0l0,0l0,0l0,0l0,0l0,0
			l0,0l0,0l0,0l0,0l0,0l0,0l0,0l0,0l0,0l0,0l0,0l0,0l0,0l0,0l0,0l0,0l0,0l0,0l0,0l0,0l0,0l0,0l0,0l0,0l0,0l0,0l0,0l0,0l0,0l0,0l0,0
			l0,0l0,0l0,0l0,0l0,0l0,0l0,0l0,0l0,0l0,0l0,0l0,0l0,0l0,0c-0.1-0.4-0.2-0.8-0.5-1.1s-0.7-0.6-1.1-0.8s-0.9-0.2-1.2,0
			c-0.4,0.1-0.8,0.4-1.1,0.8c-0.7,0.9-0.1,2.1,0.3,3l0.1,0.1c0.2,0.5,0.4,1.1,0.4,1.7c0,0.5-0.1,0.9-0.5,1.3
			c-0.2,0.2-0.4,0.3-0.7,0.4C69.2,43,69,43,68.7,43c-3.1,0.2-6.2,0.2-9.4,0.2c-0.9,0-1.9,0-2.8,0c-0.2,0-0.7,0-1.2,0
			c-0.4,0-0.8,0-1,0c-0.9,0-1.9,0-2.8,0c-3.1,0-6.3,0-9.4-0.2c-0.3,0-0.5,0-0.8-0.1s-0.5-0.2-0.7-0.4c-0.3-0.4-0.5-0.8-0.5-1.3
			c0-0.6,0.2-1.2,0.4-1.7l0.1-0.1c0.4-0.9,0.9-2.1,0.3-3c-0.3-0.4-0.7-0.7-1.1-0.8s-0.8-0.1-1.2,0c-0.4,0.2-0.8,0.4-1.1,0.8
			c-0.3,0.3-0.4,0.7-0.5,1.1c-0.1,0.4,0.1,0.9,0.4,1.2l0,0l0,0l0,0l0,0l0,0l0,0l0,0l0,0l0,0l0,0l0,0l0,0l0,0l0,0l0,0l0,0l0,0l0,0
			l0,0l0,0l0,0l0,0l0,0l0,0l0,0l0,0l0,0l0,0l0,0l0,0l0,0l0,0l0,0l0,0l0,0l0,0l0,0l0,0l0,0l0,0l0,0l0,0l0,0l0,0l0,0l0,0l0,0l0,0l0,0
			l0,0l0,0l0,0l0,0l0,0l0,0l0,0l0,0l0,0l0,0l0,0l0,0l0,0l0,0l0,0l0,0l0,0l0,0l0,0l0,0l0,0l0,0l0,0l0,0l0,0l0,0l0,0l0,0l0,0l0,0l0,0
			l0,0l0,0l0,0l0,0l0,0l0,0l0,0l0,0l0,0l0,0l0,0l0,0l0,0l0,0l0,0l0,0l0,0l0,0l0,0l0,0l0,0l0,0l0,0l0,0l0,0l0,0l0,0l0,0l0,0l0,0l0,0
			l0,0l0,0l0,0l0,0l0,0l0,0l0,0l0,0l0,0l0,0l0,0l0,0l0,0l0,0l0,0l0,0l0,0l0,0l0,0l0,0l0,0l0,0l0,0l0,0l0,0l0,0l0,0l0,0l0,0l0,0l0,0
			l0,0l0,0l0,0l0,0l0,0l0,0l0,0l0,0l0,0l0,0l0,0l0,0l0,0l0,0l0,0l0,0l0,0l0,0l0,0l0,0l0,0l0,0l0,0l0,0l0,0l0,0l0,0l0,0l0,0l0,0l0,0
			l0,0l0,0l0,0l0,0l0,0c0.3,0,0.5-0.2,0.8-0.5c0-0.1,0-0.1,0-0.2c0-0.1,0-0.1,0-0.2l0,0l0,0l0,0l0,0l0,0l0,0l0,0l0,0l0,0l0,0l0,0
			l0,0l0,0l0,0l0,0l0,0l0,0l0,0l0,0l0,0l0,0l0,0l0,0l0,0l0,0l0,0l0,0l0,0l0,0l0,0l0,0l0,0l0,0l0,0l0,0l0,0l0,0l0,0l0,0l0,0l0,0l0,0
			l0,0l0,0l0,0l0,0l0,0l0,0l0,0l0,0l0,0l0,0l0,0l0,0l0,0l0,0l0,0l0,0l0,0l0,0l0,0l0,0l0,0l0,0l0,0l0,0l0,0l0,0l0,0l0,0l0,0l0,0l0,0
			l0,0l0,0l0,0l0,0l0,0l0,0l0,0l0,0l0,0l0,0l0,0l0,0l0,0l0,0l0,0l0,0l0,0l0,0l0,0l0,0l0,0l0,0l0,0l0,0l0,0l0,0l0,0l0,0l0,0l0,0l0,0
			l0,0l0,0l0,0l0,0l0,0l0,0l0,0l0,0l0,0l0,0l0,0l0,0l0,0l0,0l0,0l0,0l0,0l0,0l0,0l0,0l0,0l0,0l0,0l0,0l0,0l0,0l0,0l0,0l0,0l0,0l0,0
			l0,0l0,0l0,0l0,0l0,0l0,0l0,0l0,0l0,0l0,0l0,0l0,0l0,0l0,0l0,0l0,0l0,0l0,0l0,0l0,0l0,0l0,0l0,0l0,0l0,0l0,0l0,0l0,0l0,0l0,0l0,0
			l0,0l0,0l0,0l0,0l0,0l0,0l0,0l0,0l0,0l0,0l0,0l0,0l0,0l0,0l0,0l0,0l0,0l0,0l0,0l0,0l0,0l0,0l0,0l0,0l0,0l0,0l0,0l0,0l0,0l0,0l0,0
			l0,0l0,0l0,0l0,0l0,0l0,0l0,0l0,0l0,0l0,0l0,0l0,0l0,0l0,0l0,0l0,0l0,0l0,0l0,0l0,0l0,0l0,0l0,0l0,0l0,0l0,0l0,0l0,0l0,0l0,0l0,0
			l0,0l0,0l0,0l0,0l0,0l0,0l0,0l0,0l0,0l0,0l0,0l0,0l0,0l0,0l0,0l0,0l0,0l0,0l0,0l0,0l0,0l0,0l0,0l0,0l0,0l0,0l0,0l0,0l0,0l0,0l0,0
			l0,0l0,0l0,0l0,0l0,0l0,0l0,0l0,0l0,0l0,0l0,0l0,0l0,0l0,0l0,0l0,0l0,0l0,0l0,0l0,0l0,0l0,0l0,0l0,0l0,0l0,0l0,0l0,0l0,0l0,0l0,0
			l0,0l0,0l0,0l0,0l0,0l0,0l0,0l0,0l0,0l0,0l0,0l0,0l0,0l0,0l0,0l0,0l0,0l0,0l0,0l0,0l0,0l0,0l0,0l0,0l0,0l0,0l0,0l0,0l0,0l0,0l0,0
			l0,0l0,0l0,0l0,0l0,0l0,0l0,0l0,0l0,0l0,0l0,0l0,0l0,0l0,0l0,0l0,0l0,0l0,0l0,0l0,0l0,0l0,0l0,0l0,0l0,0l0,0l0,0l0,0l0,0l0,0l0,0
			l0,0l0,0l0,0l0,0l0,0l0,0l0,0l0,0l0,0l0,0l0,0l0,0l0,0l0,0l0,0l0,0l0,0l0,0l0,0l0,0l0,0l0,0l0,0l0,0l0,0l0,0l0,0l0,0l0,0l0,0l0,0
			l0,0l0,0l0,0l0,0l0,0l0,0l0,0l0,0l0,0l0,0l0,0l0,0l0,0l0,0l0,0l0,0l0,0l0,0l0,0l0,0l0,0l0,0l0,0l0,0l0,0l0,0l0,0l0,0l0,0l0,0l0,0
			l0,0l0,0l0,0l0,0l0,0l0,0l0,0l0,0l0,0l0,0l0,0l0,0l0,0l0,0l0,0l0,0l0,0l0,0l0,0l0,0l0,0l0,0l0,0l0,0l0,0l0,0l0,0l0,0l0,0l0,0l0,0
			l0,0l0,0l0,0l0,0l0,0l0,0l0,0l0,0l0,0l0,0l0,0l0,0l0,0l0,0l0,0l0,0l0,0l0,0c0,0,0,0.1-0.1,0.1l0,0l0,0l0,0l0,0l0,0l0,0l0,0l0,0
			l0,0l0,0l0,0l0,0l0,0l0,0l0,0l0,0l0,0l0,0l0,0l0,0l0,0l0,0l0,0l0,0l0,0l0,0l0,0l0,0l0,0l0,0l0,0l0,0l0,0l0,0l0,0l0,0l0,0l0,0l0,0
			l0,0l0,0l0,0l0,0l0,0l0,0l0,0l0,0l0,0l0,0l0,0l0,0l0,0l0,0l0,0l0,0l0,0l0,0l0,0l0,0l0,0l0,0l0,0l0,0l0,0l0,0l0,0l0,0l0,0l0,0l0,0
			l0,0l0,0l0,0l0,0l0,0l0,0l0,0l0,0l0,0l0,0l0,0l0,0l0,0l0,0l0,0l0,0l0,0l0,0l0,0l0,0l0,0l0,0l0,0l0,0l0,0l0,0l0,0l0,0l0,0l0,0l0,0
			l0,0l0,0l0,0l0,0l0,0l0,0l0,0l0,0l0,0l0,0l0,0l0,0l0,0l0,0l0,0l0,0l0,0l0,0l0,0l0,0l0,0l0,0l0,0l0,0l0,0l0,0l0,0l0,0l0,0l0,0l0,0
			l0,0l0,0l0,0l0,0l0,0l0,0l0,0l0,0l0,0l0,0l0,0l0,0l0,0l0,0l0,0l0,0l0,0l0,0l0,0l0,0l0,0l0,0l0,0l0,0l0,0l0,0l0,0l0,0l0,0l0,0l0,0
			l0,0l0,0l0,0l0,0l0,0l0,0l0,0l0,0l0,0l0,0l0,0l0,0l0,0l0,0l0,0l0,0l0,0l0,0l0,0l0,0l0,0l0,0l0,0l0,0l0,0l0,0l0,0l0,0l0,0l0,0l0,0
			l0,0l0,0l0,0l0,0l0,0l0,0l0,0l0,0l0,0l0,0l0,0l0,0l0,0l0,0l0,0l0,0l0,0l0,0l0,0l0,0l0,0l0,0l0,0l0,0l0,0l0,0l0,0l0,0l0,0l0,0l0,0
			l0,0l0,0l0,0l0,0l0,0l0,0l0,0l0,0l0,0l0,0l0,0l0,0l0,0l0,0l0,0l0,0l0,0l0,0l0,0l0,0l0,0l0,0l0,0l0,0l0,0l0,0l0,0l0,0l0,0l0,0l0,0
			l0,0l0,0l0,0l0,0l0,0l0,0l0,0l0,0c-0.2-0.3-0.2-0.7-0.2-1s0.2-0.6,0.5-0.8s0.6-0.3,0.9-0.3s0.6,0.1,0.8,0.3c1,0.9,0.5,2,0,3.1
			c-0.3,0.7-0.6,1.4-0.6,2.1c0.1,0.6,0.3,1,0.7,1.4c0.3,0.3,0.8,0.5,1.3,0.5c0.3,0,0.6,0,0.9,0s0.6,0,0.9,0c1,0,2.1,0,3.1,0
			s2.1,0,3.1,0c0.9,0,3.3,0,5.7,0c2.5,0,4.9,0,5.8,0c1,0,2.1,0,3.1,0c1,0,2.1,0,3.1,0c0.3,0,0.6,0,0.9,0s0.6,0,0.9,0
			c0.5,0,1-0.2,1.3-0.5c0.4-0.3,0.6-0.8,0.7-1.4c0.1-0.7-0.2-1.4-0.6-2.1c-0.5-1.1-1-2.2,0-3.1c0.2-0.2,0.5-0.3,0.8-0.3
			s0.6,0.1,0.9,0.3s0.4,0.5,0.5,0.8c0.1,0.4,0,0.7-0.2,1l0,0l0,0l0,0l0,0l0,0l0,0l0,0l0,0l0,0l0,0l0,0l0,0l0,0l0,0l0,0l0,0l0,0l0,0
			l0,0l0,0l0,0l0,0l0,0l0,0l0,0l0,0l0,0l0,0l0,0l0,0l0,0l0,0l0,0l0,0l0,0l0,0l0,0l0,0l0,0l0,0l0,0l0,0l0,0l0,0l0,0l0,0l0,0l0,0l0,0
			l0,0l0,0l0,0l0,0l0,0l0,0l0,0l0,0l0,0l0,0l0,0l0,0l0,0l0,0l0,0l0,0l0,0l0,0l0,0l0,0l0,0l0,0l0,0l0,0l0,0l0,0l0,0l0,0l0,0l0,0l0,0
			l0,0l0,0l0,0l0,0l0,0l0,0l0,0l0,0l0,0l0,0l0,0l0,0l0,0l0,0l0,0l0,0l0,0l0,0l0,0l0,0l0,0l0,0l0,0l0,0l0,0l0,0l0,0l0,0l0,0l0,0l0,0
			l0,0l0,0l0,0l0,0l0,0l0,0l0,0l0,0l0,0l0,0l0,0l0,0l0,0l0,0l0,0l0,0l0,0l0,0l0,0l0,0l0,0l0,0l0,0l0,0l0,0l0,0l0,0l0,0l0,0l0,0l0,0
			l0,0l0,0l0,0l0,0l0,0l0,0l0,0l0,0l0,0l0,0l0,0l0,0l0,0l0,0l0,0l0,0l0,0l0,0l0,0l0,0l0,0l0,0l0,0l0,0l0,0l0,0l0,0l0,0l0,0l0,0l0,0
			l0,0l0,0l0,0l0,0l0,0l0,0l0,0l0,0l0,0l0,0l0,0l0,0l0,0l0,0l0,0l0,0l0,0l0,0l0,0L73.2,37.1L73.2,37.1L73.2,37.1L73.2,37.1
			L73.2,37.1L73.2,37.1L73.2,37.1L73.2,37.1L73.2,37.1L73.2,37.1L73.2,37.1L73.2,37.1L73.2,37.1L73.2,37.1L73.2,37.1L73.2,37.1
			L73.2,37.1L73.2,37.1L73.2,37.1L73.2,37.1L73.2,37.1L73.2,37.1L73.2,37.1L73.2,37.1L73.2,37.1L73.2,37.1L73.2,37.1L73.2,37.1
			L73.2,37.1L73.2,37.1L73.2,37.1L73.2,37.1L73.2,37.1L73.2,37.1L73.2,37.1L73.2,37.1L73.2,37.1L73.2,37.1L73.2,37.1L73.2,37.1
			L73.2,37.1L73.2,37.1L73.2,37.1L73.2,37.1L73.2,37.1L73.2,37.1L73.2,37.1L73.2,37.1L73.2,37.1L73.2,37.1L73.2,37.1L73.2,37.1
			L73.2,37.1L73.2,37.1L73.2,37.1L73.2,37.1L73.2,37.1L73.2,37.1L73.2,37.1L73.2,37.1L73.2,37.1L73.2,37.1L73.2,37.1L73.2,37.1
			L73.2,37.1L73.2,37.1L73.2,37.1L73.2,37.1L73.2,37.1L73.2,37.1L73.2,37.1L73.2,37.1L73.2,37.1L73.2,37.1L73.2,37.1L73.2,37.1
			L73.2,37.1L73.2,37.1L73.2,37.1L73.2,37.1L73.2,37.1L73.2,37.1L73.2,37.1L73.2,37.1L73.2,37.1L73.2,37.1L73.2,37.1L73.2,37.1
			L73.2,37.1L73.2,37.1L73.2,37.1L73.2,37.1L73.2,37.1L73.2,37.1L73.2,37.1L73.2,37.1L73.2,37.1L73.2,37.1L73.2,37.1L73.2,37.1
			L73.2,37.1L73.2,37.1L73.2,37.1L73.2,37.1L73.2,37.1L73.2,37.1L73.2,37.1L73.2,37.1L73.2,37.1L73.2,37.1L73.2,37.1L73.2,37.1
			L73.2,37.1L73.2,37.1L73.2,37.1L73.2,37.1L73.2,37.1L73.2,37.1L73.2,37.1L73.2,37.1L73.2,37.1L73.2,37.1L73.2,37.1z M64.4,44.5
			c-0.5,0.3-1-0.2-0.5-0.9l0.4-0.3C64.8,43.3,64.9,44.2,64.4,44.5L64.4,44.5z M66.5,44c-0.1-0.2-0.2-0.3-0.3-0.4l-0.1-0.1
			c-0.1,0-0.2-0.1-0.3-0.1c-0.1,0-0.2,0-0.2,0.1c0,0,0,0,0,0.1l0,0l0,0l0,0l0,0c-0.1,0.2-0.1,0.4,0,0.6c0.1,0.2,0.2,0.3,0.3,0.4l0,0
			c0.1,0.1,0.2,0.1,0.3,0.1c0.1,0,0.2-0.1,0.3-0.2l0,0C66.6,44.3,66.6,44.1,66.5,44L66.5,44z M48.2,43.4c-0.1,0-0.3,0-0.3,0.2l0,0
			l0,0l0,0l0,0c-0.1,0.2-0.1,0.4,0,0.5c0,0.2,0.1,0.3,0.3,0.4l0,0c0.1,0.1,0.2,0.1,0.4,0.1c0.1,0,0.2-0.1,0.3-0.2l0,0
			c0.1-0.2,0-0.5-0.2-0.8c-0.1-0.1-0.1-0.2-0.2-0.2C48.3,43.4,48.3,43.4,48.2,43.4L48.2,43.4z M46.9,44.1c0.1-0.2,0-0.4,0-0.6l0,0
			l0,0l0,0c0,0,0,0,0-0.1c-0.1-0.1-0.1-0.1-0.2-0.1s-0.2,0-0.3,0.1c-0.1,0-0.1,0.1-0.1,0.1c-0.1,0.1-0.2,0.3-0.3,0.4
			c0,0.1,0,0.3,0,0.4l0,0c0.1,0.1,0.2,0.2,0.3,0.2c0.1,0,0.2,0,0.3-0.1l0,0C46.7,44.5,46.8,44.3,46.9,44.1L46.9,44.1z M67.9,43.9
			c0.1,0,0.2-0.1,0.3-0.2c0,0,0,0,0-0.1s0-0.1-0.1-0.2c-0.1-0.1-0.1-0.1-0.2-0.1s-0.1,0-0.2-0.1c-0.2,0-0.3,0-0.5,0
			s-0.4,0.1-0.5,0.1l0,0l0,0l0,0l0,0l0,0c0.1,0.1,0.2,0.2,0.3,0.3c0.2,0.1,0.4,0.1,0.5,0.1C67.6,43.9,67.8,43.9,67.9,43.9L67.9,43.9
			z M63.1,43.8c0.1-0.1,0.2-0.2,0.3-0.3l0,0l0,0l0,0l0,0l0,0c-0.1-0.1-0.3-0.1-0.5-0.1s-0.4,0-0.6,0c0,0-0.1,0-0.2,0
			s-0.2,0.1-0.2,0.1c-0.1,0.1-0.1,0.1-0.1,0.2l0,0c0,0.1,0.2,0.2,0.3,0.2c0.1,0,0.3,0,0.4,0C62.8,43.9,62.9,43.8,63.1,43.8
			L63.1,43.8z M58.5,43.1c-0.1,0-0.1,0-0.2,0c-0.2,0-0.4-0.1-0.6,0c-0.2,0-0.3,0.1-0.5,0.1l0,0l0,0l0,0l0,0l0,0
			c0.1,0.1,0.2,0.2,0.3,0.3c0.2,0.1,0.3,0.1,0.5,0.1c0.1,0,0.3,0,0.4,0s0.3-0.1,0.3-0.2l0,0C58.7,43.3,58.7,43.3,58.5,43.1
			C58.7,43.2,58.6,43.1,58.5,43.1L58.5,43.1z M56.6,43.2c-0.1-0.1-0.2-0.1-0.3-0.1c-0.1,0-0.2,0-0.3,0.1c-0.1,0.1-0.1,0.2-0.1,0.3
			s0,0.2,0.1,0.3s0.2,0.1,0.3,0.1c0.1,0,0.2,0,0.3-0.1c0.1-0.1,0.1-0.2,0.1-0.3S56.6,43.3,56.6,43.2L56.6,43.2z M55,43.6
			c0.1-0.1,0.2-0.2,0.3-0.3l0,0l0,0l0,0l0,0l0,0c-0.1-0.1-0.3-0.1-0.5-0.1s-0.4,0-0.6,0c0,0-0.1,0-0.2,0s-0.2,0.1-0.2,0.1
			c-0.1,0.1-0.1,0.1-0.1,0.2l0,0c0,0.1,0.2,0.2,0.3,0.2c0.1,0,0.3,0,0.4,0C54.7,43.7,54.8,43.6,55,43.6L55,43.6z M50.2,43.3
			c-0.1,0-0.1,0-0.2,0c-0.2,0-0.4-0.1-0.6,0c-0.2,0-0.3,0.1-0.5,0.1l0,0l0,0l0,0l0,0l0,0c0.1,0.1,0.2,0.2,0.3,0.3
			c0.2,0.1,0.3,0.1,0.5,0.1c0.1,0,0.3,0,0.4,0s0.3-0.1,0.3-0.2l0,0C50.4,43.5,50.4,43.5,50.2,43.3C50.4,43.4,50.3,43.3,50.2,43.3
			L50.2,43.3z M45.4,43.8c0.1-0.1,0.2-0.2,0.3-0.3l0,0l0,0l0,0l0,0l0,0c-0.1-0.1-0.3-0.1-0.5-0.1s-0.4,0-0.5,0s-0.1,0-0.2,0.1
			c-0.1,0-0.2,0.1-0.2,0.1c0,0.1-0.1,0.1-0.1,0.2c0,0,0,0,0,0.1s0.2,0.2,0.3,0.2c0.1,0,0.3,0,0.4,0C45,43.9,45.2,43.9,45.4,43.8
			L45.4,43.8z M70.6,31.6c-0.1,0.8-0.6,1.4-1.1,2c0.2-0.1,0.4-0.2,0.6-0.2c0.3-0.1,0.6-0.1,0.9-0.1c0.1-0.1,0.2-0.1,0.2-0.2
			c0.5-0.5,1-0.9,1.3-1.6c0.1-0.4,0.3-0.8,0.3-1.3c0-0.3-0.1-0.6-0.3-0.9c-0.2-0.2-0.6-0.4-1-0.4c-0.5,0-0.9,0.1-1.3,0.3
			c0.2,0.4,0.3,0.8,0.3,1.2C70.7,30.8,70.7,31.2,70.6,31.6L70.6,31.6z M43.9,34.5L43.9,34.5c-0.2-0.5-0.5-0.8-0.8-1.2
			s-0.6-0.8-0.8-1.2c-0.2-0.3-0.2-0.8-0.2-1.2c0-0.5,0.2-1.1,0.4-1.5l0,0c1.1-1.2,2.8-1.9,4.6-2.1c1.8-0.2,3.6,0.1,4.9,1h0.1
			c0,0,0.1,0,0.1-0.1c0.5-0.5,0.9-1,1.4-1.3c1.1-0.8,2.3-0.9,3.3-0.7s1.8,0.7,2.4,1.2c0.3,0.3,0.6,0.6,0.7,0.8l0.1,0.1h0.1
			c1.4-0.9,3.2-1.2,4.9-1c1.8,0.2,3.5,0.9,4.6,2.1l0,0c0.2,0.4,0.3,1,0.4,1.5c0,0.5,0,0.9-0.2,1.2c-0.2,0.4-0.5,0.8-0.8,1.2
			s-0.6,0.8-0.8,1.2l0,0c-0.2,0.4-0.3,0.9-0.3,1.3c0,0.5,0.2,0.9,0.5,1.3c-1-0.1-2-0.1-3-0.2H65c-0.9,0-1.8,0-2.7,0
			c-0.9,0-1.8,0-2.7,0h-3.7c-1.6,0-3.1,0-3.6,0c-0.9,0-1.8,0-2.7,0c-0.9,0-1.8,0-2.7,0h-0.5c-1,0-2,0-3,0.2c0.3-0.4,0.4-0.8,0.5-1.3
			C44.3,35.3,44.2,34.9,43.9,34.5L43.9,34.5L43.9,34.5z M41.1,33c0.1,0.1,0.2,0.1,0.2,0.2c0.3,0,0.6,0,0.9,0.1
			c0.2,0.1,0.4,0.1,0.6,0.2c-0.5-0.6-0.9-1.2-1.1-2c-0.1-0.4-0.1-0.8,0-1.2s0.2-0.9,0.3-1.2l0,0c-0.3-0.2-0.8-0.3-1.3-0.3
			c-0.4,0-0.8,0.1-1,0.4c-0.2,0.2-0.3,0.5-0.3,0.9s0.1,0.9,0.3,1.3C40.1,32.1,40.6,32.5,41.1,33L41.1,33z M41.8,38.7
			c0.4-0.4,1.2-0.9,1.7-1c1-0.1,2-0.2,3-0.2c0.2,0,0.4,0,0.6,0c0.9,0,1.8,0,2.7,0c0.9,0,1.8,0,2.7,0H56h3.7c0.9,0,1.8,0,2.7,0
			c0.9,0,1.8,0,2.7,0c0.2,0,0.4,0,0.6,0c1,0,2,0,3,0.2c0.7,0.1,1.4,0.4,1.9,1c0.8,0.8,0.9,2.1-0.5,2.4c-0.3,0.1-0.7,0.1-1,0.1
			c-0.1,0-0.2,0-0.3,0c-1.9,0.1-3.9,0.1-5.8,0.1h-0.2c-1.1,0-3.8,0-6.6,0c-2.7,0-5.4,0-6.5,0h-0.2c-1.9,0-3.9,0-5.8-0.1
			c-0.1,0-0.2,0-0.3,0c-0.4,0-0.7,0-1-0.1C40.9,40.9,41.1,39.6,41.8,38.7L41.8,38.7z M73.9,34.4C73.9,34.4,73.9,34.5,73.9,34.4
			c0.5,0.4,0.9,0.9,1,1.5c0.1,0.5,0.1,1.1-0.2,1.6c0,0,0,0.1-0.1,0.1c-0.2,0.4-0.6,0.6-1,0.7c-0.4,0.1-0.8,0-1.2-0.2l0,0
			c0.1,0.2,0.2,0.4,0.3,0.6c0.2,0.4,0.4,0.8,0.4,1.3c0,0.3,0,0.6,0,0.9c0,0.3-0.1,0.6-0.2,0.9c-0.1,0.2-0.2,0.4-0.3,0.5
			c-0.1,0.1-0.2,0.3-0.2,0.4c0.5,0.4,0.8,0.8,0.8,1.3c0.1,0.5,0,1.1-0.3,1.7c-0.1,0.1-0.2,0.3-0.2,0.4c-0.1,0.1-0.2,0.3-0.3,0.4
			c-0.2,0.3,0,0.6,0.1,0.8l0.1,0.1c0,0,0,0.1,0.1,0.1c0.2,0.3,0.4,0.7,0.3,1c-0.1,0.2-0.2,0.3-0.4,0.4c-0.2,0.1-0.4,0.1-0.6,0
			s-0.4-0.2-0.6-0.4c-0.1-0.2-0.2-0.4-0.3-0.6c-0.3-0.6-0.1-1.3,0-2c0.1-0.8,0.3-1.5-0.2-2.2c-0.1,0.1-0.2,0.2-0.3,0.3
			c-0.1,0.1-0.3,0.2-0.4,0.2c-0.1,0.3-0.1,0.6,0,0.9c0,0.3,0,0.6,0,0.8s-0.1,0.3-0.2,0.4c-0.1,0.1-0.2,0.2-0.4,0.2
			c-0.1,0-0.3,0-0.4-0.1c-0.2-0.1-0.4-0.3-0.5-0.4c-0.1-0.2-0.2-0.4-0.3-0.6c-0.1-0.2-0.1-0.4-0.1-0.6c-0.1,0-0.1,0-0.2,0
			s-0.1,0-0.2,0s-0.1,0-0.2-0.1c-0.1,0-0.2-0.1-0.3,0l-0.1,0.1c-0.3,0.3-0.7,0.4-1.1,0.4s-0.7-0.2-1-0.4l0,0c-0.3,0.3-0.6,0.4-1,0.5
			c-0.3,0-0.7-0.1-1-0.3c-0.2-0.2-0.3-0.2-0.4-0.1h-0.1c-0.1,0-0.2,0-0.3,0c-0.1,0-0.2,0-0.3,0c-0.2,0-0.3-0.1-0.5-0.2
			c-0.1-0.1-0.2-0.2-0.3-0.4c-0.3,0.1-0.6,0.2-0.9,0.1c-0.3-0.1-0.6-0.2-0.8-0.5c-0.2,0.3-0.6,0.5-0.9,0.5c-0.4,0.1-0.8,0.1-1.1-0.1
			c-0.2,0.1-0.4,0.2-0.7,0.3c-0.3,0-0.5,0.1-0.8,0c-0.1,0-0.3,0-0.4-0.1c-0.1,0-0.3-0.1-0.4-0.2c-0.3,0.2-0.8,0.2-1.1,0.1
			c-0.4-0.1-0.7-0.3-0.9-0.6c-0.2,0.3-0.5,0.4-0.8,0.5s-0.6,0.1-0.9-0.1c-0.1,0.1-0.2,0.3-0.3,0.4c-0.1,0.1-0.3,0.2-0.5,0.2
			c-0.1,0-0.2,0-0.3,0c-0.1,0-0.2,0-0.3,0c-0.1,0-0.1,0-0.1,0c-0.2-0.1-0.2-0.1-0.4,0.1c-0.3,0.3-0.7,0.4-1,0.3
			c-0.4,0-0.7-0.2-1-0.5l0,0c-0.3,0.3-0.7,0.4-1,0.4c-0.4,0-0.7-0.1-1.1-0.4c0,0-0.1,0-0.1-0.1c-0.1-0.1-0.2,0-0.3,0
			c-0.1,0-0.1,0.1-0.2,0.1s-0.1,0-0.2,0h-0.1c0,0.2-0.1,0.4-0.1,0.6c-0.1,0.2-0.2,0.4-0.3,0.6c-0.1,0.2-0.3,0.3-0.5,0.4
			c-0.1,0.1-0.3,0.1-0.4,0.1s-0.3-0.1-0.4-0.2c-0.1-0.1-0.1-0.2-0.2-0.4c-0.1-0.3,0-0.6,0-0.8c0-0.3,0.1-0.6,0-0.9
			c-0.2,0-0.3-0.1-0.5-0.2c-0.1-0.1-0.2-0.2-0.3-0.3c-0.5,0.6-0.4,1.4-0.2,2.2c0.1,0.7,0.2,1.3,0,2c-0.1,0.2-0.2,0.4-0.3,0.6
			c-0.1,0.2-0.3,0.4-0.6,0.4c-0.2,0.1-0.4,0.1-0.6,0s-0.3-0.2-0.4-0.4c-0.1-0.3,0.1-0.7,0.3-1c0,0,0-0.1,0.1-0.1l0.1-0.1
			c0.2-0.3,0.3-0.5,0.1-0.8c-0.1-0.1-0.2-0.3-0.3-0.4c-0.1-0.1-0.2-0.3-0.2-0.4c-0.3-0.6-0.4-1.2-0.3-1.7s0.4-0.9,0.8-1.3
			c-0.1-0.1-0.1-0.3-0.2-0.4c-0.1-0.2-0.2-0.3-0.3-0.5c-0.1-0.3-0.2-0.6-0.2-0.9c0-0.3-0.1-0.6,0-0.9c0.1-0.5,0.2-0.9,0.4-1.3
			c0.1-0.2,0.2-0.4,0.3-0.6l0,0c-0.4,0.2-0.8,0.3-1.2,0.2c-0.4-0.1-0.8-0.3-1-0.7c0,0,0-0.1-0.1-0.1c-0.3-0.5-0.3-1-0.2-1.6
			c0.1-0.5,0.4-1.1,0.9-1.4c0,0,0,0,0.1-0.1l0,0l0,0c0.1-0.1,0.4-0.3,0.7-0.5c0.3-0.2,0.7-0.3,1-0.5c-0.6-0.5-1.2-1.2-1.5-2
			c-0.3-0.7-0.4-1.4-0.1-2.1c0-0.1,0.1-0.3,0.2-0.4c0.3-0.5,0.8-0.8,1.3-1s1.1-0.2,1.7,0c0.2,0,0.3,0.1,0.4,0.2
			c0.8-0.7,1.7-1.3,2.7-1.6c1.1-0.4,2.3-0.5,3.4-0.5c0.5,0,1,0.1,1.5,0.2c0.5,0.1,1,0.3,1.5,0.5c0.1,0.1,0.2,0.1,0.3,0.2
			c0.1,0.1,0.2,0.1,0.3,0.2c0,0,0.2-0.2,0.3-0.3c0-0.1,0.1-0.1,0.1-0.1c0.2-0.1,0.3-0.3,0.5-0.4c0.2-0.1,0.3-0.2,0.5-0.4
			c0.9-0.6,1.8-0.8,2.7-0.8c1.4,0,2.5,0.6,2.9,0.8c0.2,0.1,0.4,0.2,0.5,0.4c0.2,0.1,0.3,0.3,0.5,0.4l0.1,0.1
			c0.1,0.1,0.3,0.4,0.3,0.3c0.1-0.1,0.2-0.1,0.3-0.2c0.1-0.1,0.2-0.1,0.3-0.2c0.5-0.2,1-0.4,1.5-0.5s1-0.2,1.5-0.2
			c1.1,0,2.3,0.1,3.4,0.5c1,0.3,1.9,0.9,2.7,1.6c0.1-0.1,0.3-0.1,0.4-0.2c0.5-0.2,1.1-0.2,1.7,0c0.5,0.2,1,0.5,1.3,1
			c0.1,0.1,0.1,0.2,0.2,0.4c0.2,0.7,0.2,1.5-0.1,2.1c-0.3,0.8-0.9,1.5-1.5,2c0.3,0.1,0.7,0.3,1,0.5C73.5,34.1,73.7,34.3,73.9,34.4
			L73.9,34.4z"/>
		<path class="st1" d="M64.4,44.5c-0.5,0.3-1-0.2-0.5-0.9l0.4-0.3C64.8,43.3,64.9,44.2,64.4,44.5z"/>
		<path class="st0" d="M20,86.6c0-0.8,0-1.5-0.1-2.1s-0.2-1.1-0.5-1.4c-0.2-0.4-0.6-0.7-1.1-0.8c-0.5-0.2-1.1-0.3-1.9-0.3h-3.2v8.3
			h3.2c0.7,0,1.2-0.1,1.7-0.2c0.4-0.1,0.8-0.3,1.1-0.6c0.3-0.3,0.5-0.7,0.6-1.2C19.9,87.9,20,87.3,20,86.6L20,86.6z M17,81
			c1.4,0,2.6,0.1,3.5,0.4c0.9,0.2,1.7,0.6,2.2,1c0.6,0.4,0.9,0.9,1.2,1.6c0.2,0.6,0.4,1.3,0.4,2.1s-0.1,1.5-0.3,2.1
			c-0.2,0.7-0.6,1.3-1.2,1.8s-1.4,0.9-2.4,1.2s-2.3,0.4-3.8,0.4h-3.4v6.6l2.2,1v0.5H6.9v-0.5l2.1-1V82.4l-2.1-1V81L17,81L17,81z
			 M31.9,98.4h5.8l2-2.7h2.1l-0.7,3.8h-7.4H26V99l1.8-1.1V82.3L26,81.2v-0.5h7.7v0.5l-1.8,1V98.4L31.9,98.4z M55.9,91.4l-3.2-7.7
			l-3.2,7.7H55.9L55.9,91.4z M52,82.2L51.5,81h4.3L63,98.4l1.3,0.8v0.4h-6.9v-0.4l1.3-0.8l-2.3-5.7h-7.3l-2.4,5.7l1.3,0.8v0.4h-4.1
			v-0.4l1.3-0.8L52,82.2L52,82.2z M79.7,98.3l2.1-3.2h1.9L83,99.6H66.5v-0.1c2.3-3.2,4.3-6.2,6.2-9.1c1.9-2.9,3.6-5.7,5.3-8.2h-6.8
			l-2.1,2.5h-1.8l0.5-3.7h15.1v0.1c-1.1,1.6-2.1,3.1-3.1,4.6s-1.9,3-2.8,4.4s-1.8,2.8-2.7,4.2c-0.9,1.4-1.7,2.7-2.6,4H79.7
			L79.7,98.3z M96.8,91.4l-3.2-7.7l-3.2,7.7H96.8L96.8,91.4z M92.9,82.2L92.4,81h4.3l7.2,17.4l1.3,0.8v0.4h-6.9v-0.4l1.3-0.8
			l-2.4-5.7h-7.3l-2.4,5.7l1.3,0.8v0.4h-4.1v-0.4l1.3-0.8L92.9,82.2z"/>
		<path class="st0" d="M26.7,110.4l0.3-3.6c0-0.1,0-0.2,0-0.3l0,0c0,0.1,0,0.2,0.1,0.3l1.1,3.2h0.6l1.1-3.2c0-0.1,0-0.2,0.1-0.3l0,0
			c0,0.1,0,0.2,0,0.3l0.3,3.6h0.6l-0.4-4.5h-0.7l-1.1,3.2c0,0.1-0.1,0.2-0.1,0.4l0,0c0-0.1-0.1-0.3-0.1-0.4l-1.1-3.2h-0.7l-0.4,4.5
			H26.7L26.7,110.4z M34.5,110.4V110h-2.2v-1.7h1.9v-0.4h-1.9v-1.6h2.2v-0.4h-2.7v4.5L34.5,110.4L34.5,110.4z M36,110v-1.7h0.8
			c0.7,0,1,0.3,1,0.9c0,0.6-0.3,0.9-1,0.9H36V110z M35.4,105.9v4.5h1.4c0.9,0,1.5-0.5,1.5-1.3s-0.6-1.3-1.5-1.3h-0.9v-1.5h2v-0.4
			H35.4L35.4,105.9z M42,110.4V110h-2.2v-1.7h1.9v-0.4h-1.9v-1.6H42v-0.4h-2.7v4.5L42,110.4L42,110.4z M43.5,105.9
			c0,3.8-0.2,4.1-0.7,4.1c-0.1,0-0.2-0.1-0.2-0.1l-0.1,0.5c0,0,0.2,0.1,0.4,0.1c1,0,1.1-0.8,1.1-4.2h1.6v4.1h0.6v-4.5L43.5,105.9
			L43.5,105.9z M47.3,105.9v4.5h1.4c0.9,0,1.5-0.5,1.5-1.3s-0.6-1.3-1.5-1.3h-0.8v-2L47.3,105.9L47.3,105.9z M47.9,110v-1.7h0.7
			c0.6,0,1,0.3,1,0.8c0,0.6-0.4,0.9-1,0.9H47.9L47.9,110z M51.7,110.4v-2.1h2.2v2.1h0.6v-4.5h-0.6v2h-2.2v-2h-0.6v4.5H51.7
			L51.7,110.4z M55.6,105.9v4.5H57c0.9,0,1.5-0.5,1.5-1.3s-0.6-1.3-1.5-1.3h-0.8v-2L55.6,105.9L55.6,105.9z M56.2,110v-1.7h0.7
			c0.6,0,1,0.3,1,0.8c0,0.6-0.4,0.9-1,0.9H56.2L56.2,110z M59.7,110.4v-4.5h-0.6v4.5H59.7L59.7,110.4z M63.6,110.4v-3.3
			c0-0.1,0-0.2,0-0.3l0,0c0,0.1-0.1,0.2-0.2,0.3l-2.1,3.3h-0.5v-4.5h0.6v3.3c0,0.1,0,0.2,0,0.3l0,0c0-0.1,0.1-0.2,0.2-0.3l2.1-3.3
			h0.5v4.5H63.6L63.6,110.4z M63.1,104.7c0,0-0.1,0.4-0.6,0.4s-0.6-0.4-0.6-0.4l-0.4,0.1c0,0,0.2,0.6,1,0.6s1-0.6,1-0.6L63.1,104.7
			L63.1,104.7z M70.1,110.4l0.1,1h0.4V110h-0.5v-4.1h-0.6v4.1h-2.1v-4.1h-0.6v4.5H70.1L70.1,110.4z M74.3,110.4V110h-2.2v-1.7H74
			v-0.4h-1.9v-1.6h2.2v-0.4h-2.7v4.5L74.3,110.4L74.3,110.4z M75.7,110.4v-2.1h2.2v2.1h0.6v-4.5h-0.6v2h-2.2v-2h-0.5v4.5H75.7
			L75.7,110.4z M81.2,110.4v-4.1h1.4v-0.4h-3.4v0.4h1.4v4.1H81.2L81.2,110.4z M83.9,110.4v-1.9h0.8c0.9,0,1.5-0.5,1.5-1.3
			c0-0.9-0.6-1.3-1.5-1.3h-1.4v4.5H83.9L83.9,110.4z M84.6,106.3c0.6,0,1,0.3,1,0.9c0,0.6-0.3,0.9-1,0.9h-0.7v-1.8L84.6,106.3
			L84.6,106.3z"/>
		<path class="st2" d="M13.7,107.6L13.7,107.6C13.7,107.7,13.7,107.7,13.7,107.6L13.7,107.6L13.7,107.6
			C13.7,107.7,13.7,107.7,13.7,107.6L13.7,107.6L13.7,107.6z M21.3,108.8c-0.1,0-0.1-0.1-0.2-0.1c0-0.1-0.1-0.1,0-0.2l0,0
			c0,0,0,0,0.1,0C21.2,108.5,21.3,108.6,21.3,108.8C21.3,108.6,21.3,108.6,21.3,108.8C21.3,108.7,21.3,108.7,21.3,108.8L21.3,108.8z
			 M17.9,108.2L17.9,108.2c0.1-0.1,0.1-0.1,0.2-0.1h0.1C18.1,108.2,18,108.2,17.9,108.2L17.9,108.2L17.9,108.2z M23.6,107.1
			c-0.4-0.9-1.2-1.4-2.2-1.4c-0.1,0-0.1,0-0.2,0h-6.3c-0.8,0-1.4,0.3-1.8,0.8c-0.2,0.3-0.3,0.7-0.3,1c0.1,0.4,0.3,0.7,0.7,0.8
			c0.2,0,0.4,0,0.5-0.1c0.2-0.1,0.2-0.3,0.2-0.5s-0.2-0.4-0.4-0.4l0,0l0,0c-0.1,0-0.2,0.1-0.3,0.2c0,0-0.1,0.2-0.1,0.3
			s0,0.1,0.1,0.1s0.2,0,0.2,0c0.1-0.1,0.1-0.2,0.1-0.2l0,0v-0.1c0.1,0,0.2,0.1,0.2,0.2c0,0.1,0,0.3-0.1,0.3
			c-0.1,0.1-0.2,0.1-0.4,0.1c-0.3-0.1-0.5-0.3-0.5-0.6s0-0.6,0.2-0.9c0.4-0.5,0.9-0.7,1.6-0.7h6.3c1-0.1,1.7,0.4,2.2,1.3
			c0.4,0.9,0.2,2-0.5,2.6s-1.9,0.6-2.5-0.1c-0.3-0.3-0.5-0.8-0.4-1.2c0-0.4,0.3-0.8,0.7-1c0.4-0.2,0.9-0.1,1.2,0.2
			c0.2,0.3,0.3,0.6,0.1,0.9c-0.1,0.1-0.2,0.2-0.4,0.2v-0.1c0-0.1,0-0.1,0-0.2c0-0.1-0.1-0.2-0.2-0.3c-0.1,0-0.1-0.1-0.2,0
			c-0.1,0-0.2,0.1-0.2,0.2c0,0.1,0,0.3,0.1,0.4c0.1,0.1,0.3,0.2,0.5,0.2s0.5-0.1,0.6-0.3c0.2-0.3,0.2-0.8-0.1-1.1
			c-0.3-0.4-0.9-0.5-1.4-0.3c-0.4,0.2-0.8,0.7-0.8,1.2c0,0.1,0,0.1,0,0.2c-0.4-0.7-0.7-1.5-1.6-1.5c-0.5,0-0.8,0.2-0.8,0.7
			c0,0.3,0.1,0.5,0.3,0.6l0,0c0.1,0,0.2,0,0.3,0l0,0c0.2,0,0.3-0.1,0.3-0.2c0-0.1,0-0.1,0-0.2c0-0.1-0.1-0.1-0.2-0.1
			s-0.2,0.1-0.3,0.2c0,0,0,0-0.1,0.1l0,0c-0.1-0.1-0.1-0.2-0.1-0.4c0-0.3,0.2-0.5,0.6-0.5c0.8,0,1.1,0.7,1.5,1.4
			c0.2,0.3,0.3,0.7,0.5,0.9l0,0c0,0.1,0.1,0.1,0.1,0.2c0.7,0.7,2,0.8,2.8,0.1C23.8,109.3,24.1,108.1,23.6,107.1z"/>
		<path class="st2" d="M98.4,107.6L98.4,107.6C98.4,107.7,98.4,107.7,98.4,107.6L98.4,107.6L98.4,107.6
			C98.5,107.7,98.5,107.7,98.4,107.6L98.4,107.6L98.4,107.6z M90.8,108.8c0.1,0,0.1-0.1,0.2-0.1c0-0.1,0.1-0.1,0-0.2l0,0
			c0,0,0,0-0.1,0C90.9,108.5,90.8,108.6,90.8,108.8C90.8,108.6,90.8,108.6,90.8,108.8C90.8,108.7,90.8,108.7,90.8,108.8L90.8,108.8z
			 M94.3,108.2L94.3,108.2c-0.1-0.1-0.1-0.1-0.2-0.1H94C94.1,108.2,94.1,108.2,94.3,108.2C94.2,108.2,94.3,108.2,94.3,108.2
			L94.3,108.2z M88.5,107.1c0.4-0.9,1.2-1.4,2.2-1.4c0.1,0,0.1,0,0.2,0h6.3c0.8,0,1.4,0.3,1.8,0.8c0.2,0.3,0.3,0.7,0.3,1
			c-0.1,0.4-0.3,0.7-0.7,0.8c-0.2,0-0.4,0-0.5-0.1c-0.2-0.1-0.2-0.3-0.2-0.5s0.2-0.4,0.4-0.4l0,0l0,0c0.1,0,0.2,0.1,0.3,0.2
			c0,0,0.1,0.2,0.1,0.3s0,0.1-0.1,0.1s-0.2,0-0.2,0c-0.1-0.1-0.1-0.2-0.1-0.2l0,0v-0.1c-0.1,0-0.2,0.1-0.2,0.2c0,0.1,0,0.3,0.1,0.3
			c0.1,0.1,0.2,0.1,0.4,0.1c0.3-0.1,0.5-0.3,0.5-0.6s0-0.6-0.2-0.9c-0.4-0.5-0.9-0.7-1.6-0.7H91c-1-0.1-1.7,0.4-2.2,1.3
			c-0.4,0.9-0.2,2,0.5,2.6s1.9,0.6,2.5-0.1c0.3-0.3,0.5-0.8,0.4-1.2c0-0.4-0.3-0.8-0.7-1c-0.4-0.2-0.9-0.1-1.2,0.2
			c-0.2,0.3-0.3,0.6-0.1,0.9c0.1,0.1,0.2,0.2,0.4,0.2v-0.1c0-0.1,0-0.1,0-0.2c0-0.1,0.1-0.2,0.2-0.3c0.1,0,0.1-0.1,0.2,0
			c0.1,0,0.2,0.1,0.2,0.2c0,0.1,0,0.3-0.1,0.4c-0.1,0.1-0.3,0.2-0.5,0.2s-0.5-0.1-0.6-0.3c-0.2-0.3-0.2-0.8,0.1-1.1
			c0.3-0.4,0.9-0.5,1.4-0.3c0.4,0.2,0.8,0.7,0.8,1.2c0,0.1,0,0.1,0,0.2c0.4-0.7,0.7-1.5,1.6-1.5c0.5,0,0.8,0.2,0.8,0.7
			c0,0.3-0.1,0.5-0.3,0.6l0,0c-0.1,0-0.2,0-0.3,0l0,0c-0.2,0-0.3-0.1-0.3-0.2c0-0.1,0-0.1,0-0.2c0-0.1,0.1-0.1,0.2-0.1
			s0.2,0.1,0.3,0.2c0,0,0,0,0.1,0.1l0,0c0.1-0.1,0.1-0.2,0.1-0.4c0-0.3-0.2-0.5-0.6-0.5c-0.8,0-1.1,0.7-1.5,1.4
			c-0.2,0.3-0.3,0.7-0.5,0.9l0,0c0,0.1-0.1,0.1-0.1,0.2c-0.7,0.7-2,0.8-2.8,0.1C88.3,109.3,88.1,108.1,88.5,107.1z"/>
	</g>
</g>
</svg>
