<?xml version="1.0" encoding="utf-8"?>
<!-- Generator: Adobe Illustrator 21.1.0, SVG Export Plug-In . SVG Version: 6.00 Build 0)  -->
<svg version="1.1" id="_x31_" xmlns="http://www.w3.org/2000/svg" xmlns:xlink="http://www.w3.org/1999/xlink" x="0px" y="0px"
	 viewBox="0 0 105.7 118.9" style="enable-background:new 0 0 105.7 118.9;" xml:space="preserve">
<style type="text/css">
	.st0{fill:none;stroke:#C5C6C6;stroke-width:0.2237;stroke-miterlimit:22.9256;}
	.st1{fill:#400D48;}
	.st2{fill:#FFFFFF;}
	.st3{fill:#400D48;stroke:#400D48;stroke-width:0.311;stroke-linecap:round;stroke-linejoin:round;stroke-miterlimit:10;}
</style>
<g>
	<rect x="-89.3" y="-21.1" class="st0" width="284.4" height="162.5"/>
	<g>
		<path class="st1" d="M32.6,26.4c0.1-0.2,0-0.5-0.3-0.4c-0.3,0-0.6,0.3-0.9,0.4c-0.4,0.2-0.8,0.4-1.3,0.2c-0.1,0-0.1,0.1,0,0.1
			C30.8,27,32.1,27.4,32.6,26.4z"/>
		<path class="st1" d="M51.3,65.1c-0.2,0-0.4,0.3-0.2,0.5c0.2,0.3,0.5,0.4,0.8,0.6c0.4,0.3,0.7,0.6,0.9,1c0,0.1,0.1,0,0.1,0
			C52.6,66.4,52.3,65,51.3,65.1z"/>
		<path class="st1" d="M75.4,29.6c0.1,0.2,0.4,0.2,0.5,0c0.1-0.3,0.1-0.6,0.1-1c0-0.5,0.1-0.9,0.4-1.3c0,0,0-0.1-0.1-0.1
			C75.8,27.8,74.8,28.7,75.4,29.6z"/>
		<path class="st1" d="M76.1,26.8C76.2,26.7,76.1,26.7,76.1,26.8c-0.5,0-0.9-0.1-1.3-0.3c-0.3-0.1-0.5-0.4-0.9-0.4
			c-0.3,0-0.4,0.2-0.3,0.4C74,27.4,75.4,27,76.1,26.8z"/>
		<path class="st1" d="M30.2,28.5c0,0.3,0,0.6,0.1,1c0.1,0.2,0.4,0.3,0.5,0c0.6-0.9-0.4-1.8-1-2.3c0,0-0.1,0-0.1,0.1
			C30.1,27.6,30.1,28.1,30.2,28.5z"/>
		<path class="st1" d="M54.9,65.1c-1-0.1-1.3,1.3-1.5,2c0,0.1,0.1,0.1,0.1,0c0.1-0.5,0.5-0.8,0.9-1c0.3-0.2,0.6-0.3,0.8-0.6
			C55.2,65.3,55.1,65.1,54.9,65.1z"/>
		<path class="st1" d="M53,8.8c0-0.1,0-0.1,0.1-0.2c0,0.1,0.1,0.1,0.1,0.2c0.2,0.6,0.1,1.3-0.1,1.9C52.9,10.1,52.8,9.4,53,8.8
			L53,8.8z M53.1,11.1L53.1,11.1c0.7-0.7,1-1.4,0.9-2.4c-0.1-0.6-0.4-1.5-0.9-1.8c-0.5,0.4-0.8,1.2-0.9,1.8
			C52.1,9.7,52.4,10.4,53.1,11.1L53.1,11.1z"/>
		<path class="st1" d="M80.4,56.2c-0.6-0.2-1.2-0.5-1.6-1c0.6,0.1,1.3,0.4,1.7,0.9c0,0,0.1,0.1,0.1,0.2
			C80.5,56.2,80.4,56.2,80.4,56.2L80.4,56.2z M80.9,55.4c-0.8-0.6-1.6-0.7-2.5-0.4l0,0l0,0c0.2,0.9,0.7,1.5,1.6,1.9
			c0.5,0.3,1.4,0.4,2,0.1C82,56.4,81.4,55.8,80.9,55.4z"/>
		<path class="st1" d="M25.8,56.2c-0.1,0-0.1,0-0.2,0c0-0.1,0.1-0.1,0.1-0.2c0.4-0.5,1.1-0.8,1.7-0.9C27,55.7,26.4,56,25.8,56.2
			L25.8,56.2z M27.7,55L27.7,55L27.7,55c-0.9-0.3-1.7-0.2-2.5,0.4c-0.5,0.3-1.1,1-1.2,1.7c0.6,0.3,1.5,0.1,2-0.1
			C27,56.6,27.5,56,27.7,55z"/>
		<path class="st1" d="M52,10.6C52.1,10.7,52.2,10.6,52,10.6c-0.1-0.3-0.3-0.7-0.5-0.8c-0.3-0.2-0.8-0.3-1.1,0.1
			c-0.2,0.2-0.2,0.5,0.1,0.6C51,10.8,51.5,10.3,52,10.6z"/>
		<path class="st1" d="M28,57.9c0.2,0,0.5-0.1,0.5-0.4c0-0.6-0.8-0.8-0.7-1.4c0-0.1-0.1-0.1-0.1,0c-0.1,0.3-0.3,0.6-0.3,0.9
			C27.5,57.4,27.6,57.9,28,57.9z"/>
		<path class="st1" d="M80.8,53.3c-0.1-0.2-0.4-0.4-0.6-0.3c-0.5,0.3-0.3,1.1-0.9,1.3c-0.1,0-0.1,0.2,0,0.1c0.3-0.1,0.7,0,0.9-0.2
			C80.7,54,81,53.7,80.8,53.3z"/>
		<path class="st1" d="M54.2,10.6c0.4-0.4,1,0.2,1.5-0.1c0.2-0.1,0.2-0.4,0.1-0.6c-0.3-0.3-0.7-0.2-1.1-0.1
			C54.5,9.9,54.3,10.3,54.2,10.6C54,10.6,54.1,10.7,54.2,10.6z"/>
		<path class="st1" d="M25.3,53.3c-0.1,0.4,0.2,0.7,0.5,1c0.2,0.2,0.7,0.1,0.9,0.2c0.1,0,0.1-0.1,0-0.1c-0.5-0.2-0.4-1-0.9-1.3
			C25.7,52.9,25.4,53,25.3,53.3z"/>
		<path class="st1" d="M78.7,57.1c0-0.3-0.2-0.6-0.3-0.9c0-0.1-0.1-0.1-0.1,0c0.1,0.6-0.7,0.8-0.7,1.4c0,0.3,0.3,0.4,0.5,0.4
			C78.6,57.9,78.7,57.4,78.7,57.1z"/>
		<path class="st1" d="M47.9,15.2c1.3,0.3,2.6-0.3,3.6-1.1c0.2-0.1,0-0.3-0.2-0.2c-1,0.8-2.3,0.8-3.4,0.3C47,13.8,46.7,13,46,12.5
			c-0.3-0.2-0.8,0.1-0.7,0.4C45.5,14.1,46.8,14.9,47.9,15.2z"/>
		<path class="st1" d="M31.1,54.9c-0.2-0.1-0.3,0.2-0.1,0.2c1.2,0.4,1.8,1.6,1.9,2.8c0.1,0.9-0.4,1.7-0.5,2.5c0,0.3,0.4,0.6,0.7,0.4
			c1-0.8,1-2.3,0.7-3.4C33.5,56.2,32.3,55.4,31.1,54.9z"/>
		<path class="st1" d="M78.3,49c0.8-0.5,1.6-0.5,2.5-0.8c0.3-0.1,0.3-0.7,0-0.8c-1.2-0.5-2.5,0.2-3.3,1.1c-0.9,1-1,2.4-0.9,3.7
			c0,0.2,0.3,0.2,0.3,0C76.7,50.8,77.3,49.8,78.3,49z"/>
		<path class="st1" d="M58.2,14.2c-1.1,0.5-2.4,0.6-3.4-0.3c-0.1-0.1-0.3,0.1-0.2,0.2c1,0.7,2.3,1.4,3.6,1.1
			c1.1-0.3,2.4-1.1,2.6-2.3c0-0.3-0.4-0.6-0.7-0.4C59.4,13,59,13.8,58.2,14.2z"/>
		<path class="st1" d="M29.5,52.1c0.1-1.3,0.1-2.7-0.9-3.7c-0.8-0.8-2.1-1.6-3.3-1.1c-0.3,0.1-0.3,0.7,0,0.8
			c0.8,0.3,1.7,0.3,2.5,0.8c1,0.7,1.7,1.8,1.5,3.1C29.2,52.3,29.5,52.3,29.5,52.1z"/>
		<path class="st1" d="M75.2,55.1c0.2-0.1,0.1-0.3-0.1-0.2c-1.1,0.5-2.4,1.3-2.7,2.6c-0.3,1.1-0.3,2.6,0.7,3.4
			c0.3,0.2,0.8-0.1,0.7-0.4c-0.1-0.9-0.6-1.6-0.5-2.5C73.4,56.7,73.9,55.5,75.2,55.1z"/>
		<path class="st1" d="M50,14c0.1,0,0.1-0.2,0-0.2c-0.9-0.1-1.5-0.7-2-1.4c-0.4-0.6-0.2-1.5-0.7-2c-0.3-0.3-0.7-0.2-0.9,0.1
			c-0.6,0.8,0.3,2.1,0.9,2.7C48.1,13.9,49,14,50,14z"/>
		<path class="st1" d="M31.8,56.2c0-0.1-0.2,0-0.2,0.1c0.3,0.8,0.2,1.7-0.2,2.4c-0.4,0.7-1.2,0.9-1.4,1.6c-0.1,0.4,0.2,0.7,0.6,0.7
			c1,0.1,1.7-1.3,1.9-2.1C32.6,58,32.3,57,31.8,56.2z"/>
		<path class="st1" d="M77.6,51c0.5-0.7,1.4-1,2.2-1c0.8,0,1.3,0.6,2.1,0.4c0.4-0.1,0.5-0.5,0.4-0.8c-0.4-0.9-2-0.8-2.8-0.6
			c-1,0.3-1.6,1-2,1.9C77.4,51,77.6,51.1,77.6,51z"/>
		<path class="st1" d="M58.8,13.2c0.6-0.6,1.5-1.9,0.9-2.7c-0.2-0.3-0.6-0.4-0.9-0.1c-0.5,0.6-0.3,1.4-0.7,2c-0.4,0.7-1.1,1.3-2,1.4
			c-0.1,0-0.1,0.2,0,0.2C57.1,14,58.1,13.9,58.8,13.2z"/>
		<path class="st1" d="M23.9,49.6c-0.1,0.3-0.1,0.8,0.4,0.8c0.7,0.1,1.3-0.5,2.1-0.4c0.8,0,1.7,0.3,2.2,1c0.1,0.1,0.2,0,0.1-0.1
			c-0.4-0.8-1.1-1.6-2-1.9C25.9,48.8,24.3,48.6,23.9,49.6z"/>
		<path class="st1" d="M74.8,58.7c-0.4-0.7-0.6-1.6-0.2-2.4c0-0.1-0.1-0.1-0.2-0.1c-0.5,0.8-0.9,1.7-0.6,2.7
			c0.2,0.8,0.9,2.2,1.9,2.1c0.3,0,0.7-0.3,0.6-0.7C76,59.6,75.1,59.4,74.8,58.7z"/>
		<path class="st1" d="M49.3,12.6c-0.4-1.4,0.5-2.4,0.8-3.7c0.1-0.4-0.3-0.7-0.7-0.5c-0.8,0.4-1.1,1.1-1.2,2s0.4,1.6,0.9,2.2
			C49.2,12.8,49.3,12.7,49.3,12.6z"/>
		<path class="st1" d="M31.1,57.6c0-0.1-0.1-0.1-0.1-0.1c-1,1-2.3,0.8-3.6,1.2c-0.4,0.1-0.4,0.6-0.1,0.8c0.7,0.5,1.5,0.4,2.3,0
			C30.5,59.2,30.8,58.4,31.1,57.6z"/>
		<path class="st1" d="M81.4,51.1c-0.7-0.5-1.6-0.5-2.4-0.3c-0.1,0-0.1,0.1,0,0.1c1.4,0.4,1.9,1.6,2.8,2.5c0.3,0.3,0.7,0.1,0.8-0.3
			C82.7,52.2,82.1,51.6,81.4,51.1z"/>
		<path class="st1" d="M56.9,12.6c0,0.1,0.1,0.1,0.1,0.1c0.5-0.6,1-1.3,0.9-2.2s-0.3-1.6-1.2-2C56.3,8.3,55.9,8.6,56,9
			C56.4,10.2,57.3,11.3,56.9,12.6z"/>
		<path class="st1" d="M24.4,53.4c0.9-0.9,1.4-2.1,2.8-2.5c0.1,0,0.1-0.1,0-0.1c-0.8-0.1-1.7-0.2-2.4,0.3c-0.7,0.5-1.2,1.1-1.1,2
			C23.6,53.5,24.1,53.7,24.4,53.4z"/>
		<path class="st1" d="M78.7,58.7c-1.2-0.4-2.6-0.1-3.6-1.2c0-0.1-0.2,0-0.1,0.1c0.3,0.8,0.7,1.6,1.5,1.9c0.8,0.4,1.6,0.5,2.3,0
			C79.2,59.3,79.1,58.8,78.7,58.7z"/>
		<path class="st1" d="M80.4,42.7c0,0.5,0,0.9-0.1,1.4c-0.1,0.3-0.2,0.7-0.4,0.9c-0.2,0.4-0.4,0.6-0.7,0.6c0.1-0.6-0.3-1.3-1.2-1.2
			c-0.6,0.1-0.9,1-0.7,1.5c0.3,0.5,0.7,0.7,1.1,0.8c-1.5,1.1-2.9,2.5-3,4.5c-0.1,0.9,0.4,2,1.2,2.6c-0.9-0.3-2.1-0.2-2.9,0.3
			c-1.7,1.1-2.2,2.9-2.4,4.8c-0.3-0.4-0.7-0.6-1.2-0.6c-0.6,0-1.2,0.7-0.9,1.3c0.3,0.9,1.2,0.9,1.6,0.5c0.1,0.3,0,0.6-0.2,0.9
			s-0.4,0.6-0.6,0.8c-0.4,0.3-0.7,0.6-1.2,0.8c-0.9,0.4-2,0.7-3,0.9c-1.9,0.4-3.9,0.5-5.8,0.3l0,0c-1.3-0.1-2.7,0.8-3.5,1.7
			c-0.9,1-1.7,2.1-2.4,3.3c-0.2-0.7-0.6-1.3-0.9-1.8c-0.4,0.6-0.7,1.2-0.9,1.8c-0.7-1.2-1.5-2.3-2.4-3.3c-0.9-0.9-2.3-1.8-3.5-1.7
			l0,0c-1.9,0.2-3.9,0.1-5.8-0.3c-1-0.2-2-0.5-3-0.9c-0.4-0.2-0.8-0.5-1.2-0.8c-0.3-0.2-0.5-0.5-0.6-0.8c-0.2-0.4-0.3-0.7-0.2-0.9
			c0.4,0.4,1.3,0.4,1.6-0.5c0.2-0.6-0.4-1.3-0.9-1.3s-0.9,0.2-1.2,0.6c-0.2-1.9-0.7-3.7-2.4-4.8c-0.8-0.5-2-0.6-2.9-0.3
			c0.7-0.6,1.2-1.7,1.2-2.6c-0.1-2-1.4-3.4-3-4.5c0.4-0.1,0.8-0.3,1.1-0.8c0.3-0.5-0.1-1.4-0.7-1.5c-1-0.2-1.4,0.6-1.2,1.2
			c-0.3,0-0.5-0.3-0.7-0.6s-0.3-0.6-0.4-0.9C26,43.6,26,43.2,26,42.7c0.1-1,0.4-2.1,0.7-3c0.6-1.8,1.5-3.6,2.7-5.1c0,0,0,0,0-0.1
			c0.7-1.1,0.7-2.7,0.3-3.9c-0.4-1.3-0.9-2.6-1.6-3.7c0.7,0.1,1.4,0.2,2,0.1c-0.3-0.6-0.7-1.2-1.1-1.7c1.4,0,2.7-0.2,4-0.5
			c1.3-0.3,2.7-1.1,3.2-2.2c0,0,0,0,0.1,0c0.8-1.8,1.9-3.4,3.1-4.9c0.7-0.8,1.4-1.5,2.3-2.1c0.4-0.3,0.8-0.5,1.3-0.6
			c0.3-0.1,0.7-0.1,1-0.1c0.4,0,0.7,0.1,0.9,0.3c-0.6,0.2-1,0.9-0.4,1.6c0.4,0.5,1.3,0.3,1.6-0.2c0.3-0.5,0.3-0.9,0.1-1.3
			c1.7,0.8,3.6,1.2,5.4,0.3c0.8-0.4,1.5-1.4,1.7-2.3c0.2,1,0.8,1.9,1.7,2.3c1.8,0.9,3.7,0.5,5.4-0.3c-0.2,0.4-0.2,0.9,0.1,1.3
			c0.3,0.5,1.2,0.6,1.6,0.2c0.6-0.7,0.2-1.5-0.4-1.6c0.2-0.2,0.5-0.3,0.9-0.3c0.3,0,0.7,0,1,0.1c0.5,0.2,0.9,0.4,1.3,0.6
			c0.8,0.6,1.6,1.3,2.3,2.1c1.3,1.5,2.3,3.1,3.1,4.9c0,0,0,0,0.1,0c0.6,1.1,2,1.9,3.2,2.2c1.3,0.3,2.7,0.5,4,0.5
			c-0.4,0.5-0.8,1.1-1.1,1.7c0.7,0.1,1.4,0,2-0.1c-0.7,1.2-1.2,2.4-1.6,3.7c-0.4,1.2-0.4,2.8,0.3,3.9c0,0,0,0,0,0.1
			c1.1,1.6,2,3.3,2.7,5.1C80,40.7,80.3,41.7,80.4,42.7L80.4,42.7z M52.5,69.5c0.2,0.4,0.4,0.8,0.6,1.3c0.2-0.4,0.4-0.9,0.6-1.3
			c-0.1-0.6-0.3-1.2-0.6-1.8C52.8,68.3,52.5,68.9,52.5,69.5L52.5,69.5z M53.7,70.7c-0.1,0.8-0.3,1.5-0.7,2.2
			c-0.3-0.7-0.6-1.4-0.7-2.2c0-0.2,0-0.5,0-0.7c0.2,0.5,0.5,0.9,0.7,1.4c0.2-0.5,0.4-0.9,0.7-1.4C53.8,70.2,53.8,70.4,53.7,70.7
			L53.7,70.7z M27.5,26.3c0.6,0.2,1.2,0.4,1.9,0.4c-0.3-0.6-0.7-1-1.2-1.4c-0.5,0-0.9,0-1.4-0.1C27,25.5,27.3,25.9,27.5,26.3
			L27.5,26.3z M26.5,25.8c0.2,0.2,0.4,0.3,0.7,0.4c-0.3-0.4-0.6-0.9-0.9-1.3c0.5,0.1,1,0.1,1.6,0.1c-0.2-0.1-0.4-0.3-0.7-0.4
			c-0.7-0.3-1.5-0.4-2.2-0.5C25.4,24.7,25.9,25.3,26.5,25.8L26.5,25.8z M78,25.2c-0.5,0.4-0.9,0.9-1.2,1.4c0.6,0,1.3-0.1,1.9-0.4
			c0.2-0.4,0.5-0.8,0.8-1.2C79,25.2,78.5,25.2,78,25.2L78,25.2z M79,24.6c-0.3,0.1-0.5,0.2-0.7,0.4c0.5,0,1.1-0.1,1.6-0.1
			c-0.3,0.4-0.6,0.9-0.9,1.3c0.2-0.1,0.5-0.3,0.7-0.4c0.6-0.5,1.1-1,1.5-1.6C80.4,24.2,79.7,24.3,79,24.6L79,24.6z M80.2,35.4
			c-0.7,0.6-0.9,1.7-0.7,2.6c-0.5-1-1.2-2-1.9-2.9c0.3,0.3,0.7,0.5,1.2,0.5c0.8,0.1,1.7-0.5,1.7-1.3c0-0.7-0.8-1.4-1.5-1
			c-0.6,0.3-0.6,0.8-0.3,1.2c-0.1,0-0.2,0-0.3,0c-0.3-0.1-0.6-0.3-0.9-0.6c-0.5-0.4-0.6-1.1-0.6-1.7c-0.1-1,0.3-2.1,0.7-3.1
			c0.3-0.8,0.6-1.5,1-2.2c2-0.4,3.9-1.7,4.4-3.7c-2-0.6-4,0.4-5.4,2c-0.8,0-1.6-0.1-2.4-0.2c-1-0.2-2.2-0.4-3-1
			c-0.5-0.3-1.1-0.8-1.2-1.4c-0.1-0.4-0.1-0.7,0-1.1c0.1-0.1,0.1-0.2,0.2-0.2c0.2,0.4,0.6,0.6,1.2,0.3c0.7-0.4,0.4-1.5-0.2-1.8
			c-0.8-0.4-1.7,0.1-2,0.8C70,21.1,70,21.5,70,21.9c-0.4-1.1-0.9-2.1-1.6-3.1c0.7,0.6,1.7,1,2.6,0.7s1.8-1.4,1.2-2.4
			c-0.5-0.9-2.1-1.3-2.4,0c-0.3,1.1,1.2,1.5,1.6,0.6c0,0.1,0.1,0.1,0.1,0.2c0.1,0.3,0,0.5-0.1,0.8c-0.3,0.4-0.8,0.7-1.4,0.6
			c-1-0.1-1.5-0.8-2.3-1.4l0,0c-0.5-0.7-1-1.4-1.7-2c-1.3-1.3-3.6-2.7-5.3-1.3c-0.1,0.1-0.2,0.2-0.3,0.4c-1,0.4-2.1,0.8-3.2,0.8
			c-0.9,0-2-0.2-2.6-1c-0.3-0.3-0.5-0.7-0.6-1.1c-0.1-0.3-0.1-0.5,0-0.7c0.3,0.5,0.8,0.8,1.3,0.4c1.2-0.9,0.1-2.9-1.3-2.1
			c-0.6,0.3-0.9,0.8-0.9,1.3c-0.1-0.5-0.4-1-0.9-1.3c-1.4-0.8-2.5,1.2-1.3,2.1c0.5,0.4,1.1,0.1,1.3-0.4c0.1,0.2,0.1,0.4,0,0.7
			c-0.1,0.4-0.3,0.8-0.6,1.1c-0.6,0.7-1.7,1-2.6,1c-1.1,0-2.2-0.3-3.2-0.8c-0.1-0.1-0.2-0.2-0.3-0.4c-1.7-1.4-4,0-5.3,1.3
			c-0.6,0.6-1.1,1.3-1.7,2l0,0c-0.7,0.6-1.3,1.2-2.3,1.4c-0.6,0.1-1.1-0.2-1.4-0.6c-0.2-0.2-0.2-0.5-0.1-0.8c0-0.1,0.1-0.1,0.1-0.2
			c0.4,0.9,1.9,0.5,1.6-0.6c-0.4-1.3-1.9-0.9-2.4,0c-0.6,1,0.3,2.1,1.2,2.4c0.9,0.3,1.9-0.1,2.6-0.7c-0.6,1-1.1,2-1.6,3.1
			c0.1-0.4,0-0.8-0.2-1.3c-0.3-0.8-1.3-1.3-2-0.8c-0.6,0.3-0.8,1.4-0.2,1.8c0.6,0.3,1,0.1,1.2-0.3c0.1,0.1,0.1,0.2,0.2,0.2
			c0.1,0.4,0.1,0.7,0,1.1c-0.1,0.6-0.7,1.1-1.2,1.4c-0.9,0.6-2,0.8-3,1c-0.8,0.2-1.6,0.2-2.4,0.2c-1.4-1.6-3.4-2.6-5.4-2
			c0.5,2,2.4,3.3,4.4,3.7c0.4,0.7,0.7,1.4,1,2.2c0.3,1,0.7,2.1,0.7,3.1c0,0.6-0.1,1.3-0.6,1.7c-0.3,0.3-0.5,0.5-0.9,0.6
			c-0.1,0-0.2,0-0.3,0c0.2-0.4,0.2-0.9-0.3-1.2c-0.7-0.4-1.5,0.4-1.5,1c0,0.9,0.9,1.5,1.7,1.3c0.5-0.1,0.9-0.3,1.2-0.5
			C27.9,36,27.2,37,26.7,38c0.2-0.9,0-2-0.7-2.6c-0.8-0.6-2.1-0.9-2.7,0.2c-0.6,0.9-0.1,2.5,1.2,2.1c1.1-0.3,0.7-1.8-0.3-1.7
			c0-0.1,0.1-0.1,0.1-0.2c0.2-0.2,0.5-0.3,0.7-0.3c0.5,0.1,1,0.4,1.2,0.9c0.4,0.9,0.1,1.7,0,2.6l0,0c-0.4,0.8-0.7,1.6-0.9,2.4
			c-0.5,1.7-0.5,4.4,1.5,5.2c0.2,0.1,0.3,0.1,0.5,0.1c0.9,0.7,1.7,1.4,2.3,2.4c0.4,0.8,0.8,1.8,0.4,2.8c-0.1,0.4-0.3,0.8-0.6,1.1
			c-0.2,0.2-0.4,0.4-0.6,0.4c0.3-0.5,0.3-1.1-0.3-1.4c-1.4-0.6-2.6,1.4-1.2,2.2c0.6,0.3,1.1,0.3,1.6,0.2c-0.4,0.3-0.7,0.8-0.7,1.5
			c0,1.6,2.3,1.6,2.5,0c0.1-0.7-0.5-1-1-1c0.1-0.2,0.3-0.3,0.6-0.3c0.4-0.1,0.8-0.1,1.2,0c1,0.2,1.7,1,2.2,1.8
			c0.6,0.9,0.8,2.1,0.9,3.2c-0.1,0.1-0.1,0.3-0.1,0.5c-0.4,2.2,2,3.5,3.7,3.9c0.8,0.2,1.7,0.4,2.5,0.4l0,0c0.9,0.4,1.7,0.5,2.3,1.3
			c0.3,0.5,0.4,1,0.2,1.5c-0.1,0.3-0.3,0.4-0.6,0.5c-0.1,0-0.2,0-0.2,0c0.6-0.8-0.6-1.9-1.3-1.1c-0.9,1,0.2,2.1,1.3,2.1
			c1.2,0,1.7-1.3,1.5-2.3c-0.2-0.9-1-1.6-1.9-1.9c1.2,0,2.3,0,3.5-0.2c-0.4,0.2-0.7,0.4-1.1,0.8c-0.5,0.7-0.5,1.7,0.3,2.2
			c0.6,0.3,1.6,0,1.6-0.8c0-0.7-0.4-0.9-0.9-0.9c0-0.1,0.1-0.2,0.1-0.3c0.3-0.2,0.6-0.4,0.9-0.5c0.6-0.2,1.3,0,1.8,0.3
			c0.9,0.5,1.7,1.4,2.4,2.2c0.5,0.6,1,1.3,1.4,2c-0.6,2-0.5,4.2,1,5.7c1.5-1.4,1.7-3.7,1-5.7c0.4-0.7,0.9-1.4,1.4-2
			c0.7-0.8,1.4-1.7,2.4-2.2c0.6-0.3,1.2-0.5,1.8-0.3c0.4,0.1,0.7,0.2,0.9,0.5c0,0.1,0.1,0.2,0.1,0.3c-0.4,0-0.9,0.2-0.9,0.9
			c0,0.8,1,1.1,1.6,0.8c0.8-0.4,0.8-1.5,0.3-2.2c-0.3-0.4-0.7-0.6-1.1-0.8c1.1,0.2,2.3,0.2,3.5,0.2c-0.9,0.3-1.7,1-1.9,1.9
			c-0.2,1,0.3,2.3,1.5,2.3c1.1,0,2.2-1.1,1.3-2.1c-0.8-0.8-1.9,0.3-1.3,1.1c-0.1,0-0.2,0-0.2,0c-0.3-0.1-0.5-0.3-0.6-0.5
			c-0.2-0.5-0.2-1.1,0.2-1.5c0.6-0.8,1.5-0.9,2.3-1.3l0,0c0.9-0.1,1.7-0.2,2.5-0.4c1.7-0.5,4.1-1.8,3.7-3.9c0-0.2-0.1-0.3-0.1-0.5
			c0.1-1.1,0.3-2.2,0.9-3.2c0.5-0.8,1.2-1.6,2.2-1.8c0.4-0.1,0.8-0.1,1.2,0c0.3,0.1,0.5,0.2,0.6,0.3c-0.5,0-1.1,0.3-1,1
			c0.2,1.5,2.5,1.5,2.5,0c0-0.6-0.3-1.1-0.7-1.5c0.5,0.2,1,0.2,1.6-0.2c1.4-0.8,0.2-2.7-1.2-2.2c-0.6,0.3-0.6,0.9-0.3,1.4
			c-0.2,0-0.4-0.1-0.6-0.4c-0.3-0.3-0.5-0.7-0.6-1.1c-0.3-0.9,0-1.9,0.4-2.8c0.5-1,1.4-1.7,2.3-2.4c0.2,0,0.3,0,0.5-0.1
			c2.1-0.8,2-3.5,1.5-5.2c-0.2-0.8-0.5-1.6-0.9-2.4l0,0c-0.1-0.9-0.4-1.7,0-2.6c0.2-0.5,0.7-0.8,1.2-0.9c0.3,0,0.5,0.1,0.7,0.3
			c0.1,0.1,0.1,0.1,0.1,0.2c-1-0.1-1.4,1.4-0.3,1.7c1.3,0.3,1.7-1.2,1.2-2.1C82.3,34.5,81,34.8,80.2,35.4z"/>
		<path class="st1" d="M32.1,24.3c0.8-0.3,2.1-1,1.8-1.9c-0.1-0.2-0.3-0.4-0.5-0.4c-0.7,0-1.2,0.9-1.8,1.3c-0.7,0.5-1.5,0.8-2.4,0.9
			c-0.1,0-0.1,0.1,0,0.1C30.2,24.6,31.2,24.6,32.1,24.3z"/>
		<path class="st1" d="M49,67.5c0.8,0.4,1.4,0.9,2,1.6c0,0.1,0.1,0,0.1-0.1c-0.2-0.9-0.7-1.8-1.4-2.4c-0.6-0.5-1.9-1.3-2.6-0.6
			c-0.2,0.1-0.2,0.4-0.1,0.6C47.4,67.2,48.4,67.2,49,67.5z"/>
		<path class="st1" d="M78.9,27.8c-0.7,0.6-1.2,1.5-1.4,2.4c-0.2,0.8-0.2,2.3,0.8,2.5c0.2,0.1,0.4,0,0.5-0.2
			c0.4-0.6-0.1-1.5-0.2-2.2C78.5,29.4,78.7,28.6,78.9,27.8C79,27.8,78.9,27.7,78.9,27.8z"/>
		<path class="st1" d="M72.3,22.4c-0.2,1,1,1.7,1.8,1.9c0.9,0.3,1.9,0.3,2.8,0c0.1,0,0.1-0.1,0-0.1c-0.9-0.1-1.6-0.3-2.4-0.9
			c-0.6-0.4-1-1.3-1.8-1.3C72.5,22,72.3,22.2,72.3,22.4z"/>
		<path class="st1" d="M27.4,32.5c0.1,0.2,0.3,0.3,0.5,0.2c0.9-0.3,0.9-1.7,0.8-2.5c-0.2-0.9-0.7-1.8-1.4-2.4c0,0-0.2,0-0.1,0.1
			c0.3,0.8,0.5,1.6,0.4,2.5C27.5,31,27,31.9,27.4,32.5z"/>
		<path class="st1" d="M57.1,67.5c0.6-0.3,1.6-0.3,2-0.9c0.1-0.2,0.1-0.4-0.1-0.6c-0.7-0.7-2,0.1-2.6,0.6c-0.7,0.6-1.3,1.5-1.4,2.4
			c0,0.1,0.1,0.1,0.1,0.1C55.7,68.4,56.3,67.8,57.1,67.5z"/>
		<path class="st1" d="M23.4,21.8c0.8,0.3,1.6,0.3,2.4,0.6c1,0.3,1.8,1,2.6,1.6c0,0,0.1,0,0.1-0.1c-0.4-0.9-1-1.6-1.8-2.1
			c-0.8-0.6-2.1-1.2-3.2-0.9C23.1,21,23,21.6,23.4,21.8z"/>
		<path class="st1" d="M51.3,69.9C51.3,69.8,51.2,69.8,51.3,69.9c-0.7,0.7-0.9,1.6-1,2.6s0,2.5,0.8,3.2c0.3,0.3,0.9,0.1,0.8-0.4
			c-0.1-0.8-0.5-1.6-0.7-2.4C51,72,51.2,70.9,51.3,69.9z"/>
		<path class="st1" d="M79.6,27.2v0.1c1,0.1,1.9-0.1,2.7-0.5c0.9-0.4,2.1-1.2,2.4-2.3c0.1-0.4-0.4-0.8-0.7-0.6
			c-0.7,0.5-1.1,1.2-1.7,1.8C81.5,26.4,80.5,26.8,79.6,27.2z"/>
		<path class="st1" d="M77.7,24C77.7,24,77.7,24.1,77.7,24c0.9-0.5,1.7-1.2,2.7-1.5c0.8-0.3,1.7-0.3,2.4-0.6
			c0.4-0.2,0.3-0.8-0.1-0.9c-1-0.3-2.3,0.4-3.2,0.9C78.7,22.4,78.1,23.1,77.7,24z"/>
		<path class="st1" d="M23.9,26.7c0.9,0.4,1.8,0.6,2.7,0.5c0.1,0,0.1-0.1,0-0.1c-0.9-0.4-1.9-0.8-2.7-1.4c-0.6-0.5-1.1-1.3-1.7-1.8
			c-0.4-0.3-0.8,0.2-0.7,0.6C21.7,25.5,22.9,26.3,23.9,26.7z"/>
		<path class="st1" d="M55,69.9C55,69.8,54.9,69.8,55,69.9c0,1,0.2,2.1,0,3.1c-0.2,0.8-0.6,1.6-0.7,2.4c0,0.4,0.6,0.6,0.8,0.4
			c0.8-0.8,0.8-2.2,0.8-3.2C55.8,71.5,55.6,70.6,55,69.9z"/>
		<path class="st1" d="M31,22.6c0.4-0.4,1-1.2,0.6-1.7c-0.1-0.2-0.4-0.3-0.6-0.2c-0.5,0.2-0.6,0.7-0.8,1.2c-0.2,0.5-0.4,1.1-0.8,1.5
			c0,0.1,0,0.2,0.1,0.1C30,23.2,30.6,23.1,31,22.6z"/>
		<path class="st1" d="M50.2,69.3c-0.5-0.4-0.9-0.7-1.5-0.9c-0.6-0.1-1.5-0.2-1.8,0.4c-0.1,0.2-0.1,0.5,0.1,0.6
			c0.4,0.4,0.9,0.2,1.4,0.1s1.1-0.2,1.7-0.1C50.2,69.4,50.3,69.3,50.2,69.3z"/>
		<path class="st1" d="M79.5,28.4c-0.1,0.6-0.2,1.1,0,1.7c0.2,0.6,0.5,1.4,1.2,1.4c0.2,0,0.5-0.2,0.5-0.4c0.1-0.6-0.3-0.9-0.6-1.3
			c-0.3-0.4-0.7-0.9-0.9-1.4C79.7,28.3,79.5,28.3,79.5,28.4z"/>
		<path class="st1" d="M76.7,23.5c0.1,0,0.1-0.1,0.1-0.1c-0.4-0.4-0.6-1-0.8-1.5c-0.2-0.5-0.3-1-0.8-1.2c-0.2-0.1-0.5,0.1-0.6,0.2
			c-0.4,0.6,0.2,1.3,0.6,1.7C75.6,23.1,76.1,23.2,76.7,23.5z"/>
		<path class="st1" d="M26.5,28.4c-0.2,0.5-0.6,1-0.9,1.4s-0.7,0.7-0.6,1.3c0,0.2,0.3,0.4,0.5,0.4c0.7,0,1.1-0.8,1.2-1.4
			c0.2-0.6,0-1.1,0-1.7C26.6,28.3,26.5,28.3,26.5,28.4z"/>
		<path class="st1" d="M57.4,68.4c-0.6,0.2-1,0.5-1.5,0.9c-0.1,0.1,0,0.2,0.1,0.1c0.5-0.1,1.1,0,1.7,0.1c0.5,0.1,1,0.2,1.4-0.1
			c0.2-0.2,0.2-0.4,0.1-0.6C58.9,68.1,57.9,68.2,57.4,68.4z"/>
		<path class="st1" d="M27.7,21.5c0.2,0.2,0.4,0.3,0.5,0.6c0.1,0.2,0.2,0.4,0.3,0.6c0,0.1,0.1,0,0.1,0c0.2-0.5,0-1.2-0.1-1.6
			c-0.2-0.7-0.8-1.1-1.4-1.3c-0.4-0.1-0.8,0.4-0.4,0.8C27,20.9,27.4,21.2,27.7,21.5z"/>
		<path class="st1" d="M50,70.3c-0.5,0.1-1,0.6-1.3,0.9c-0.5,0.5-0.6,1.2-0.4,1.9c0.1,0.4,0.8,0.5,0.9,0s0.2-0.9,0.3-1.4
			c0.1-0.3,0.1-0.5,0.2-0.7s0.3-0.4,0.4-0.6C50.1,70.4,50.1,70.3,50,70.3z"/>
		<path class="st1" d="M83.4,27.4c-0.5,0.1-0.9,0.3-1.4,0.4c-0.2,0.1-0.5,0.2-0.7,0.2s-0.5-0.1-0.7,0c-0.1,0-0.1,0.1-0.1,0.1
			c0.3,0.4,1,0.6,1.5,0.7c0.7,0.1,1.3-0.1,1.8-0.6C84.2,27.8,83.9,27.3,83.4,27.4z"/>
		<path class="st1" d="M77.6,22.7c0.1-0.2,0.2-0.4,0.3-0.6c0.1-0.2,0.3-0.4,0.5-0.6c0.4-0.3,0.7-0.6,1-1c0.3-0.3,0-0.9-0.4-0.8
			c-0.7,0.1-1.2,0.6-1.4,1.3c-0.2,0.5-0.3,1.1-0.1,1.6C77.5,22.8,77.6,22.8,77.6,22.7z"/>
		<path class="st1" d="M24.1,28.8c0.5-0.1,1.2-0.3,1.5-0.7c0-0.1,0-0.1-0.1-0.1c-0.2,0-0.5,0-0.7,0c-0.3,0-0.5-0.1-0.7-0.2
			c-0.5-0.1-0.9-0.3-1.4-0.4c-0.5-0.1-0.7,0.4-0.4,0.8C22.8,28.7,23.4,28.9,24.1,28.8z"/>
		<path class="st1" d="M56.2,70.3c-0.1,0-0.1,0.1-0.1,0.1c0.1,0.2,0.3,0.4,0.4,0.6s0.2,0.5,0.2,0.7c0.1,0.5,0.2,0.9,0.3,1.4
			c0.1,0.5,0.7,0.4,0.9,0c0.2-0.6,0.1-1.3-0.4-1.9C57.2,70.9,56.7,70.4,56.2,70.3z"/>
		<path class="st1" d="M30.9,28c0.4,0.3,0.7,0.7,1.2,0.5c0.1,0,0.2-0.1,0.2-0.1c0-0.1,0-0.2,0-0.3c-0.1-0.6-0.6-0.6-1.1-0.8
			c-0.2-0.1-0.4-0.1-0.7-0.2c-0.2,0-0.4-0.1-0.5-0.1c0.1,0.2,0.2,0.3,0.4,0.4C30.6,27.6,30.7,27.8,30.9,28z"/>
		<path class="st1" d="M74.9,27.3c-0.5,0.1-0.9,0.2-1.1,0.8c0,0.1,0,0.2,0,0.2c0.1,0.1,0.1,0.1,0.2,0.1c0.6,0.2,0.8-0.2,1.2-0.5
			c0.2-0.2,0.3-0.3,0.5-0.5c0.1-0.1,0.3-0.2,0.4-0.4c-0.2,0-0.4,0.1-0.5,0.1C75.4,27.2,75.1,27.3,74.9,27.3z"/>
		<path class="st1" d="M53.3,64.5c-0.1-0.1-0.1-0.1-0.2-0.1s-0.2,0.1-0.2,0.1c-0.4,0.4-0.3,0.8-0.1,1.3c0.1,0.2,0.1,0.4,0.2,0.7
			c0.1,0.2,0.1,0.4,0.2,0.5c0.1-0.2,0.1-0.3,0.2-0.5s0.1-0.4,0.2-0.7C53.6,65.3,53.7,64.9,53.3,64.5z"/>
		<path class="st1" d="M39.3,19.7c0.6-0.1,1.2,0,1.7-0.4c0.2-0.2,0.3-0.5,0-0.7c-1.1-0.6-2.6,0.6-3.4,1.4c-0.1,0.1,0,0.2,0.1,0.1
			C38.3,19.9,38.8,19.8,39.3,19.7z"/>
		<path class="st1" d="M42.1,62.6c-0.4-0.4-0.7-1.1-1.2-1.3c-0.2-0.1-0.6,0-0.6,0.3c0.1,1.3,1.8,2,2.9,2.2c0.1,0,0.1-0.1,0.1-0.1
			C42.8,63.4,42.4,63,42.1,62.6z"/>
		<path class="st1" d="M77.9,40.8c1-0.7,0.8-2.6,0.5-3.6c0-0.1-0.1-0.1-0.2,0c-0.1,0.5-0.2,1.1-0.4,1.6c-0.2,0.5-0.6,1.1-0.5,1.7
			C77.4,40.8,77.6,41,77.9,40.8z"/>
		<path class="st1" d="M65.1,18.6c-0.3,0.1-0.2,0.5,0,0.7c0.5,0.4,1.2,0.3,1.7,0.4c0.5,0.1,1.1,0.2,1.6,0.4c0.1,0,0.1-0.1,0.1-0.1
			C67.7,19.2,66.2,18.1,65.1,18.6z"/>
		<path class="st1" d="M27.9,37.2c0-0.1-0.1-0.1-0.2,0c-0.3,1-0.5,2.9,0.5,3.6c0.3,0.2,0.6-0.1,0.6-0.3c0.1-0.6-0.3-1.2-0.5-1.7
			C28.1,38.3,28,37.8,27.9,37.2z"/>
		<path class="st1" d="M65.9,61.6c0-0.3-0.3-0.4-0.6-0.3c-0.5,0.2-0.8,0.9-1.2,1.3c-0.3,0.4-0.7,0.8-1.2,1.2c-0.1,0.1,0,0.2,0.1,0.1
			C64.1,63.6,65.8,62.9,65.9,61.6z"/>
		<path class="st1" d="M39.2,18.5c0.7-0.2,1.2-0.3,1.9-0.3c0.5,0,1.1,0.1,1.6-0.2c0.3-0.2,0.3-0.7,0-0.9c-1.1-0.7-2.7,0.5-3.6,1.2
			C39,18.3,39,18.6,39.2,18.5z"/>
		<path class="st1" d="M39.9,61.8c-0.3-0.5-0.5-1-1-1.3c-0.3-0.2-0.8,0.1-0.8,0.4c0,1.3,1.8,2.1,2.8,2.5c0.1,0.1,0.3-0.1,0.2-0.2
			C40.6,62.9,40.2,62.4,39.9,61.8z"/>
		<path class="st1" d="M79.2,39.3c0-0.1-0.2-0.2-0.3,0c-0.1,0.7-0.3,1.2-0.6,1.8c-0.3,0.5-0.6,1-0.6,1.5c0,0.4,0.4,0.6,0.8,0.4
			C79.6,42.4,79.4,40.4,79.2,39.3z"/>
		<path class="st1" d="M63.5,17.1c-0.3,0.2-0.3,0.7,0,0.9c0.5,0.3,1.1,0.2,1.6,0.2c0.7,0,1.2,0.1,1.9,0.3c0.2,0.1,0.2-0.2,0.1-0.3
			C66.2,17.6,64.6,16.4,63.5,17.1z"/>
		<path class="st1" d="M27.2,39.3c0-0.2-0.3-0.1-0.3,0c-0.1,1.1-0.4,3.1,0.8,3.7c0.3,0.2,0.7-0.1,0.8-0.4c0-0.6-0.3-1-0.6-1.5
			C27.5,40.5,27.3,40,27.2,39.3z"/>
		<path class="st1" d="M67.3,60.6c-0.5,0.3-0.7,0.8-1,1.3c-0.4,0.6-0.7,1-1.2,1.5c-0.1,0.1,0,0.3,0.2,0.2c1-0.4,2.8-1.2,2.8-2.5
			C68.1,60.6,67.6,60.4,67.3,60.6z"/>
		<path class="st1" d="M41,16.7c0.5-0.1,1-0.1,1.5-0.2c0.5,0,0.9,0,1.2-0.4c0.1-0.2,0.1-0.4-0.1-0.6c-0.4-0.4-0.9-0.2-1.4,0
			s-0.9,0.5-1.3,0.9C40.7,16.5,40.8,16.7,41,16.7z"/>
		<path class="st1" d="M37.7,61.5c-0.3-0.4-0.4-0.8-1-0.8c-0.2,0-0.4,0.2-0.4,0.3c-0.1,0.6,0.3,0.9,0.7,1.2c0.4,0.4,0.9,0.5,1.4,0.7
			c0.1,0.1,0.3-0.1,0.2-0.2C38.3,62.4,38,61.9,37.7,61.5z"/>
		<path class="st1" d="M79,43.1c-0.2,0.4-0.5,0.8-0.2,1.2c0.1,0.2,0.3,0.3,0.5,0.2c0.6-0.2,0.6-0.7,0.7-1.2c0.1-0.6,0-1-0.1-1.6
			c0-0.1-0.2-0.2-0.3,0C79.5,42.2,79.2,42.7,79,43.1z"/>
		<path class="st1" d="M63.7,16.5c0.5,0,1,0,1.5,0.2c0.2,0,0.2-0.2,0.1-0.2c-0.5-0.3-0.8-0.7-1.3-0.9c-0.5-0.2-1-0.4-1.4,0
			c-0.1,0.1-0.2,0.4-0.1,0.6C62.8,16.5,63.2,16.5,63.7,16.5z"/>
		<path class="st1" d="M26.5,41.7c0-0.2-0.3-0.1-0.3,0c-0.1,0.6-0.2,1-0.1,1.6c0.1,0.5,0.2,1,0.7,1.2c0.2,0.1,0.4,0,0.5-0.2
			c0.2-0.5,0-0.8-0.2-1.2C26.9,42.7,26.6,42.2,26.5,41.7z"/>
		<path class="st1" d="M68.4,61.5c-0.3,0.4-0.5,0.9-0.9,1.2c-0.1,0.1,0,0.3,0.2,0.2c0.5-0.2,1-0.4,1.4-0.7c0.4-0.3,0.8-0.7,0.7-1.2
			c0-0.2-0.3-0.4-0.4-0.3C68.8,60.7,68.7,61.1,68.4,61.5z"/>
		<path class="st1" d="M53.1,63.1c-12.6,0-22.8-10.2-22.8-22.8s10.2-22.8,22.8-22.8c12.6,0,22.8,10.2,22.8,22.8
			C75.9,52.8,65.7,63.1,53.1,63.1L53.1,63.1z M53.1,16.7c-13,0-23.5,10.6-23.5,23.5s10.6,23.5,23.5,23.5c13,0,23.5-10.6,23.5-23.5
			S66.1,16.7,53.1,16.7z"/>
		<path class="st1" d="M53.1,62.2c-12.1,0-22-9.9-22-22s9.9-22,22-22s22,9.9,22,22C75.1,52.4,65.2,62.2,53.1,62.2L53.1,62.2z
			 M53.1,18c-12.3,0-22.2,10-22.2,22.2c0,12.3,10,22.2,22.2,22.2c12.3,0,22.2-10,22.2-22.2C75.3,28,65.3,18,53.1,18z"/>
	</g>
	<path class="st1" d="M70.1,39.1L70.1,39.1L70.1,39.1L70.1,39.1L70.1,39.1L70.1,39.1L70.1,39.1L70.1,39.1L70.1,39.1L70.1,39.1
		L70.1,39.1L70.1,39.1L70.1,39.1L70.1,39.1L70.1,39.1L70.1,39.1L70.1,39.1L70.1,39.1L70.1,39.1L70.1,39.1L70.1,39.1L70.1,39.1
		L70.1,39.1L70.1,39.1L70.1,39.1L70.1,39.1L70.1,39.1L70.1,39.1L70.1,39.1L70.1,39.1L70.1,39.1L70.1,39.1L70.1,39.1L70.1,39.1
		L70.1,39.1L70.1,39.1L70.1,39.1L70.1,39.1L70.1,39.1L70.1,39.1L70.1,39.1L70.1,39.1L70.1,39.1L70.1,39.1L70.1,39.1L70.1,39.1
		L70.1,39.1L70.1,39.1L70.1,39.1L70.1,39.1L70.1,39.1L70.1,39.1L70.1,39.1L70.1,39.1L70.1,39.1V39l0,0l0,0l0,0l0,0l0,0l0,0l0,0l0,0
		l0,0c0-0.2-0.1-0.4-0.2-0.4l0,0l0,0l0,0l0,0l0,0l0,0l0,0l0,0l0,0l0,0l0,0l0,0l0,0l0,0l0,0l0,0l0,0l0,0l0,0l0,0l0,0l0,0l0,0l0,0l0,0
		l0,0l0,0l0,0l0,0l0,0l0,0l0,0l0,0l0,0l0,0l0,0l0,0l0,0l0,0l0,0l0,0l0,0l0,0l0,0l0,0l0,0l0,0l0,0l0,0l0,0l0,0l0,0l0,0l0,0l0,0l0,0
		l0,0l0,0l0,0l0,0l0,0l0,0l0,0l0,0l0,0l0,0l0,0l0,0l0,0l0,0l0,0l0,0l0,0l0,0l0,0l0,0l0,0l0,0l0,0l0,0l0,0l0,0l0,0l0,0l0,0l0,0l0,0
		l0,0l0,0l0,0l0,0l0,0l0,0l0,0l0,0l0,0l0,0l0,0l0,0l0,0l0,0l0,0l0,0l0,0l0,0l0,0l0,0l0,0l0,0l0,0l0,0l0,0l0,0l0,0l0,0l0,0l0,0l0,0
		l0,0l0,0l0,0l0,0l0,0l0,0l0,0l0,0l0,0l0,0l0,0l0,0l0,0l0,0l0,0l0,0l0,0l0,0l0,0l0,0l0,0l0,0l0,0l0,0l0,0l0,0l0,0l0,0l0,0l0,0l0,0
		l0,0l0,0l0,0l0,0l0,0l0,0l0,0l0,0l0,0l0,0l0,0l0,0l0,0l0,0l0,0l0,0l0,0l0,0l0,0l0,0l0,0l0,0l0,0l0,0l0,0l0,0l0,0l0,0l0,0l0,0l0,0
		l0,0l0,0l0,0l0,0l0,0l0,0l0,0l0,0l0,0l0,0l0,0l0,0l0,0l0,0l0,0l0,0l0,0l0,0l0,0l0,0l0,0l0,0l0,0l0,0l0,0l0,0l0,0l0,0l0,0l0,0l0,0
		l0,0l0,0l0,0l0,0l0,0l0,0l0,0l0,0l0,0l0,0l0,0l0,0l0,0l0,0l0,0l0,0l0,0l0,0l0,0l0,0l0,0l0,0l0,0l0,0l0,0l0,0l0,0l0,0l0,0l0,0l0,0
		l0,0l0,0l0,0l0,0l0,0l0,0l0,0l0,0l0,0l0,0l0,0l0,0l0,0l0,0l0,0l0,0l0,0l0,0l0,0l0,0l0,0l0,0l0,0l0,0l0,0l0,0l0,0l0,0l0,0l0,0l0,0
		l0,0l0,0l0,0c0,0.1,0,0.1,0,0.2c0,0.1,0,0.1,0,0.2c0.2,0.3,0.5,0.5,0.8,0.5l0,0l0,0l0,0l0,0l0,0l0,0l0,0l0,0l0,0l0,0l0,0l0,0l0,0
		l0,0l0,0l0,0l0,0l0,0l0,0l0,0l0,0l0,0l0,0l0,0l0,0l0,0l0,0l0,0l0,0l0,0l0,0l0,0l0,0l0,0l0,0l0,0l0,0l0,0l0,0l0,0l0,0l0,0l0,0l0,0
		l0,0l0,0l0,0l0,0l0,0l0,0l0,0l0,0l0,0l0,0l0,0l0,0l0,0l0,0l0,0l0,0l0,0l0,0l0,0l0,0l0,0l0,0l0,0l0,0l0,0l0,0l0,0l0,0l0,0l0,0l0,0
		l0,0l0,0l0,0l0,0l0,0l0,0l0,0l0,0l0,0l0,0l0,0l0,0l0,0l0,0l0,0l0,0l0,0l0,0l0,0l0,0l0,0l0,0l0,0l0,0l0,0l0,0l0,0l0,0l0,0l0,0l0,0
		l0,0l0,0l0,0l0,0l0,0l0,0l0,0l0,0l0,0l0,0l0,0l0,0l0,0l0,0l0,0l0,0l0,0l0,0l0,0l0,0l0,0l0,0l0,0l0,0l0,0l0,0l0,0l0,0l0,0l0,0l0,0
		l0,0l0,0l0,0l0,0l0,0l0,0l0,0l0,0l0,0l0,0l0,0l0,0l0,0l0,0l0,0l0,0l0,0l0,0l0,0l0,0l0,0l0,0l0,0l0,0l0,0l0,0l0,0l0,0l0,0l0,0l0,0
		l0,0l0,0l0,0l0,0l0,0l0,0l0,0l0,0l0,0l0,0l0,0l0,0l0,0l0,0l0,0l0,0l0,0l0,0l0,0l0,0l0,0l0,0l0,0l0,0l0,0l0,0l0,0l0,0l0,0l0,0l0,0
		l0,0l0,0l0,0l0,0l0,0l0,0l0,0l0,0l0,0l0,0l0,0l0,0l0,0l0,0l0,0l0,0l0,0l0,0l0,0l0,0l0,0l0,0l0,0l0,0l0,0l0,0l0,0l0,0l0,0l0,0l0,0
		l0,0l0,0l0,0l0,0l0,0l0,0l0,0l0,0l0,0l0,0l0,0l0,0l0,0l0,0l0,0l0,0l0,0l0,0l0,0l0,0l0,0l0,0l0,0l0,0l0,0l0,0l0,0l0,0l0,0l0,0l0,0
		l0,0l0,0l0,0l0,0l0,0l0,0l0,0l0,0l0,0l0,0l0,0l0,0l0,0l0,0l0,0l0,0l0,0l0,0l0,0l0,0l0,0l0,0l0,0l0,0l0,0l0,0l0,0l0,0l0,0l0,0l0,0
		l0,0l0,0l0,0l0,0l0,0l0,0l0,0l0,0l0,0l0,0l0,0l0,0l0,0l0,0l0,0l0,0l0,0l0,0l0,0l0,0l0,0l0,0l0,0l0,0l0,0l0,0
		c-0.1-0.4-0.2-0.8-0.5-1.1s-0.7-0.6-1.1-0.8s-0.9-0.2-1.2,0c-0.4,0.1-0.8,0.4-1.1,0.8c-0.7,0.9-0.1,2.1,0.3,3l0.1,0.1
		c0.2,0.5,0.4,1.1,0.4,1.8c0,0.5-0.1,0.9-0.5,1.3c-0.2,0.2-0.4,0.3-0.7,0.4c-0.3,0.1-0.5,0.1-0.8,0.1c-3.1,0.2-6.2,0.2-9.4,0.2
		c-0.9,0-1.9,0-2.8,0c-0.2,0-0.7,0-1.2,0c-0.4,0-0.8,0-1,0c-0.9,0-1.9,0-2.8,0c-3.1,0-6.3,0-9.4-0.2c-0.3,0-0.5,0-0.8-0.1
		s-0.5-0.2-0.7-0.4c-0.3-0.4-0.5-0.8-0.5-1.3c0-0.6,0.2-1.2,0.4-1.8l0.1-0.1c0.4-0.9,0.9-2.1,0.3-3c-0.3-0.4-0.7-0.7-1.1-0.8
		s-0.8-0.1-1.2,0c-0.4,0.2-0.8,0.4-1.1,0.8c-0.3,0.3-0.4,0.7-0.5,1.1c-0.1,0.4,0.1,0.9,0.4,1.2l0,0l0,0l0,0l0,0l0,0l0,0l0,0l0,0l0,0
		l0,0l0,0l0,0l0,0l0,0l0,0l0,0l0,0l0,0l0,0l0,0l0,0l0,0l0,0l0,0l0,0l0,0l0,0l0,0l0,0l0,0l0,0l0,0l0,0l0,0l0,0l0,0l0,0l0,0l0,0l0,0
		l0,0l0,0l0,0l0,0l0,0l0,0l0,0l0,0l0,0l0,0l0,0l0,0l0,0l0,0l0,0l0,0l0,0l0,0l0,0l0,0l0,0l0,0l0,0l0,0l0,0l0,0l0,0l0,0l0,0l0,0l0,0
		l0,0l0,0l0,0l0,0l0,0l0,0l0,0l0,0l0,0l0,0l0,0l0,0l0,0l0,0l0,0l0,0l0,0l0,0l0,0l0,0l0,0l0,0l0,0l0,0l0,0l0,0l0,0l0,0l0,0l0,0l0,0
		l0,0l0,0l0,0l0,0l0,0l0,0l0,0l0,0l0,0l0,0l0,0l0,0l0,0l0,0l0,0l0,0l0,0l0,0l0,0l0,0l0,0l0,0l0,0l0,0l0,0l0,0l0,0l0,0l0,0l0,0l0,0
		l0,0l0,0l0,0l0,0l0,0l0,0l0,0l0,0l0,0l0,0l0,0l0,0l0,0l0,0l0,0l0,0l0,0l0,0l0,0l0,0l0,0l0,0l0,0l0,0l0,0l0,0l0,0l0,0l0,0l0,0l0,0
		l0,0l0,0l0,0l0,0l0,0l0,0l0,0l0,0l0,0l0,0l0,0l0,0l0,0l0,0c0.3,0,0.5-0.2,0.8-0.5c0-0.1,0-0.1,0-0.2c0-0.1,0-0.1,0-0.2l0,0l0,0l0,0
		l0,0l0,0l0,0l0,0l0,0l0,0l0,0l0,0l0,0l0,0l0,0l0,0l0,0l0,0l0,0l0,0l0,0l0,0l0,0l0,0l0,0l0,0l0,0l0,0l0,0l0,0l0,0l0,0l0,0l0,0l0,0
		l0,0l0,0l0,0l0,0l0,0l0,0l0,0l0,0l0,0l0,0l0,0l0,0l0,0l0,0l0,0l0,0l0,0l0,0l0,0l0,0l0,0l0,0l0,0l0,0l0,0l0,0l0,0l0,0l0,0l0,0l0,0
		l0,0l0,0l0,0l0,0l0,0l0,0l0,0l0,0l0,0l0,0l0,0l0,0l0,0l0,0l0,0l0,0l0,0l0,0l0,0l0,0l0,0l0,0l0,0l0,0l0,0l0,0l0,0l0,0l0,0l0,0l0,0
		l0,0l0,0l0,0l0,0l0,0l0,0l0,0l0,0l0,0l0,0l0,0l0,0l0,0l0,0l0,0l0,0l0,0l0,0l0,0l0,0l0,0l0,0l0,0l0,0l0,0l0,0l0,0l0,0l0,0l0,0l0,0
		l0,0l0,0l0,0l0,0l0,0l0,0l0,0l0,0l0,0l0,0l0,0l0,0l0,0l0,0l0,0l0,0l0,0l0,0l0,0l0,0l0,0l0,0l0,0l0,0l0,0l0,0l0,0l0,0l0,0l0,0l0,0
		l0,0l0,0l0,0l0,0l0,0l0,0l0,0l0,0l0,0l0,0l0,0l0,0l0,0l0,0l0,0l0,0l0,0l0,0l0,0l0,0l0,0l0,0l0,0l0,0l0,0l0,0l0,0l0,0l0,0l0,0l0,0
		l0,0l0,0l0,0l0,0l0,0l0,0l0,0l0,0l0,0l0,0l0,0l0,0l0,0l0,0l0,0l0,0l0,0l0,0l0,0l0,0l0,0l0,0l0,0l0,0l0,0l0,0l0,0l0,0l0,0l0,0l0,0
		l0,0l0,0l0,0l0,0l0,0l0,0l0,0l0,0l0,0l0,0l0,0l0,0l0,0l0,0l0,0l0,0l0,0l0,0l0,0l0,0l0,0l0,0l0,0l0,0l0,0l0,0l0,0l0,0l0,0l0,0l0,0
		l0,0l0,0l0,0l0,0l0,0l0,0l0,0l0,0l0,0l0,0l0,0l0,0l0,0l0,0l0,0l0,0l0,0l0,0l0,0l0,0l0,0l0,0l0,0l0,0l0,0l0,0l0,0l0,0l0,0l0,0l0,0
		l0,0l0,0l0,0l0,0l0,0l0,0l0,0l0,0l0,0l0,0l0,0l0,0l0,0l0,0l0,0l0,0l0,0l0,0l0,0l0,0l0,0l0,0l0,0l0,0l0,0l0,0l0,0l0,0l0,0l0,0l0,0
		l0,0l0,0l0,0l0,0l0,0l0,0l0,0l0,0l0,0l0,0l0,0l0,0l0,0l0,0l0,0l0,0l0,0l0,0l0,0l0,0l0,0l0,0l0,0l0,0l0,0l0,0l0,0l0,0l0,0l0,0l0,0
		l0,0l0,0l0,0l0,0l0,0l0,0l0,0l0,0l0,0l0,0l0,0l0,0l0,0l0,0l0,0l0,0l0,0l0,0l0,0l0,0l0,0l0,0l0,0l0,0l0,0l0,0l0,0l0,0l0,0l0,0l0,0
		l0,0l0,0l0,0l0,0l0,0l0,0l0,0l0,0l0,0l0,0l0,0l0,0l0,0l0,0l0,0l0,0l0,0l0,0l0,0l0,0l0,0l0,0l0,0l0,0l0,0l0,0l0,0l0,0l0,0l0,0l0,0
		l0,0l0,0l0,0l0,0l0,0l0,0l0,0l0,0l0,0l0,0l0,0l0,0l0,0l0,0l0,0l0,0l0,0l0,0l0,0l0,0l0,0l0,0l0,0l0,0l0,0l0,0l0,0l0,0l0,0l0,0l0,0
		l0,0l0,0l0,0l0,0l0,0l0,0l0,0l0,0l0,0l0,0l0,0l0,0l0,0l0,0l0,0l0,0l0,0l0,0l0,0l0,0l0,0l0,0l0,0l0,0l0,0l0,0c0,0,0,0.1-0.1,0.1l0,0
		l0,0l0,0l0,0l0,0l0,0l0,0l0,0l0,0l0,0l0,0l0,0l0,0l0,0l0,0l0,0l0,0l0,0l0,0l0,0l0,0l0,0l0,0l0,0l0,0l0,0l0,0l0,0l0,0l0,0l0,0l0,0
		l0,0l0,0l0,0l0,0l0,0l0,0l0,0l0,0l0,0l0,0l0,0l0,0l0,0l0,0l0,0l0,0l0,0l0,0l0,0l0,0l0,0l0,0l0,0l0,0l0,0l0,0l0,0l0,0l0,0l0,0l0,0
		l0,0l0,0l0,0l0,0l0,0l0,0l0,0l0,0l0,0l0,0l0,0l0,0l0,0l0,0l0,0l0,0l0,0l0,0l0,0l0,0l0,0l0,0l0,0l0,0l0,0l0,0l0,0l0,0l0,0l0,0l0,0
		l0,0l0,0l0,0l0,0l0,0l0,0l0,0l0,0l0,0l0,0l0,0l0,0l0,0l0,0l0,0l0,0l0,0l0,0l0,0l0,0l0,0l0,0l0,0l0,0l0,0l0,0l0,0l0,0l0,0l0,0l0,0
		l0,0l0,0l0,0l0,0l0,0l0,0l0,0l0,0l0,0l0,0l0,0l0,0l0,0l0,0l0,0l0,0l0,0l0,0l0,0l0,0l0,0l0,0l0,0l0,0l0,0l0,0l0,0l0,0l0,0l0,0l0,0
		l0,0l0,0l0,0l0,0l0,0l0,0l0,0l0,0l0,0l0,0l0,0l0,0l0,0l0,0l0,0l0,0l0,0l0,0l0,0l0,0l0,0l0,0l0,0l0,0l0,0l0,0l0,0l0,0l0,0l0,0l0,0
		l0,0l0,0l0,0l0,0l0,0l0,0l0,0l0,0l0,0l0,0l0,0l0,0l0,0l0,0l0,0l0,0l0,0l0,0l0,0l0,0l0,0l0,0l0,0l0,0l0,0l0,0l0,0l0,0l0,0l0,0l0,0
		l0,0l0,0l0,0l0,0l0,0l0,0l0,0l0,0l0,0l0,0l0,0l0,0l0,0l0,0l0,0l0,0l0,0l0,0l0,0l0,0l0,0l0,0l0,0l0,0l0,0l0,0l0,0l0,0l0,0l0,0l0,0
		l0,0l0,0l0,0l0,0l0,0l0,0l0,0l0,0l0,0l0,0l0,0l0,0l0,0l0,0l0,0c-0.2-0.3-0.2-0.7-0.2-1s0.2-0.6,0.5-0.8s0.6-0.3,0.9-0.3
		s0.6,0.1,0.8,0.3c1,0.9,0.5,2,0,3.1c-0.3,0.7-0.6,1.4-0.6,2.1c0.1,0.6,0.3,1,0.7,1.4c0.3,0.3,0.8,0.5,1.3,0.5c0.3,0,0.6,0,0.9,0
		s0.6,0,0.9,0c1,0,2.1,0,3.1,0s2.1,0,3.1,0c0.9,0,3.3,0,5.7,0c2.5,0,4.9,0,5.8,0c1,0,2.1,0,3.1,0s2.1,0,3.1,0c0.3,0,0.6,0,0.9,0
		s0.6,0,0.9,0c0.5,0,1-0.2,1.3-0.5c0.4-0.3,0.6-0.8,0.7-1.4c0.1-0.7-0.2-1.4-0.6-2.1c-0.5-1.1-1-2.2,0-3.1c0.2-0.2,0.5-0.3,0.8-0.3
		s0.6,0.1,0.9,0.3s0.4,0.5,0.5,0.8c0.1,0.4,0,0.7-0.2,1l0,0l0,0l0,0l0,0l0,0l0,0l0,0l0,0l0,0l0,0l0,0l0,0l0,0l0,0l0,0l0,0l0,0l0,0
		l0,0l0,0l0,0l0,0l0,0l0,0l0,0l0,0l0,0l0,0l0,0l0,0l0,0l0,0l0,0l0,0l0,0l0,0l0,0l0,0l0,0l0,0l0,0l0,0l0,0l0,0l0,0l0,0l0,0l0,0l0,0
		l0,0l0,0l0,0l0,0l0,0l0,0l0,0l0,0l0,0l0,0l0,0l0,0l0,0l0,0l0,0l0,0l0,0l0,0l0,0l0,0l0,0l0,0l0,0l0,0l0,0l0,0l0,0l0,0l0,0l0,0l0,0
		l0,0l0,0l0,0l0,0l0,0l0,0l0,0l0,0l0,0l0,0l0,0l0,0l0,0l0,0l0,0l0,0l0,0l0,0l0,0l0,0l0,0l0,0l0,0l0,0l0,0l0,0l0,0l0,0l0,0l0,0l0,0
		l0,0l0,0l0,0l0,0l0,0l0,0l0,0l0,0l0,0l0,0l0,0l0,0l0,0l0,0l0,0l0,0l0,0l0,0l0,0l0,0l0,0l0,0l0,0l0,0l0,0l0,0l0,0l0,0l0,0l0,0l0,0
		l0,0l0,0l0,0l0,0l0,0l0,0l0,0l0,0l0,0l0,0l0,0l0,0l0,0l0,0l0,0l0,0l0,0l0,0l0,0l0,0l0,0l0,0l0,0l0,0l0,0l0,0l0,0l0,0l0,0l0,0l0,0
		l0,0l0,0l0,0l0,0l0,0l0,0l0,0l0,0l0,0l0,0l0,0l0,0l0,0l0,0l0,0l0,0l0,0l0,0l0,0L70.1,39.1L70.1,39.1L70.1,39.1L70.1,39.1L70.1,39.1
		L70.1,39.1L70.1,39.1L70.1,39.1L70.1,39.1L70.1,39.1L70.1,39.1L70.1,39.1L70.1,39.1L70.1,39.1L70.1,39.1L70.1,39.1L70.1,39.1
		L70.1,39.1L70.1,39.1L70.1,39.1L70.1,39.1L70.1,39.1L70.1,39.1L70.1,39.1L70.1,39.1L70.1,39.1L70.1,39.1L70.1,39.1L70.1,39.1
		L70.1,39.1L70.1,39.1L70.1,39.1L70.1,39.1L70.1,39.1L70.1,39.1L70.1,39.1L70.1,39.1L70.1,39.1L70.1,39.1L70.1,39.1L70.1,39.1
		L70.1,39.1L70.1,39.1L70.1,39.1L70.1,39.1L70.1,39.1L70.1,39.1L70.1,39.1L70.1,39.1L70.1,39.1L70.1,39.1L70.1,39.1L70.1,39.1
		L70.1,39.1L70.1,39.1L70.1,39.1L70.1,39.1L70.1,39.1L70.1,39.1L70.1,39.1L70.1,39.1L70.1,39.1L70.1,39.1L70.1,39.1L70.1,39.1
		L70.1,39.1L70.1,39.1L70.1,39.1L70.1,39.1L70.1,39.1L70.1,39.1L70.1,39.1L70.1,39.1L70.1,39.1L70.1,39.1L70.1,39.1L70.1,39.1
		L70.1,39.1L70.1,39.1L70.1,39.1L70.1,39.1L70.1,39.1L70.1,39.1L70.1,39.1L70.1,39.1L70.1,39.1L70.1,39.1L70.1,39.1L70.1,39.1
		L70.1,39.1L70.1,39.1L70.1,39.1L70.1,39.1L70.1,39.1L70.1,39.1L70.1,39.1L70.1,39.1L70.1,39.1L70.1,39.1L70.1,39.1L70.1,39.1
		L70.1,39.1L70.1,39.1L70.1,39.1L70.1,39.1L70.1,39.1L70.1,39.1L70.1,39.1L70.1,39.1L70.1,39.1L70.1,39.1L70.1,39.1L70.1,39.1
		L70.1,39.1L70.1,39.1L70.1,39.1L70.1,39.1L70.1,39.1L70.1,39.1L70.1,39.1L70.1,39.1L70.1,39.1L70.1,39.1z M61.3,46.6
		c-0.5,0.3-1-0.2-0.5-0.9l0.4-0.3C61.7,45.3,61.8,46.3,61.3,46.6L61.3,46.6z M63.4,46c-0.1-0.2-0.2-0.3-0.3-0.4L63,45.5
		c-0.1,0-0.2-0.1-0.3-0.1c-0.1,0-0.2,0-0.2,0.1c0,0,0,0,0,0.1l0,0l0,0l0,0l0,0c-0.1,0.2-0.1,0.4,0,0.6c0.1,0.2,0.2,0.3,0.3,0.4l0,0
		c0.1,0.1,0.2,0.1,0.3,0.1c0.1,0,0.2-0.1,0.3-0.2l0,0C63.5,46.3,63.5,46.2,63.4,46L63.4,46z M45.1,45.4c-0.1,0-0.3,0-0.3,0.2l0,0
		l0,0l0,0l0,0c-0.1,0.2-0.1,0.4,0,0.5c0,0.2,0.1,0.3,0.3,0.4l0,0c0.1,0.1,0.2,0.1,0.4,0.1c0.1,0,0.2-0.1,0.3-0.2l0,0
		c0.1-0.2,0-0.5-0.2-0.8c-0.1-0.1-0.1-0.2-0.2-0.2C45.2,45.5,45.2,45.4,45.1,45.4L45.1,45.4z M43.8,46.2c0.1-0.2,0-0.4,0-0.6l0,0
		l0,0l0,0c0,0,0,0,0-0.1c-0.1-0.1-0.1-0.1-0.2-0.1s-0.2,0-0.3,0.1c-0.1,0-0.1,0.1-0.1,0.1c-0.1,0.1-0.2,0.3-0.3,0.4
		c0,0.1,0,0.3,0,0.4l0,0c0.1,0.1,0.2,0.2,0.3,0.2c0.1,0,0.2,0,0.3-0.1l0,0C43.6,46.5,43.7,46.4,43.8,46.2L43.8,46.2z M64.8,46
		c0.1,0,0.2-0.1,0.3-0.2c0,0,0,0,0-0.1s0-0.1-0.1-0.2c-0.1-0.1-0.1-0.1-0.2-0.1s-0.1,0-0.2-0.1c-0.2,0-0.3,0-0.5,0
		c-0.2,0-0.4,0.1-0.5,0.1l0,0l0,0l0,0l0,0l0,0c0.1,0.1,0.2,0.2,0.3,0.3c0.2,0.1,0.4,0.1,0.5,0.1C64.5,46,64.7,46,64.8,46L64.8,46z
		 M60,45.8c0.1-0.1,0.2-0.2,0.3-0.3l0,0l0,0l0,0l0,0l0,0c-0.1-0.1-0.3-0.1-0.5-0.1s-0.4,0-0.6,0c0,0-0.1,0-0.2,0s-0.2,0.1-0.2,0.1
		c-0.1,0.1-0.1,0.1-0.1,0.2l0,0c0,0.1,0.2,0.2,0.3,0.2c0.1,0,0.3,0,0.4,0C59.7,46,59.8,45.9,60,45.8L60,45.8z M55.4,45.2
		c-0.1,0-0.1,0-0.2,0c-0.2,0-0.4-0.1-0.6,0c-0.2,0-0.3,0.1-0.5,0.1l0,0l0,0l0,0l0,0l0,0c0.1,0.1,0.2,0.2,0.3,0.3
		c0.2,0.1,0.3,0.1,0.5,0.1c0.1,0,0.3,0,0.4,0s0.3-0.1,0.3-0.2l0,0c0-0.1,0-0.1-0.1-0.2C55.6,45.3,55.5,45.2,55.4,45.2L55.4,45.2z
		 M53.5,45.3c-0.1-0.1-0.2-0.1-0.3-0.1c-0.1,0-0.2,0-0.3,0.1s-0.1,0.2-0.1,0.3s0,0.2,0.1,0.3s0.2,0.1,0.3,0.1c0.1,0,0.2,0,0.3-0.1
		c0.1-0.1,0.1-0.2,0.1-0.3S53.5,45.4,53.5,45.3L53.5,45.3z M51.9,45.6c0.1-0.1,0.2-0.2,0.3-0.3l0,0l0,0l0,0l0,0l0,0
		c-0.1-0.1-0.3-0.1-0.5-0.1s-0.4,0-0.6,0c0,0-0.1,0-0.2,0s-0.2,0.1-0.2,0.1c-0.1,0.1-0.1,0.1-0.1,0.2l0,0c0,0.1,0.2,0.2,0.3,0.2
		c0.1,0,0.3,0,0.4,0C51.6,45.8,51.7,45.7,51.9,45.6L51.9,45.6z M47.1,45.4c-0.1,0-0.1,0-0.2,0c-0.2,0-0.4-0.1-0.6,0
		c-0.2,0-0.3,0.1-0.5,0.1l0,0l0,0l0,0l0,0l0,0c0.1,0.1,0.2,0.2,0.3,0.3c0.2,0.1,0.3,0.1,0.5,0.1c0.1,0,0.3,0,0.4,0s0.3-0.1,0.3-0.2
		l0,0c0-0.1,0-0.1-0.1-0.2C47.3,45.5,47.2,45.4,47.1,45.4L47.1,45.4z M42.3,45.8c0.1-0.1,0.2-0.2,0.3-0.3l0,0l0,0l0,0l0,0l0,0
		c-0.1-0.1-0.3-0.1-0.5-0.1s-0.4,0-0.5,0s-0.1,0-0.2,0.1c-0.1,0-0.2,0.1-0.2,0.1c0,0.1-0.1,0.1-0.1,0.2c0,0,0,0,0,0.1
		s0.2,0.2,0.3,0.2c0.1,0,0.3,0,0.4,0C41.9,46,42.1,45.9,42.3,45.8L42.3,45.8z M67.5,33.6c-0.1,0.8-0.6,1.4-1.1,2
		c0.2-0.1,0.4-0.2,0.6-0.2c0.3-0.1,0.6-0.1,0.9-0.1c0.1-0.1,0.2-0.1,0.2-0.2c0.5-0.5,1-0.9,1.3-1.6c0.1-0.4,0.3-0.8,0.3-1.3
		c0-0.3-0.1-0.6-0.3-0.9c-0.2-0.2-0.6-0.4-1-0.4c-0.5,0-0.9,0.1-1.3,0.3c0.2,0.4,0.3,0.8,0.3,1.2C67.6,32.8,67.6,33.3,67.5,33.6
		L67.5,33.6z M40.8,36.6C40.8,36.5,40.8,36.5,40.8,36.6c-0.2-0.5-0.5-0.8-0.8-1.2s-0.6-0.8-0.8-1.2C39,33.9,39,33.4,39,33
		c0-0.5,0.2-1.1,0.4-1.5l0,0c1.1-1.2,2.8-1.9,4.6-2.1c1.8-0.2,3.6,0.1,4.9,1H49c0,0,0.1,0,0.1-0.1c0.5-0.5,0.9-1,1.4-1.3
		c1.1-0.8,2.3-0.9,3.3-0.7s1.8,0.7,2.4,1.2c0.3,0.3,0.6,0.6,0.7,0.8l0.1,0.1h0.1c1.4-0.9,3.2-1.2,4.9-1c1.8,0.2,3.5,0.9,4.6,2.1l0,0
		c0.2,0.4,0.3,1,0.4,1.5c0,0.5,0,0.9-0.2,1.2c-0.2,0.4-0.5,0.8-0.8,1.2s-0.6,0.8-0.8,1.2l0,0c-0.2,0.4-0.3,0.9-0.3,1.3
		c0,0.5,0.2,0.9,0.5,1.3c-1-0.1-2-0.1-3-0.2h-0.5c-0.9,0-1.8,0-2.7,0c-0.9,0-1.8,0-2.7,0h-3.7c-1.6,0-3.1,0-3.6,0
		c-0.9,0-1.8,0-2.7,0c-0.9,0-1.8,0-2.7,0h-0.5c-1,0-2,0-3,0.2c0.3-0.4,0.4-0.8,0.5-1.3C41.2,37.4,41.1,37,40.8,36.6L40.8,36.6
		L40.8,36.6z M38,35.1c0.1,0.1,0.2,0.1,0.2,0.2c0.3,0,0.6,0,0.9,0.1c0.2,0.1,0.4,0.1,0.6,0.2c-0.5-0.6-0.9-1.2-1.1-2
		c-0.1-0.4-0.1-0.8,0-1.2s0.2-0.9,0.3-1.2l0,0c-0.3-0.2-0.8-0.3-1.3-0.3c-0.4,0-0.8,0.1-1,0.4c-0.2,0.2-0.3,0.5-0.3,0.9
		s0.1,0.9,0.3,1.3C37,34.2,37.5,34.6,38,35.1L38,35.1z M38.7,40.8c0.4-0.4,1.2-0.9,1.7-1c1-0.1,2-0.2,3-0.2c0.2,0,0.4,0,0.6,0
		c0.9,0,1.8,0,2.7,0c0.9,0,1.8,0,2.7,0h3.5h3.7c0.9,0,1.8,0,2.7,0c0.9,0,1.8,0,2.7,0c0.2,0,0.4,0,0.6,0c1,0,2,0,3,0.2
		c0.7,0.1,1.4,0.4,1.9,1c0.8,0.8,0.9,2.1-0.5,2.4c-0.3,0.1-0.7,0.1-1,0.1c-0.1,0-0.2,0-0.3,0c-1.9,0.1-3.9,0.1-5.8,0.1h-0.2
		c-1.1,0-3.8,0-6.6,0c-2.7,0-5.4,0-6.5,0h-0.2c-1.9,0-3.9,0-5.8-0.1c-0.1,0-0.2,0-0.3,0c-0.4,0-0.7,0-1-0.1
		C37.8,42.9,38,41.6,38.7,40.8L38.7,40.8z M70.8,36.5L70.8,36.5c0.5,0.4,0.9,0.9,1,1.5c0.1,0.5,0.1,1.1-0.2,1.6c0,0,0,0.1-0.1,0.1
		c-0.2,0.4-0.6,0.6-1,0.7c-0.4,0.1-0.8,0-1.2-0.2l0,0c0.1,0.2,0.2,0.4,0.3,0.6c0.2,0.4,0.4,0.8,0.4,1.3c0,0.3,0,0.6,0,0.9
		c0,0.3-0.1,0.6-0.2,0.9c-0.1,0.2-0.2,0.4-0.3,0.5c-0.1,0.1-0.2,0.3-0.2,0.4c0.5,0.4,0.8,0.8,0.8,1.3c0.1,0.5,0,1.1-0.3,1.7
		c-0.1,0.1-0.2,0.3-0.2,0.4c-0.1,0.1-0.2,0.3-0.3,0.4c-0.2,0.3,0,0.6,0.1,0.8l0.1,0.1c0,0,0,0.1,0.1,0.1c0.2,0.3,0.4,0.7,0.3,1
		c-0.1,0.2-0.2,0.3-0.4,0.4c-0.2,0.1-0.4,0.1-0.6,0s-0.4-0.2-0.6-0.4c-0.1-0.2-0.2-0.4-0.3-0.6c-0.3-0.6-0.1-1.3,0-2
		c0.1-0.8,0.3-1.5-0.2-2.2c-0.1,0.1-0.2,0.2-0.3,0.3c-0.1,0.1-0.3,0.2-0.4,0.2c-0.1,0.3-0.1,0.6,0,0.9c0,0.3,0,0.6,0,0.8
		s-0.1,0.3-0.2,0.4c-0.1,0.1-0.2,0.2-0.4,0.2c-0.1,0-0.3,0-0.4-0.1c-0.2-0.1-0.4-0.3-0.5-0.4c-0.1-0.2-0.2-0.4-0.3-0.6
		c-0.1-0.2-0.1-0.4-0.1-0.6c-0.1,0-0.1,0-0.2,0s-0.1,0-0.2,0s-0.1,0-0.2-0.1c-0.1,0-0.2-0.1-0.3,0l-0.1,0.1
		c-0.3,0.3-0.7,0.4-1.1,0.4s-0.7-0.2-1-0.4l0,0c-0.3,0.3-0.6,0.4-1,0.5c-0.3,0-0.7-0.1-1-0.3c-0.2-0.2-0.3-0.2-0.4-0.1h-0.1
		c-0.1,0-0.2,0-0.3,0c-0.1,0-0.2,0-0.3,0c-0.2,0-0.3-0.1-0.5-0.2c-0.1-0.1-0.2-0.2-0.3-0.4c-0.3,0.1-0.6,0.2-0.9,0.1
		c-0.3-0.1-0.6-0.2-0.8-0.5c-0.2,0.3-0.6,0.5-0.9,0.5c-0.4,0.1-0.8,0.1-1.1-0.1c-0.2,0.1-0.4,0.2-0.7,0.3c-0.3,0-0.5,0.1-0.8,0
		c-0.1,0-0.3,0-0.4-0.1c-0.1,0-0.3-0.1-0.4-0.2c-0.3,0.2-0.8,0.2-1.1,0.1c-0.4-0.1-0.7-0.3-0.9-0.6c-0.2,0.3-0.5,0.4-0.8,0.5
		s-0.6,0.1-0.9-0.1c-0.1,0.2-0.2,0.3-0.3,0.4c-0.1,0.1-0.3,0.2-0.5,0.2c-0.1,0-0.2,0-0.3,0c-0.1,0-0.2,0-0.3,0c-0.1,0-0.1,0-0.1,0
		c-0.2-0.1-0.2-0.1-0.4,0.1c-0.3,0.3-0.7,0.4-1,0.3c-0.4,0-0.7-0.2-1-0.5l0,0c-0.3,0.3-0.7,0.4-1,0.4c-0.4,0-0.7-0.1-1.1-0.4
		c0,0-0.1,0-0.1-0.1c-0.1-0.1-0.2,0-0.3,0c-0.1,0-0.1,0.1-0.2,0.1s-0.1,0-0.2,0h-0.1c0,0.2-0.1,0.4-0.1,0.6
		c-0.1,0.2-0.2,0.4-0.3,0.6c-0.1,0.2-0.3,0.3-0.5,0.4c-0.1,0.1-0.3,0.1-0.4,0.1s-0.3-0.1-0.4-0.2c-0.1-0.1-0.1-0.2-0.2-0.4
		c-0.1-0.3,0-0.6,0-0.8c0-0.3,0.1-0.6,0-0.9c-0.2,0-0.3-0.1-0.5-0.2c-0.1-0.1-0.2-0.2-0.3-0.3c-0.5,0.6-0.4,1.4-0.2,2.2
		c0.1,0.7,0.2,1.3,0,2c-0.1,0.2-0.2,0.4-0.3,0.6c-0.1,0.2-0.3,0.4-0.6,0.4c-0.2,0.1-0.4,0.1-0.6,0s-0.3-0.2-0.4-0.4
		c-0.1-0.3,0.1-0.7,0.3-1c0,0,0-0.1,0.1-0.1l0.1-0.1c0.2-0.3,0.3-0.5,0.1-0.8c-0.1-0.1-0.2-0.3-0.3-0.4c-0.1-0.1-0.2-0.3-0.2-0.4
		c-0.3-0.6-0.4-1.2-0.3-1.7s0.4-0.9,0.8-1.3c-0.1-0.1-0.1-0.3-0.2-0.4c-0.1-0.2-0.2-0.3-0.3-0.5c-0.1-0.3-0.2-0.6-0.2-0.9
		c0-0.3-0.1-0.6,0-0.9c0.1-0.5,0.2-0.9,0.4-1.3c0.1-0.2,0.2-0.4,0.3-0.6l0,0c-0.4,0.2-0.8,0.3-1.2,0.2c-0.4-0.1-0.8-0.3-1-0.7
		c0,0,0-0.1-0.1-0.1c-0.3-0.5-0.3-1-0.2-1.6c0.1-0.5,0.4-1.1,0.9-1.4c0,0,0,0,0.1-0.1l0,0l0,0c0.1-0.1,0.4-0.3,0.7-0.5
		c0.3-0.2,0.7-0.3,1-0.5c-0.6-0.5-1.2-1.2-1.5-2c-0.3-0.7-0.4-1.4-0.1-2.1c0-0.1,0.1-0.3,0.2-0.4c0.3-0.5,0.8-0.8,1.3-1
		s1.1-0.2,1.7,0c0.2,0,0.3,0.1,0.4,0.2c0.8-0.7,1.7-1.3,2.7-1.6c1.1-0.4,2.3-0.5,3.4-0.5c0.5,0,1,0.1,1.5,0.2c0.5,0.1,1,0.3,1.5,0.5
		c0.1,0.1,0.2,0.1,0.3,0.2c0.1,0.1,0.2,0.1,0.3,0.2c0,0,0.2-0.2,0.3-0.3c0-0.1,0.1-0.1,0.1-0.1c0.2-0.1,0.3-0.3,0.5-0.4
		c0.2-0.1,0.3-0.2,0.5-0.4c0.9-0.6,1.8-0.8,2.7-0.8c1.4,0,2.5,0.6,2.9,0.8c0.2,0.1,0.4,0.2,0.5,0.4c0.2,0.1,0.3,0.3,0.5,0.4l0.1,0.1
		c0.1,0.1,0.3,0.4,0.3,0.3c0.1-0.1,0.2-0.1,0.3-0.2c0.1-0.1,0.2-0.1,0.3-0.2c0.5-0.2,1-0.4,1.5-0.5s1-0.2,1.5-0.2
		c1.1,0,2.3,0.1,3.4,0.5c1,0.3,1.9,0.9,2.7,1.6c0.1-0.1,0.3-0.1,0.4-0.2c0.5-0.2,1.1-0.2,1.7,0c0.5,0.2,1,0.5,1.3,1
		c0.1,0.1,0.1,0.2,0.2,0.4c0.2,0.7,0.2,1.5-0.1,2.1c-0.3,0.8-0.9,1.5-1.5,2c0.3,0.1,0.7,0.3,1,0.5C70.4,36.2,70.6,36.3,70.8,36.5
		L70.8,36.5z"/>
	<path class="st2" d="M61.3,46.6c-0.5,0.3-1-0.2-0.5-0.9l0.4-0.3C61.7,45.3,61.8,46.3,61.3,46.6z"/>
	<path class="st1" d="M16.9,88.7c0-0.8,0-1.5-0.1-2.1s-0.2-1.1-0.5-1.4c-0.2-0.4-0.6-0.7-1.1-0.8c-0.5-0.2-1.1-0.3-1.9-0.3h-3.2v8.3
		h3.2c0.7,0,1.2-0.1,1.7-0.2c0.4-0.1,0.8-0.3,1.1-0.6c0.3-0.3,0.5-0.7,0.6-1.2C16.8,90,16.9,89.4,16.9,88.7L16.9,88.7z M13.9,83.1
		c1.4,0,2.6,0.1,3.5,0.4c0.9,0.2,1.7,0.6,2.2,1c0.6,0.4,0.9,0.9,1.2,1.6c0.2,0.6,0.4,1.3,0.4,2.1c0,0.8-0.1,1.5-0.3,2.1
		c-0.2,0.7-0.6,1.3-1.2,1.8s-1.4,0.9-2.4,1.2c-1,0.3-2.3,0.4-3.8,0.4h-3.4v6.6l2.2,1v0.5H3.8v-0.5l2.1-1V84.5l-2.1-1v-0.4L13.9,83.1
		L13.9,83.1z M28.8,100.5h5.8l2-2.7h2.1l-0.7,3.8h-7.4h-7.7v-0.5l1.8-1.1V84.4l-1.8-1.1v-0.5h7.7v0.5l-1.8,1V100.5L28.8,100.5z
		 M52.8,93.5l-3.2-7.7l-3.2,7.7H52.8L52.8,93.5z M48.9,84.3l-0.5-1.2h4.3l7.2,17.4l1.3,0.8v0.4h-6.9v-0.4l1.3-0.8l-2.3-5.7H46
		l-2.4,5.7l1.3,0.8v0.4h-4.1v-0.4l1.3-0.8L48.9,84.3L48.9,84.3z M76.6,100.4l2.1-3.2h1.9l-0.7,4.5H63.4v-0.1
		c2.3-3.2,4.3-6.2,6.2-9.1c1.9-2.9,3.6-5.7,5.3-8.2h-6.8L66,86.8h-1.8l0.5-3.7h15.1v0.1c-1.1,1.6-2.1,3.1-3.1,4.6s-1.9,3-2.8,4.4
		s-1.8,2.8-2.7,4.2c-0.9,1.4-1.7,2.7-2.6,4L76.6,100.4L76.6,100.4z M93.7,93.5l-3.2-7.7l-3.2,7.7H93.7L93.7,93.5z M89.8,84.3
		l-0.5-1.2h4.3l7.2,17.4l1.3,0.8v0.4h-6.9v-0.4l1.3-0.8l-2.3-5.7h-7.3l-2.4,5.7l1.3,0.8v0.4h-4.1v-0.4l1.3-0.8L89.8,84.3z"/>
	<path class="st1" d="M23.6,112.5l0.3-3.6c0-0.1,0-0.2,0-0.3l0,0c0,0.1,0,0.2,0.1,0.3l1.1,3.2h0.6l1.1-3.2c0-0.1,0-0.2,0.1-0.3l0,0
		c0,0.1,0,0.2,0,0.3l0.3,3.6h0.6l-0.4-4.5h-0.7l-1.1,3.2c0,0.1-0.1,0.2-0.1,0.4l0,0c0-0.1-0.1-0.3-0.1-0.4l-1.1-3.2h-0.7l-0.4,4.5
		H23.6L23.6,112.5z M31.4,112.5v-0.4h-2.2v-1.7h1.9V110h-1.9v-1.6h2.2V108h-2.7v4.5H31.4L31.4,112.5z M32.9,112.1v-1.7h0.8
		c0.7,0,1,0.3,1,0.9s-0.3,0.9-1,0.9L32.9,112.1L32.9,112.1z M32.3,108v4.5h1.4c0.9,0,1.5-0.5,1.5-1.3s-0.6-1.3-1.5-1.3h-0.9v-1.5h2
		V108L32.3,108L32.3,108z M38.9,112.5v-0.4h-2.2v-1.7h1.9V110h-1.9v-1.6h2.2V108h-2.7v4.5H38.9L38.9,112.5z M40.4,108
		c0,3.8-0.2,4.1-0.7,4.1c-0.1,0-0.2-0.1-0.2-0.1l-0.1,0.5c0,0,0.2,0.1,0.4,0.1c1,0,1.1-0.8,1.1-4.2h1.6v4.1h0.6V108H40.4L40.4,108z
		 M44.2,108v4.5h1.4c0.9,0,1.5-0.5,1.5-1.3s-0.6-1.3-1.5-1.3h-0.8v-2L44.2,108L44.2,108z M44.8,112.1v-1.7h0.7c0.6,0,1,0.3,1,0.8
		c0,0.6-0.4,0.9-1,0.9L44.8,112.1L44.8,112.1z M48.6,112.5v-2.1h2.2v2.1h0.6V108h-0.6v2h-2.2v-2H48v4.5H48.6L48.6,112.5z M52.5,108
		v4.5h1.4c0.9,0,1.5-0.5,1.5-1.3s-0.6-1.3-1.5-1.3h-0.8v-2L52.5,108L52.5,108z M53.1,112.1v-1.7h0.7c0.6,0,1,0.3,1,0.8
		c0,0.6-0.4,0.9-1,0.9L53.1,112.1L53.1,112.1z M56.6,112.5V108H56v4.5H56.6L56.6,112.5z M60.5,112.5v-3.3c0-0.1,0-0.2,0-0.3l0,0
		c0,0.1-0.1,0.2-0.2,0.3l-2.1,3.3h-0.5V108h0.6v3.3c0,0.1,0,0.2,0,0.3l0,0c0-0.1,0.1-0.2,0.2-0.3l2.1-3.3h0.5v4.5H60.5L60.5,112.5z
		 M60,106.8c0,0-0.1,0.4-0.6,0.4s-0.6-0.4-0.6-0.4l-0.4,0.1c0,0,0.2,0.6,1,0.6s1-0.6,1-0.6L60,106.8L60,106.8z M67,112.5l0.1,1h0.4
		v-1.4H67V108h-0.6v4.1h-2.1V108h-0.6v4.5H67L67,112.5z M71.2,112.5v-0.4H69v-1.7h1.9V110H69v-1.6h2.2V108h-2.7v4.5H71.2L71.2,112.5
		z M72.6,112.5v-2.1h2.2v2.1h0.6V108h-0.6v2h-2.2v-2h-0.5v4.5H72.6L72.6,112.5z M78.1,112.5v-4.1h1.4V108h-3.4v0.4h1.4v4.1H78.1
		L78.1,112.5z M80.8,112.5v-1.9h0.8c0.9,0,1.5-0.5,1.5-1.3c0-0.9-0.6-1.3-1.5-1.3h-1.4v4.5L80.8,112.5L80.8,112.5z M81.5,108.4
		c0.6,0,1,0.3,1,0.9s-0.3,0.9-1,0.9h-0.7v-1.8H81.5z"/>
	<path class="st3" d="M10.6,109.7L10.6,109.7c0,0.1,0,0.1,0,0.1l0,0l0,0V109.7L10.6,109.7L10.6,109.7z M18.2,110.8
		c-0.1,0-0.1-0.1-0.2-0.1c0-0.1-0.1-0.1,0-0.2l0,0c0,0,0,0,0.1,0c0,0,0.1,0.1,0.1,0.2C18.2,110.7,18.2,110.7,18.2,110.8L18.2,110.8
		L18.2,110.8z M14.8,110.3L14.8,110.3c0.1-0.1,0.1-0.1,0.2-0.1h0.1C15,110.2,14.9,110.3,14.8,110.3L14.8,110.3L14.8,110.3z
		 M20.5,109.2c-0.4-0.9-1.2-1.4-2.2-1.4c-0.1,0-0.1,0-0.2,0h-6.3c-0.8,0-1.4,0.3-1.8,0.8c-0.2,0.3-0.3,0.7-0.3,1
		c0.1,0.4,0.3,0.7,0.7,0.8c0.2,0,0.4,0,0.5-0.1c0.2-0.1,0.2-0.3,0.2-0.5s-0.2-0.4-0.4-0.4l0,0l0,0c-0.1,0-0.2,0.1-0.3,0.2
		c0,0-0.1,0.2-0.1,0.3c0,0.1,0,0.1,0.1,0.1s0.2,0,0.2,0c0.1-0.1,0.1-0.2,0.1-0.2l0,0v-0.1c0.1,0,0.2,0.1,0.2,0.2s0,0.3-0.1,0.3
		c-0.1,0.1-0.2,0.1-0.4,0.1c-0.3-0.1-0.5-0.3-0.5-0.6c0-0.3,0-0.6,0.2-0.9c0.4-0.5,0.9-0.7,1.6-0.7H18c1-0.1,1.7,0.4,2.2,1.3
		c0.4,0.9,0.2,2-0.5,2.6s-1.9,0.6-2.5-0.1c-0.3-0.3-0.5-0.8-0.4-1.2c0-0.4,0.3-0.8,0.7-1c0.4-0.2,0.9-0.1,1.2,0.2
		c0.2,0.3,0.3,0.6,0.1,0.9c-0.1,0.1-0.2,0.2-0.4,0.2v-0.1c0,0,0-0.1,0-0.2s-0.1-0.2-0.2-0.3c-0.1,0-0.1-0.1-0.2,0
		c-0.1,0-0.2,0.1-0.2,0.2s0,0.3,0.1,0.4s0.3,0.2,0.5,0.2s0.5-0.1,0.6-0.3c0.2-0.3,0.2-0.8-0.1-1.1c-0.3-0.4-0.9-0.5-1.4-0.3
		c-0.4,0.2-0.8,0.7-0.8,1.2c0,0.1,0,0.1,0,0.2c-0.4-0.7-0.7-1.5-1.6-1.5c-0.5,0-0.8,0.2-0.8,0.7c0,0.3,0.1,0.5,0.3,0.6l0,0
		c0.1,0,0.2,0,0.3,0l0,0c0.2,0,0.3-0.1,0.3-0.2s0-0.1,0-0.2s-0.1-0.1-0.2-0.1s-0.2,0.1-0.3,0.2c0,0,0,0-0.1,0.1l0,0
		c-0.1-0.1-0.1-0.2-0.1-0.4c0-0.3,0.2-0.5,0.6-0.5c0.8,0,1.1,0.7,1.5,1.4c0.2,0.3,0.3,0.7,0.5,0.9l0,0c0,0.1,0.1,0.1,0.1,0.2
		c0.7,0.7,2,0.8,2.8,0.1C20.7,111.3,21,110.1,20.5,109.2z"/>
	<path class="st3" d="M95.3,109.7L95.3,109.7c0,0.1,0,0.1,0,0.1l0,0l0,0C95.4,109.8,95.4,109.7,95.3,109.7L95.3,109.7L95.3,109.7z
		 M87.7,110.8c0.1,0,0.1-0.1,0.2-0.1c0-0.1,0.1-0.1,0-0.2l0,0c0,0,0,0-0.1,0c0,0-0.1,0.1-0.1,0.2C87.7,110.7,87.7,110.7,87.7,110.8
		L87.7,110.8L87.7,110.8z M91.2,110.3L91.2,110.3c-0.1-0.1-0.1-0.1-0.2-0.1h-0.1C91,110.2,91,110.3,91.2,110.3
		C91.1,110.3,91.2,110.3,91.2,110.3L91.2,110.3z M85.4,109.2c0.4-0.9,1.2-1.4,2.2-1.4c0.1,0,0.1,0,0.2,0h6.3c0.8,0,1.4,0.3,1.8,0.8
		c0.2,0.3,0.3,0.7,0.3,1c-0.1,0.4-0.3,0.7-0.7,0.8c-0.2,0-0.4,0-0.5-0.1c-0.2-0.1-0.2-0.3-0.2-0.5s0.2-0.4,0.4-0.4l0,0l0,0
		c0.1,0,0.2,0.1,0.3,0.2c0,0,0.1,0.2,0.1,0.3c0,0.1,0,0.1-0.1,0.1s-0.2,0-0.2,0c-0.1-0.1-0.1-0.2-0.1-0.2l0,0v-0.1
		c-0.1,0-0.2,0.1-0.2,0.2s0,0.3,0.1,0.3c0.1,0.1,0.2,0.1,0.4,0.1c0.3-0.1,0.5-0.3,0.5-0.6c0-0.3,0-0.6-0.2-0.9
		c-0.4-0.5-0.9-0.7-1.6-0.7h-6.3c-1-0.1-1.7,0.4-2.2,1.3c-0.4,0.9-0.2,2,0.5,2.6s1.9,0.6,2.5-0.1c0.3-0.3,0.5-0.8,0.4-1.2
		c0-0.4-0.3-0.8-0.7-1c-0.4-0.2-0.9-0.1-1.2,0.2c-0.2,0.3-0.3,0.6-0.1,0.9c0.1,0.1,0.2,0.2,0.4,0.2v-0.1c0,0,0-0.1,0-0.2
		s0.1-0.2,0.2-0.3c0.1,0,0.1-0.1,0.2,0c0.1,0,0.2,0.1,0.2,0.2s0,0.3-0.1,0.4s-0.3,0.2-0.5,0.2s-0.5-0.1-0.6-0.3
		c-0.2-0.3-0.2-0.8,0.1-1.1c0.3-0.4,0.9-0.5,1.4-0.3c0.4,0.2,0.8,0.7,0.8,1.2c0,0.1,0,0.1,0,0.2c0.4-0.7,0.7-1.5,1.6-1.5
		c0.5,0,0.8,0.2,0.8,0.7c0,0.3-0.1,0.5-0.3,0.6l0,0c-0.1,0-0.2,0-0.3,0l0,0c-0.2,0-0.3-0.1-0.3-0.2s0-0.1,0-0.2s0.1-0.1,0.2-0.1
		s0.2,0.1,0.3,0.2c0,0,0,0,0.1,0.1l0,0c0.1-0.1,0.1-0.2,0.1-0.4c0-0.3-0.2-0.5-0.6-0.5c-0.8,0-1.1,0.7-1.5,1.4
		c-0.2,0.3-0.3,0.7-0.5,0.9l0,0c0,0.1-0.1,0.1-0.1,0.2c-0.7,0.7-2,0.8-2.8,0.1C85.2,111.3,85,110.1,85.4,109.2z"/>
</g>
</svg>
